<?xml version="1.0" encoding="UTF-8" standalone="no"?>
<!-- Created with Inkscape (http://www.inkscape.org/) -->

<svg
   version="1.1"
   id="svg1"
   width="402.30096"
   height="186.23935"
   viewBox="0 0 402.30097 186.23935"
   xmlns="http://www.w3.org/2000/svg"
   xmlns:svg="http://www.w3.org/2000/svg">
  <defs
     id="defs1" />
  <g
     id="g1"
     transform="translate(-4.9296875,0.00107115)">
    <path
       id="path1"
       d="m 14.17339,34.01608 c 0,7.82784 -6.34555,14.17339 -14.17339,14.17339 -7.82784,0 -14.17339,-6.34555 -14.17339,-14.17339 0,-7.82785 6.34555,-14.1734 14.17339,-14.1734 7.82784,0 14.17339,6.34555 14.17339,14.1734 z"
       style="fill:#ccccff;fill-opacity:1;fill-rule:nonzero;stroke:#6666ff;stroke-width:0.79701;stroke-linecap:butt;stroke-linejoin:miter;stroke-miterlimit:10;stroke-dasharray:none;stroke-opacity:1"
       transform="matrix(1.3333333,0,0,-1.3333333,24.962667,87.46)" />
    <g
       id="g2"
       aria-label="x&#10;1"
       transform="matrix(1.3333333,0,0,1.3333333,18.186667,43.969333)">
      <path
         id="path2"
         d="m 3.32875,-3.0121563 c 0.058594,-0.2578125 0.2929688,-1.171875 0.984375,-1.171875 0.046875,0 0.2929688,0 0.5039063,0.1289063 -0.28125,0.046875 -0.4804688,0.3046875 -0.4804688,0.5390625 0,0.1640625 0.1054688,0.3515625 0.375,0.3515625 0.2226563,0 0.5390625,-0.1875 0.5390625,-0.5859375 0,-0.515625 -0.5859375,-0.65625 -0.9257812,-0.65625 -0.5742188,0 -0.9257813,0.5273437 -1.0429688,0.7617187 -0.2578125,-0.65625 -0.7851562,-0.7617187 -1.078125,-0.7617187 -1.0429687,0 -1.60546875,1.2890625 -1.60546875,1.5351562 0,0.1054688 0.10546875,0.1054688 0.1171875,0.1054688 0.0820313,0 0.1171875,-0.023437 0.12890625,-0.1171875 0.3398438,-1.0546875 0.9960938,-1.3007813 1.3359375,-1.3007813 0.1875,0 0.5390625,0.09375 0.5390625,0.6679688 0,0.3046875 -0.1640625,0.9726562 -0.5390625,2.3671875 -0.1523437,0.62109375 -0.5039062,1.04296875 -0.9492187,1.04296875 -0.058594,0 -0.28125005,0 -0.49218755,-0.12890625 C 0.985,-0.29340625 1.2076563,-0.50434375 1.2076563,-0.773875 c 0,-0.2695313 -0.2226563,-0.3515625 -0.37500005,-0.3515625 -0.29296875,0 -0.5390625,0.2578125 -0.5390625,0.57421875 0,0.45703125 0.4921875,0.65625 0.93750005,0.65625 0.65625,0 1.0078125,-0.69140625 1.0429687,-0.75 0.1171875,0.36328125 0.4804688,0.75 1.078125,0.75 1.0195313,0 1.59375,-1.27734375 1.59375,-1.53515625 0,-0.09375 -0.09375,-0.09375 -0.1289062,-0.09375 -0.082031,0 -0.1054688,0.035156 -0.1289063,0.1054687 C 4.36,-0.352 3.6920313,-0.10590625 3.3639063,-0.10590625 c -0.3867188,0 -0.5390625,-0.328125 -0.5390625,-0.65625 0,-0.22265625 0.058594,-0.44531255 0.1640625,-0.87890625 z m 0,0"
         style="fill:#000000;fill-opacity:1;fill-rule:nonzero;stroke:none" />
      <path
         id="path3"
         d="m 8.0250391,-2.9359844 c 0,-0.1875 -0.011719,-0.1992187 -0.2109375,-0.1992187 -0.4453125,0.4335937 -1.078125,0.4453125 -1.359375,0.4453125 v 0.2460937 c 0.1640625,0 0.6210937,0 1.0078125,-0.1875 v 3.55078127 c 0,0.23437503 0,0.32812503 -0.6914063,0.32812503 H 6.5016016 v 0.2460937 c 0.1289062,-0.011719 0.984375,-0.023437 1.2421875,-0.023437 0.2109375,0 1.0898437,0.011719 1.2421875,0.023437 V 1.2476094 H 8.7281641 c -0.703125,0 -0.703125,-0.09375 -0.703125,-0.32812503 z m 0,0"
         style="fill:#000000;fill-opacity:1;fill-rule:nonzero;stroke:none" />
    </g>
    <path
       id="path4"
       d="M 14.17339,0 C 14.17339,7.82784 7.82784,14.17339 0,14.17339 -7.82784,14.17339 -14.17339,7.82784 -14.17339,0 c 0,-7.82784 6.34555,-14.17339 14.17339,-14.17339 7.82784,0 14.17339,6.34555 14.17339,14.17339 z"
       style="fill:#ccccff;fill-opacity:1;fill-rule:nonzero;stroke:#6666ff;stroke-width:0.79701;stroke-linecap:butt;stroke-linejoin:miter;stroke-miterlimit:10;stroke-dasharray:none;stroke-opacity:1"
       transform="matrix(1.3333333,0,0,-1.3333333,24.962667,87.46)" />
    <g
       id="g4"
       aria-label="x&#10;2"
       transform="matrix(1.3333333,0,0,1.3333333,18.186667,89.324)">
      <path
         id="path5"
         d="m 3.32875,-3.0115547 c 0.058594,-0.2578125 0.2929688,-1.171875 0.984375,-1.171875 0.046875,0 0.2929688,0 0.5039063,0.1289063 -0.28125,0.046875 -0.4804688,0.3046875 -0.4804688,0.5390625 0,0.1640625 0.1054688,0.3515625 0.375,0.3515625 0.2226563,0 0.5390625,-0.1875 0.5390625,-0.5859375 0,-0.515625 -0.5859375,-0.65625 -0.9257812,-0.65625 -0.5742188,0 -0.9257813,0.5273437 -1.0429688,0.7617187 -0.2578125,-0.65625 -0.7851562,-0.7617187 -1.078125,-0.7617187 -1.0429687,0 -1.60546875,1.2890625 -1.60546875,1.5351562 0,0.1054688 0.10546875,0.1054688 0.1171875,0.1054688 0.0820313,0 0.1171875,-0.023437 0.12890625,-0.1171875 0.3398438,-1.0546875 0.9960938,-1.3007813 1.3359375,-1.3007813 0.1875,0 0.5390625,0.09375 0.5390625,0.6679688 0,0.3046875 -0.1640625,0.9726562 -0.5390625,2.3671875 -0.1523437,0.62109371 -0.5039062,1.04296871 -0.9492187,1.04296871 -0.058594,0 -0.28125005,0 -0.49218755,-0.12890625 C 0.985,-0.29280469 1.2076563,-0.50374219 1.2076563,-0.77327344 1.2076563,-1.0428047 0.985,-1.1248359 0.83265625,-1.1248359 c -0.29296875,0 -0.5390625,0.25781246 -0.5390625,0.57421871 0,0.45703125 0.4921875,0.65625 0.93750005,0.65625 0.65625,0 1.0078125,-0.69140625 1.0429687,-0.75 0.1171875,0.36328125 0.4804688,0.75 1.078125,0.75 1.0195313,0 1.59375,-1.27734371 1.59375,-1.53515621 0,-0.09375 -0.09375,-0.09375 -0.1289062,-0.09375 -0.082031,0 -0.1054688,0.035156 -0.1289063,0.1054687 -0.328125,1.06640626 -0.9960937,1.31250001 -1.3242187,1.31250001 -0.3867188,0 -0.5390625,-0.328125 -0.5390625,-0.65625 0,-0.22265625 0.058594,-0.44531251 0.1640625,-0.87890621 z m 0,0"
         style="fill:#000000;fill-opacity:1;fill-rule:nonzero;stroke:none" />
      <path
         id="path6"
         d="m 9.2086328,0.22867969 h -0.234375 c -0.023437,0.15234375 -0.082031,0.5625 -0.1757812,0.6328125 -0.058594,0.0351563 -0.5976563,0.0351563 -0.6914063,0.0351563 H 6.8180078 c 0.7382813,-0.64453125 0.984375,-0.84375 1.3945313,-1.171875 0.515625,-0.41015625 0.9960937,-0.84374999 0.9960937,-1.49999999 0,-0.8437501 -0.7382812,-1.3593751 -1.6289062,-1.3593751 -0.8671875,0 -1.453125,0.609375 -1.453125,1.2421875 0,0.3632813 0.3046875,0.3984375 0.375,0.3984375 0.1640625,0 0.375,-0.1171875 0.375,-0.375 0,-0.1289062 -0.058594,-0.3632812 -0.421875,-0.3632812 0.2226562,-0.5039063 0.6914062,-0.65625 1.0195312,-0.65625 0.703125,0 1.0664063,0.5507812 1.0664063,1.1132813 0,0.609375 -0.4335938,1.08984374 -0.65625,1.33593749 l -1.6875,1.66406241 c -0.070312,0.058594 -0.070312,0.070312 -0.070312,0.2695313 h 2.8828125 z m 0,0"
         style="fill:#000000;fill-opacity:1;fill-rule:nonzero;stroke:none" />
    </g>
    <path
       id="path7"
       d="m 14.17339,-34.01608 c 0,7.82785 -6.34555,14.1734 -14.17339,14.1734 -7.82784,0 -14.17339,-6.34555 -14.17339,-14.1734 0,-7.82784 6.34555,-14.17339 14.17339,-14.17339 7.82784,0 14.17339,6.34555 14.17339,14.17339 z"
       style="fill:#ccccff;fill-opacity:1;fill-rule:nonzero;stroke:#6666ff;stroke-width:0.79701;stroke-linecap:butt;stroke-linejoin:miter;stroke-miterlimit:10;stroke-dasharray:none;stroke-opacity:1"
       transform="matrix(1.3333333,0,0,-1.3333333,24.962667,87.46)" />
    <g
       id="g7"
       aria-label="x&#10;3"
       transform="matrix(1.3333333,0,0,1.3333333,18.186667,134.67733)">
      <path
         id="path8"
         d="m 3.32875,-3.0128828 c 0.058594,-0.2578125 0.2929688,-1.171875 0.984375,-1.171875 0.046875,0 0.2929688,0 0.5039063,0.1289062 -0.28125,0.046875 -0.4804688,0.3046875 -0.4804688,0.5390625 0,0.1640625 0.1054688,0.3515625 0.375,0.3515625 0.2226563,0 0.5390625,-0.1875 0.5390625,-0.5859375 0,-0.515625 -0.5859375,-0.65625 -0.9257812,-0.65625 -0.5742188,0 -0.9257813,0.5273438 -1.0429688,0.7617188 -0.2578125,-0.65625 -0.7851562,-0.7617188 -1.078125,-0.7617188 -1.0429687,0 -1.60546875,1.2890625 -1.60546875,1.5351563 0,0.1054687 0.10546875,0.1054687 0.1171875,0.1054687 0.0820313,0 0.1171875,-0.023437 0.12890625,-0.1171875 0.3398438,-1.0546875 0.9960938,-1.3007812 1.3359375,-1.3007812 0.1875,0 0.5390625,0.09375 0.5390625,0.6679687 0,0.3046875 -0.1640625,0.9726563 -0.5390625,2.3671875 -0.1523437,0.62109379 -0.5039062,1.04296879 -0.9492187,1.04296879 -0.058594,0 -0.28125005,0 -0.49218755,-0.12890625 C 0.985,-0.29413281 1.2076563,-0.50507031 1.2076563,-0.77460156 1.2076563,-1.0441328 0.985,-1.1261641 0.83265625,-1.1261641 c -0.29296875,0 -0.5390625,0.25781254 -0.5390625,0.57421879 0,0.45703125 0.4921875,0.65625 0.93750005,0.65625 0.65625,0 1.0078125,-0.69140625 1.0429687,-0.75 0.1171875,0.36328125 0.4804688,0.75 1.078125,0.75 1.0195313,0 1.59375,-1.27734379 1.59375,-1.53515629 0,-0.09375 -0.09375,-0.09375 -0.1289062,-0.09375 -0.082031,0 -0.1054688,0.035156 -0.1289063,0.1054688 -0.328125,1.06640624 -0.9960937,1.31249999 -1.3242187,1.31249999 -0.3867188,0 -0.5390625,-0.328125 -0.5390625,-0.65625 0,-0.22265625 0.058594,-0.44531249 0.1640625,-0.87890629 z m 0,0"
         style="fill:#000000;fill-opacity:1;fill-rule:nonzero;stroke:none" />
      <path
         id="path9"
         d="m 7.5914453,-0.836125 c 0.5507813,0 0.9375,0.375 0.9375,1.125 0,0.8671875 -0.5039062,1.125 -0.9023437,1.125 -0.28125,0 -0.890625,-0.082031 -1.1835938,-0.4921875 C 6.7711328,0.90996875 6.8414453,0.67559375 6.8414453,0.53496875 6.8414453,0.3123125 6.6773828,0.14825 6.4547266,0.14825 c -0.1875,0 -0.3867188,0.1171875 -0.3867188,0.41015625 0,0.65625005 0.7265625,1.07812505 1.5703125,1.07812505 0.9726563,0 1.640625,-0.6445313 1.640625,-1.3476563 0,-0.5390625 -0.4453125,-1.08984375 -1.21875,-1.2421875 0.7382813,-0.2695312 0.9960938,-0.796875 0.9960938,-1.21875 0,-0.5507812 -0.6328125,-0.9609375 -1.40625,-0.9609375 -0.7734375,0 -1.359375,0.375 -1.359375,0.9375 0,0.234375 0.1523437,0.3632813 0.3632812,0.3632813 0.2109375,0 0.3515625,-0.1640625 0.3515625,-0.3515625 0,-0.1992188 -0.140625,-0.3515625 -0.3515625,-0.3632813 0.234375,-0.3046875 0.7148438,-0.3867187 0.9726563,-0.3867187 0.3164062,0 0.7617187,0.1523437 0.7617187,0.7617187 0,0.2929688 -0.1054687,0.609375 -0.28125,0.8320313 -0.234375,0.2578125 -0.421875,0.28125 -0.7734375,0.2929687 -0.1757812,0.023437 -0.1875,0.023437 -0.2226562,0.023437 -0.011719,0 -0.070312,0.011719 -0.070312,0.09375 0,0.09375 0.058594,0.09375 0.1757812,0.09375 z m 0,0"
         style="fill:#000000;fill-opacity:1;fill-rule:nonzero;stroke:none" />
    </g>
    <path
       id="path10"
       d="m 104.88309,51.0239 c 0,7.82785 -6.34555,14.1734 -14.17339,14.1734 -7.82785,0 -14.1734,-6.34555 -14.1734,-14.1734 0,-7.82786 6.34555,-14.1734 14.1734,-14.1734 7.82784,0 14.17339,6.34554 14.17339,14.1734 z"
       style="fill:#ffe6cc;fill-opacity:1;fill-rule:nonzero;stroke:#ffa64c;stroke-width:0.79701;stroke-linecap:butt;stroke-linejoin:miter;stroke-miterlimit:10;stroke-dasharray:none;stroke-opacity:1"
       transform="matrix(1.3333333,0,0,-1.3333333,24.962667,87.46)" />
    <g
       id="g10"
       aria-label="n&#10;1"
       transform="matrix(1.3333333,0,0,1.3333333,138.94133,21.292)">
      <path
         id="path11"
         d="m 0.87896094,-0.58521094 c -0.0351563,0.15234375 -0.09375,0.375 -0.09375,0.421875 0,0.1875 0.140625,0.26953125 0.29296876,0.26953125 0.1171875,0 0.2929687,-0.0703125 0.3632812,-0.26953125 0.011719,-0.0234375 0.1289063,-0.4921875 0.1875,-0.73828125 L 1.8516172,-1.8039609 c 0.058594,-0.2226563 0.1171875,-0.4335938 0.1757812,-0.6679688 0.035156,-0.1640625 0.1171875,-0.4570312 0.1289063,-0.4921875 0.140625,-0.3164062 0.6679687,-1.21875 1.6171875,-1.21875 0.4453125,0 0.5390625,0.3632813 0.5390625,0.6914063 0,0.6210937 -0.4921875,1.8984375 -0.6445313,2.3320312 -0.09375,0.22265626 -0.1054687,0.33984376 -0.1054687,0.45703126 0,0.46875 0.3515625,0.80859375 0.8203125,0.80859375 0.9375,0 1.3007812,-1.45312501 1.3007812,-1.53515621 0,-0.09375 -0.082031,-0.09375 -0.1171875,-0.09375 -0.09375,0 -0.09375,0.023437 -0.1523437,0.1757812 -0.1992188,0.67968751 -0.5273438,1.24218751 -1.0078125,1.24218751 -0.1757813,0 -0.2460938,-0.10546875 -0.2460938,-0.328125 0,-0.2578125 0.09375,-0.4921875 0.1875,-0.71484371 0.1875,-0.5273438 0.5976563,-1.6171875 0.5976563,-2.1914063 0,-0.6679687 -0.421875,-1.0664062 -1.1367188,-1.0664062 -0.9023437,0 -1.3828125,0.6445312 -1.5585937,0.8671875 -0.046875,-0.5507813 -0.4570313,-0.8671875 -0.9140625,-0.8671875 -0.45703126,0 -0.64453126,0.3867187 -0.75000001,0.5742187 -0.15234375,0.3398438 -0.29296875,0.9257813 -0.29296875,0.9609375 0,0.1054688 0.09375,0.1054688 0.1171875,0.1054688 0.09375,0 0.10546875,-0.011719 0.1640625,-0.234375 0.17578125,-0.703125 0.375,-1.1835938 0.72656246,-1.1835938 0.1992188,0 0.3164063,0.1289063 0.3164063,0.4570313 0,0.2109375 -0.035156,0.3164062 -0.1640625,0.8320312 z m 0,0"
         style="fill:#000000;fill-opacity:1;fill-rule:nonzero;stroke:none" />
      <path
         id="path12"
         d="m 8.3115781,-2.9348203 c 0,-0.1875 -0.011719,-0.1992188 -0.2109375,-0.1992188 -0.4453125,0.4335938 -1.078125,0.4453125 -1.359375,0.4453125 v 0.2460938 c 0.1640625,0 0.6210938,0 1.0078125,-0.1875 v 3.55078124 c 0,0.23437496 0,0.32812496 -0.6914062,0.32812496 H 6.7881406 v 0.2460938 c 0.1289063,-0.011719 0.984375,-0.023437 1.2421875,-0.023437 0.2109375,0 1.0898438,0.011719 1.2421875,0.023437 V 1.2487734 H 9.0147031 c -0.703125,0 -0.703125,-0.09375 -0.703125,-0.32812496 z m 0,0"
         style="fill:#000000;fill-opacity:1;fill-rule:nonzero;stroke:none" />
    </g>
    <path
       id="path13"
       d="m 104.88309,17.00781 c 0,7.82785 -6.34555,14.1734 -14.17339,14.1734 -7.82785,0 -14.1734,-6.34555 -14.1734,-14.1734 0,-7.82785 6.34555,-14.1734 14.1734,-14.1734 7.82784,0 14.17339,6.34555 14.17339,14.1734 z"
       style="fill:#ffe6cc;fill-opacity:1;fill-rule:nonzero;stroke:#ffa64c;stroke-width:0.79701;stroke-linecap:butt;stroke-linejoin:miter;stroke-miterlimit:10;stroke-dasharray:none;stroke-opacity:1"
       transform="matrix(1.3333333,0,0,-1.3333333,24.962667,87.46)" />
    <g
       id="g13"
       aria-label="n&#10;2"
       transform="matrix(1.3333333,0,0,1.3333333,138.94133,66.646667)">
      <path
         id="path14"
         d="m 0.87896094,-0.58460938 c -0.0351563,0.15234375 -0.09375,0.375 -0.09375,0.421875 0,0.1875 0.140625,0.26953125 0.29296876,0.26953125 0.1171875,0 0.2929687,-0.0703125 0.3632812,-0.26953125 0.011719,-0.0234375 0.1289063,-0.4921875 0.1875,-0.73828125 L 1.8516172,-1.8033594 c 0.058594,-0.2226562 0.1171875,-0.4335937 0.1757812,-0.6679687 0.035156,-0.1640625 0.1171875,-0.4570313 0.1289063,-0.4921875 0.140625,-0.3164063 0.6679687,-1.21875 1.6171875,-1.21875 0.4453125,0 0.5390625,0.3632812 0.5390625,0.6914062 0,0.6210938 -0.4921875,1.8984375 -0.6445313,2.3320313 -0.09375,0.22265622 -0.1054687,0.33984372 -0.1054687,0.45703122 0,0.46875 0.3515625,0.80859375 0.8203125,0.80859375 0.9375,0 1.3007812,-1.45312497 1.3007812,-1.53515627 0,-0.09375 -0.082031,-0.09375 -0.1171875,-0.09375 -0.09375,0 -0.09375,0.023437 -0.1523437,0.1757813 -0.1992188,0.67968747 -0.5273438,1.24218747 -1.0078125,1.24218747 -0.1757813,0 -0.2460938,-0.10546875 -0.2460938,-0.328125 0,-0.2578125 0.09375,-0.4921875 0.1875,-0.71484377 0.1875,-0.5273437 0.5976563,-1.6171875 0.5976563,-2.1914062 0,-0.6679688 -0.421875,-1.0664063 -1.1367188,-1.0664063 -0.9023437,0 -1.3828125,0.6445313 -1.5585937,0.8671875 -0.046875,-0.5507812 -0.4570313,-0.8671875 -0.9140625,-0.8671875 -0.45703126,0 -0.64453126,0.3867188 -0.75000001,0.5742188 -0.15234375,0.3398437 -0.29296875,0.9257812 -0.29296875,0.9609375 0,0.1054687 0.09375,0.1054687 0.1171875,0.1054687 0.09375,0 0.10546875,-0.011719 0.1640625,-0.234375 0.17578125,-0.703125 0.375,-1.1835937 0.72656246,-1.1835937 0.1992188,0 0.3164063,0.1289062 0.3164063,0.4570312 0,0.2109375 -0.035156,0.3164063 -0.1640625,0.8320313 z m 0,0"
         style="fill:#000000;fill-opacity:1;fill-rule:nonzero;stroke:none" />
      <path
         id="path15"
         d="m 9.4951719,0.22691406 h -0.234375 c -0.023437,0.15234375 -0.082031,0.5625 -0.1757813,0.6328125 -0.058594,0.0351563 -0.5976562,0.0351563 -0.6914062,0.0351563 H 7.1045469 c 0.7382812,-0.64453125 0.984375,-0.84375 1.3945312,-1.171875 0.515625,-0.41015625 0.9960938,-0.84374996 0.9960938,-1.49999996 0,-0.8437501 -0.7382813,-1.3593751 -1.6289063,-1.3593751 -0.8671875,0 -1.453125,0.609375 -1.453125,1.2421876 0,0.3632813 0.3046875,0.3984375 0.375,0.3984375 0.1640625,0 0.375,-0.1171875 0.375,-0.375 0,-0.1289062 -0.058594,-0.3632812 -0.421875,-0.3632812 0.2226563,-0.5039064 0.6914063,-0.65625 1.0195313,-0.65625 0.703125,0 1.0664062,0.5507811 1.0664062,1.1132812 0,0.609375 -0.4335937,1.08984371 -0.65625,1.33593746 l -1.6875,1.66406254 c -0.070312,0.058594 -0.070312,0.070312 -0.070312,0.2695313 h 2.8828125 z m 0,0"
         style="fill:#000000;fill-opacity:1;fill-rule:nonzero;stroke:none" />
    </g>
    <path
       id="path16"
       d="m 104.88309,-17.00781 c 0,7.82785 -6.34555,14.1734 -14.17339,14.1734 -7.82785,0 -14.1734,-6.34555 -14.1734,-14.1734 0,-7.82785 6.34555,-14.1734 14.1734,-14.1734 7.82784,0 14.17339,6.34555 14.17339,14.1734 z"
       style="fill:#ffe6cc;fill-opacity:1;fill-rule:nonzero;stroke:#ffa64c;stroke-width:0.79701;stroke-linecap:butt;stroke-linejoin:miter;stroke-miterlimit:10;stroke-dasharray:none;stroke-opacity:1"
       transform="matrix(1.3333333,0,0,-1.3333333,24.962667,87.46)" />
    <g
       id="g16"
       aria-label="n&#10;3"
       transform="matrix(1.3333333,0,0,1.3333333,138.94133,112)">
      <path
         id="path17"
         d="m 0.87896094,-0.5859375 c -0.0351563,0.15234375 -0.09375,0.375 -0.09375,0.421875 0,0.1875 0.140625,0.26953125 0.29296876,0.26953125 0.1171875,0 0.2929687,-0.0703125 0.3632812,-0.26953125 0.011719,-0.0234375 0.1289063,-0.4921875 0.1875,-0.73828125 L 1.8516172,-1.8046875 c 0.058594,-0.2226563 0.1171875,-0.4335938 0.1757812,-0.6679688 0.035156,-0.1640625 0.1171875,-0.4570312 0.1289063,-0.4921875 0.140625,-0.3164062 0.6679687,-1.2187499 1.6171875,-1.2187499 0.4453125,0 0.5390625,0.3632812 0.5390625,0.6914062 0,0.6210937 -0.4921875,1.8984375 -0.6445313,2.3320313 -0.09375,0.2226562 -0.1054687,0.3398437 -0.1054687,0.4570312 0,0.46875 0.3515625,0.80859375 0.8203125,0.80859375 0.9375,0 1.3007812,-1.45312495 1.3007812,-1.53515625 0,-0.09375 -0.082031,-0.09375 -0.1171875,-0.09375 -0.09375,0 -0.09375,0.023437 -0.1523437,0.1757813 -0.1992188,0.67968745 -0.5273438,1.24218745 -1.0078125,1.24218745 -0.1757813,0 -0.2460938,-0.10546875 -0.2460938,-0.328125 0,-0.2578125 0.09375,-0.4921875 0.1875,-0.71484375 0.1875,-0.5273437 0.5976563,-1.6171875 0.5976563,-2.1914063 0,-0.6679687 -0.421875,-1.0664062 -1.1367188,-1.0664062 -0.9023437,0 -1.3828125,0.6445312 -1.5585937,0.8671875 C 2.2031797,-4.0898437 1.7930234,-4.40625 1.3359922,-4.40625 c -0.45703126,0 -0.64453126,0.3867188 -0.75000001,0.5742187 -0.15234375,0.3398438 -0.29296875,0.9257813 -0.29296875,0.9609375 0,0.1054688 0.09375,0.1054688 0.1171875,0.1054688 0.09375,0 0.10546875,-0.011719 0.1640625,-0.234375 0.17578125,-0.703125 0.375,-1.1835937 0.72656246,-1.1835937 0.1992188,0 0.3164063,0.1289062 0.3164063,0.4570312 0,0.2109375 -0.035156,0.3164062 -0.1640625,0.8320312 z m 0,0"
         style="fill:#000000;fill-opacity:1;fill-rule:nonzero;stroke:none" />
      <path
         id="path18"
         d="m 7.8779844,-0.83789063 c 0.5507812,0 0.9375,0.375 0.9375,1.12500001 0,0.86718752 -0.5039063,1.12500002 -0.9023438,1.12500002 -0.28125,0 -0.890625,-0.082031 -1.1835937,-0.49218752 0.328125,-0.0117188 0.3984375,-0.24609376 0.3984375,-0.38671876 0,-0.22265624 -0.1640625,-0.38671875 -0.3867188,-0.38671875 -0.1875,0 -0.3867187,0.11718751 -0.3867187,0.41015625 0,0.65624998 0.7265625,1.07812498 1.5703125,1.07812498 0.9726562,0 1.640625,-0.64453122 1.640625,-1.34765622 0,-0.53906251 -0.4453125,-1.08984376 -1.21875,-1.24218751 0.7382812,-0.26953127 0.9960937,-0.79687497 0.9960937,-1.21874997 0,-0.5507813 -0.6328125,-0.9609375 -1.40625,-0.9609375 -0.7734375,0 -1.359375,0.375 -1.359375,0.9375 0,0.234375 0.1523438,0.3632812 0.3632813,0.3632812 0.2109375,0 0.3515625,-0.1640625 0.3515625,-0.3515625 0,-0.1992187 -0.140625,-0.3515625 -0.3515625,-0.3632812 0.234375,-0.3046875 0.7148437,-0.3867188 0.9726562,-0.3867188 0.3164063,0 0.7617188,0.1523438 0.7617188,0.7617188 0,0.2929687 -0.1054688,0.609375 -0.28125,0.8320312 -0.234375,0.2578125 -0.421875,0.28125 -0.7734375,0.2929688 -0.1757813,0.023437 -0.1875,0.023437 -0.2226563,0.023437 -0.011719,0 -0.070312,0.011719 -0.070312,0.09375 0,0.09375 0.058594,0.09375 0.1757813,0.09375 z m 0,0"
         style="fill:#000000;fill-opacity:1;fill-rule:nonzero;stroke:none" />
    </g>
    <path
       id="path19"
       d="m 104.88309,-51.0239 c 0,7.82786 -6.34555,14.1734 -14.17339,14.1734 -7.82785,0 -14.1734,-6.34554 -14.1734,-14.1734 0,-7.82785 6.34555,-14.1734 14.1734,-14.1734 7.82784,0 14.17339,6.34555 14.17339,14.1734 z"
       style="fill:#ffe6cc;fill-opacity:1;fill-rule:nonzero;stroke:#ffa64c;stroke-width:0.79701;stroke-linecap:butt;stroke-linejoin:miter;stroke-miterlimit:10;stroke-dasharray:none;stroke-opacity:1"
       transform="matrix(1.3333333,0,0,-1.3333333,24.962667,87.46)" />
    <g
       id="g19"
       aria-label="n&#10;4"
       transform="matrix(1.3333333,0,0,1.3333333,138.94133,157.35467)">
      <path
         id="path20"
         d="m 0.87896094,-0.58533594 c -0.0351563,0.15234375 -0.09375,0.375 -0.09375,0.421875 0,0.1875 0.140625,0.26953125 0.29296876,0.26953125 0.1171875,0 0.2929687,-0.0703125 0.3632812,-0.26953125 0.011719,-0.0234375 0.1289063,-0.4921875 0.1875,-0.73828125 L 1.8516172,-1.8040859 c 0.058594,-0.2226563 0.1171875,-0.4335938 0.1757812,-0.6679688 0.035156,-0.1640625 0.1171875,-0.4570312 0.1289063,-0.4921875 0.140625,-0.3164062 0.6679687,-1.21875 1.6171875,-1.21875 0.4453125,0 0.5390625,0.3632813 0.5390625,0.6914063 0,0.6210937 -0.4921875,1.8984375 -0.6445313,2.3320312 -0.09375,0.22265626 -0.1054687,0.33984376 -0.1054687,0.45703126 0,0.46875 0.3515625,0.80859375 0.8203125,0.80859375 0.9375,0 1.3007812,-1.45312501 1.3007812,-1.53515621 0,-0.09375 -0.082031,-0.09375 -0.1171875,-0.09375 -0.09375,0 -0.09375,0.023437 -0.1523437,0.1757812 -0.1992188,0.67968751 -0.5273438,1.24218751 -1.0078125,1.24218751 -0.1757813,0 -0.2460938,-0.10546875 -0.2460938,-0.328125 0,-0.2578125 0.09375,-0.4921875 0.1875,-0.71484371 0.1875,-0.5273438 0.5976563,-1.6171875 0.5976563,-2.1914063 0,-0.6679687 -0.421875,-1.0664062 -1.1367188,-1.0664062 -0.9023437,0 -1.3828125,0.6445312 -1.5585937,0.8671875 -0.046875,-0.5507813 -0.4570313,-0.8671875 -0.9140625,-0.8671875 -0.45703126,0 -0.64453126,0.3867187 -0.75000001,0.5742187 -0.15234375,0.3398438 -0.29296875,0.9257813 -0.29296875,0.9609375 0,0.1054688 0.09375,0.1054688 0.1171875,0.1054688 0.09375,0 0.10546875,-0.011719 0.1640625,-0.234375 0.17578125,-0.703125 0.375,-1.1835938 0.72656246,-1.1835938 0.1992188,0 0.3164063,0.1289063 0.3164063,0.4570313 0,0.2109375 -0.035156,0.3164062 -0.1640625,0.8320312 z m 0,0"
         style="fill:#000000;fill-opacity:1;fill-rule:nonzero;stroke:none" />
      <path
         id="path21"
         d="M 9.6709531,0.34630469 V 0.10021094 H 8.8975156 V -3.0052578 c 0,-0.1523438 0,-0.1992188 -0.1523437,-0.1992188 -0.09375,0 -0.1171875,0 -0.1875,0.09375 L 6.2490781,0.10021094 v 0.24609375 h 2.0507813 v 0.57421875 c 0,0.23437496 0,0.32812496 -0.5625,0.32812496 h -0.1875 v 0.2460938 c 0.3515625,-0.011719 0.796875,-0.023437 1.0429687,-0.023437 0.2578125,0 0.703125,0.011719 1.0546875,0.023437 V 1.2486484 h -0.1875 c -0.5625,0 -0.5625,-0.09375 -0.5625,-0.32812496 V 0.34630469 Z M 8.3467344,-2.4544766 V 0.10021094 H 6.5068906 Z m 0,0"
         style="fill:#000000;fill-opacity:1;fill-rule:nonzero;stroke:none" />
    </g>
    <path
       id="path22"
       d="m 195.5928,34.01608 c 0,7.82784 -6.34555,14.17339 -14.1734,14.17339 -7.82785,0 -14.1734,-6.34555 -14.1734,-14.17339 0,-7.82785 6.34555,-14.1734 14.1734,-14.1734 7.82785,0 14.1734,6.34555 14.1734,14.1734 z"
       style="fill:#ffd9b3;fill-opacity:1;fill-rule:nonzero;stroke:#ff8c19;stroke-width:0.79701;stroke-linecap:butt;stroke-linejoin:miter;stroke-miterlimit:10;stroke-dasharray:none;stroke-opacity:1"
       transform="matrix(1.3333333,0,0,-1.3333333,24.962667,87.46)" />
    <g
       id="g22"
       aria-label="n&#10;1"
       transform="matrix(1.3333333,0,0,1.3333333,259.88533,43.969333)">
      <path
         id="path23"
         d="m 0.87994531,-0.586375 c -0.0351563,0.15234375 -0.09375,0.375 -0.09375,0.421875 0,0.1875 0.140625,0.26953125 0.29296879,0.26953125 0.1171875,0 0.2929687,-0.0703125 0.3632812,-0.26953125 0.011719,-0.0234375 0.1289063,-0.4921875 0.1875,-0.73828125 L 1.8526016,-1.805125 c 0.058594,-0.2226563 0.1171875,-0.4335938 0.1757812,-0.6679688 0.035156,-0.1640625 0.1171875,-0.4570312 0.1289063,-0.4921875 0.140625,-0.3164062 0.6679687,-1.21875 1.6171875,-1.21875 0.4453125,0 0.5390625,0.3632813 0.5390625,0.6914063 0,0.6210937 -0.4921875,1.8984375 -0.6445313,2.3320312 -0.09375,0.2226563 -0.1054687,0.3398438 -0.1054687,0.4570313 0,0.46875 0.3515625,0.80859375 0.8203125,0.80859375 0.9375,0 1.3007812,-1.45312505 1.3007812,-1.53515625 0,-0.09375 -0.082031,-0.09375 -0.1171875,-0.09375 -0.09375,0 -0.09375,0.023437 -0.1523437,0.1757812 -0.1992188,0.67968755 -0.5273438,1.24218755 -1.0078125,1.24218755 -0.1757813,0 -0.2460938,-0.10546875 -0.2460938,-0.328125 0,-0.2578125 0.09375,-0.4921875 0.1875,-0.71484375 0.1875,-0.5273438 0.5976563,-1.6171875 0.5976563,-2.1914063 0,-0.6679687 -0.421875,-1.0664062 -1.1367188,-1.0664062 -0.9023437,0 -1.3828125,0.6445312 -1.5585937,0.8671875 -0.046875,-0.5507813 -0.4570313,-0.8671875 -0.9140625,-0.8671875 -0.45703129,0 -0.64453129,0.3867187 -0.75000004,0.5742187 -0.15234375,0.3398438 -0.29296875,0.9257813 -0.29296875,0.9609375 0,0.1054688 0.09375,0.1054688 0.1171875,0.1054688 0.09375,0 0.10546875,-0.011719 0.1640625,-0.234375 0.17578125,-0.703125 0.375,-1.1835938 0.72656249,-1.1835938 0.1992188,0 0.3164063,0.1289063 0.3164063,0.4570313 0,0.2109375 -0.035156,0.3164062 -0.1640625,0.8320312 z m 0,0"
         style="fill:#000000;fill-opacity:1;fill-rule:nonzero;stroke:none" />
      <path
         id="path24"
         d="m 8.3125625,-2.9359844 c 0,-0.1875 -0.011719,-0.1992187 -0.2109375,-0.1992187 C 7.6563125,-2.7016094 7.0235,-2.6898906 6.74225,-2.6898906 v 0.2460937 c 0.1640625,0 0.6210938,0 1.0078125,-0.1875 v 3.55078127 c 0,0.23437503 0,0.32812503 -0.6914062,0.32812503 H 6.789125 v 0.2460937 c 0.1289063,-0.011719 0.984375,-0.023437 1.2421875,-0.023437 0.2109375,0 1.0898438,0.011719 1.2421875,0.023437 V 1.2476094 H 9.0156875 c -0.703125,0 -0.703125,-0.09375 -0.703125,-0.32812503 z m 0,0"
         style="fill:#000000;fill-opacity:1;fill-rule:nonzero;stroke:none" />
    </g>
    <path
       id="path25"
       d="m 195.5928,0 c 0,7.82784 -6.34555,14.17339 -14.1734,14.17339 -7.82785,0 -14.1734,-6.34555 -14.1734,-14.17339 0,-7.82784 6.34555,-14.17339 14.1734,-14.17339 7.82785,0 14.1734,6.34555 14.1734,14.17339 z"
       style="fill:#ffd9b3;fill-opacity:1;fill-rule:nonzero;stroke:#ff8c19;stroke-width:0.79701;stroke-linecap:butt;stroke-linejoin:miter;stroke-miterlimit:10;stroke-dasharray:none;stroke-opacity:1"
       transform="matrix(1.3333333,0,0,-1.3333333,24.962667,87.46)" />
    <g
       id="g25"
       aria-label="n&#10;2"
       transform="matrix(1.3333333,0,0,1.3333333,259.88533,89.324)">
      <path
         id="path26"
         d="m 0.87994531,-0.58577344 c -0.0351563,0.15234375 -0.09375,0.375 -0.09375,0.421875 0,0.1875 0.140625,0.26953125 0.29296879,0.26953125 0.1171875,0 0.2929687,-0.0703125 0.3632812,-0.26953125 0.011719,-0.0234375 0.1289063,-0.4921875 0.1875,-0.73828125 L 1.8526016,-1.8045234 c 0.058594,-0.2226563 0.1171875,-0.4335938 0.1757812,-0.6679688 0.035156,-0.1640625 0.1171875,-0.4570312 0.1289063,-0.4921875 0.140625,-0.3164062 0.6679687,-1.21875 1.6171875,-1.21875 0.4453125,0 0.5390625,0.3632813 0.5390625,0.6914063 0,0.6210937 -0.4921875,1.8984375 -0.6445313,2.3320312 -0.09375,0.22265626 -0.1054687,0.33984376 -0.1054687,0.45703126 0,0.46875 0.3515625,0.80859375 0.8203125,0.80859375 0.9375,0 1.3007812,-1.45312501 1.3007812,-1.53515621 0,-0.09375 -0.082031,-0.09375 -0.1171875,-0.09375 -0.09375,0 -0.09375,0.023437 -0.1523437,0.1757812 -0.1992188,0.67968751 -0.5273438,1.24218751 -1.0078125,1.24218751 -0.1757813,0 -0.2460938,-0.10546875 -0.2460938,-0.328125 0,-0.2578125 0.09375,-0.4921875 0.1875,-0.71484371 0.1875,-0.5273438 0.5976563,-1.6171875 0.5976563,-2.1914063 0,-0.6679687 -0.421875,-1.0664062 -1.1367188,-1.0664062 -0.9023437,0 -1.3828125,0.6445312 -1.5585937,0.8671875 -0.046875,-0.5507813 -0.4570313,-0.8671875 -0.9140625,-0.8671875 -0.45703129,0 -0.64453129,0.3867187 -0.75000004,0.5742187 -0.15234375,0.3398438 -0.29296875,0.9257813 -0.29296875,0.9609375 0,0.1054688 0.09375,0.1054688 0.1171875,0.1054688 0.09375,0 0.10546875,-0.011719 0.1640625,-0.234375 0.17578125,-0.703125 0.375,-1.1835938 0.72656249,-1.1835938 0.1992188,0 0.3164063,0.1289063 0.3164063,0.4570313 0,0.2109375 -0.035156,0.3164062 -0.1640625,0.8320312 z m 0,0"
         style="fill:#000000;fill-opacity:1;fill-rule:nonzero;stroke:none" />
      <path
         id="path27"
         d="M 9.4961563,0.22867969 H 9.2617813 C 9.2383438,0.38102344 9.17975,0.79117969 9.086,0.86149219 9.0274063,0.89664844 8.4883438,0.89664844 8.3945938,0.89664844 H 7.1055313 c 0.7382812,-0.64453125 0.984375,-0.84375 1.3945312,-1.171875 0.515625,-0.41015625 0.9960938,-0.84375004 0.9960938,-1.50000004 0,-0.84375 -0.7382813,-1.359375 -1.6289063,-1.359375 -0.8671875,0 -1.453125,0.609375 -1.453125,1.2421875 0,0.3632813 0.3046875,0.3984375 0.375,0.3984375 0.1640625,0 0.375,-0.1171875 0.375,-0.375 0,-0.1289062 -0.058594,-0.3632812 -0.421875,-0.3632812 0.2226563,-0.5039063 0.6914063,-0.65625 1.0195313,-0.65625 0.703125,0 1.0664062,0.5507812 1.0664062,1.1132812 0,0.609375 -0.4335937,1.08984379 -0.65625,1.33593754 l -1.6875,1.66406246 C 6.414125,1.2833672 6.414125,1.2950859 6.414125,1.4943047 h 2.8828125 z m 0,0"
         style="fill:#000000;fill-opacity:1;fill-rule:nonzero;stroke:none" />
    </g>
    <path
       id="path28"
       d="m 195.5928,-34.01608 c 0,7.82785 -6.34555,14.1734 -14.1734,14.1734 -7.82785,0 -14.1734,-6.34555 -14.1734,-14.1734 0,-7.82784 6.34555,-14.17339 14.1734,-14.17339 7.82785,0 14.1734,6.34555 14.1734,14.17339 z"
       style="fill:#ffd9b3;fill-opacity:1;fill-rule:nonzero;stroke:#ff8c19;stroke-width:0.79701;stroke-linecap:butt;stroke-linejoin:miter;stroke-miterlimit:10;stroke-dasharray:none;stroke-opacity:1"
       transform="matrix(1.3333333,0,0,-1.3333333,24.962667,87.46)" />
    <g
       id="g28"
       aria-label="n&#10;3"
       transform="matrix(1.3333333,0,0,1.3333333,259.88533,134.67733)">
      <path
         id="path29"
         d="m 0.87994531,-0.58710156 c -0.0351563,0.15234375 -0.09375,0.375 -0.09375,0.421875 0,0.1875 0.140625,0.26953125 0.29296879,0.26953125 0.1171875,0 0.2929687,-0.0703125 0.3632812,-0.26953125 0.011719,-0.0234375 0.1289063,-0.4921875 0.1875,-0.73828125 L 1.8526016,-1.8058516 c 0.058594,-0.2226562 0.1171875,-0.4335937 0.1757812,-0.6679687 0.035156,-0.1640625 0.1171875,-0.4570313 0.1289063,-0.4921875 0.140625,-0.3164063 0.6679687,-1.21875 1.6171875,-1.21875 0.4453125,0 0.5390625,0.3632812 0.5390625,0.6914062 0,0.6210938 -0.4921875,1.8984375 -0.6445313,2.3320313 -0.09375,0.22265624 -0.1054687,0.33984374 -0.1054687,0.45703124 0,0.46875 0.3515625,0.80859375 0.8203125,0.80859375 0.9375,0 1.3007812,-1.45312499 1.3007812,-1.53515629 0,-0.09375 -0.082031,-0.09375 -0.1171875,-0.09375 -0.09375,0 -0.09375,0.023437 -0.1523437,0.1757813 -0.1992188,0.67968749 -0.5273438,1.24218749 -1.0078125,1.24218749 -0.1757813,0 -0.2460938,-0.10546875 -0.2460938,-0.328125 0,-0.2578125 0.09375,-0.4921875 0.1875,-0.71484379 0.1875,-0.5273437 0.5976563,-1.6171875 0.5976563,-2.1914062 0,-0.6679688 -0.421875,-1.0664063 -1.1367188,-1.0664063 -0.9023437,0 -1.3828125,0.6445313 -1.5585937,0.8671875 -0.046875,-0.5507812 -0.4570313,-0.8671875 -0.9140625,-0.8671875 -0.45703129,0 -0.64453129,0.3867188 -0.75000004,0.5742188 -0.15234375,0.3398437 -0.29296875,0.9257812 -0.29296875,0.9609375 0,0.1054687 0.09375,0.1054687 0.1171875,0.1054687 0.09375,0 0.10546875,-0.011719 0.1640625,-0.234375 0.17578125,-0.703125 0.375,-1.1835937 0.72656249,-1.1835937 0.1992188,0 0.3164063,0.1289062 0.3164063,0.4570312 0,0.2109375 -0.035156,0.3164063 -0.1640625,0.8320313 z m 0,0"
         style="fill:#000000;fill-opacity:1;fill-rule:nonzero;stroke:none" />
      <path
         id="path30"
         d="m 7.8789688,-0.836125 c 0.5507812,0 0.9375,0.375 0.9375,1.125 0,0.8671875 -0.5039063,1.125 -0.9023438,1.125 -0.28125,0 -0.890625,-0.082031 -1.1835937,-0.4921875 C 7.0586563,0.90996875 7.1289688,0.67559375 7.1289688,0.53496875 7.1289688,0.3123125 6.9649063,0.14825 6.74225,0.14825 c -0.1875,0 -0.3867187,0.1171875 -0.3867187,0.41015625 0,0.65625005 0.7265625,1.07812505 1.5703125,1.07812505 0.9726562,0 1.640625,-0.6445313 1.640625,-1.3476563 0,-0.5390625 -0.4453125,-1.08984375 -1.21875,-1.2421875 C 9.086,-1.2228437 9.3438125,-1.7501875 9.3438125,-2.1720625 9.3438125,-2.7228437 8.711,-3.133 7.9375625,-3.133 c -0.7734375,0 -1.359375,0.375 -1.359375,0.9375 0,0.234375 0.1523438,0.3632813 0.3632813,0.3632813 0.2109375,0 0.3515625,-0.1640625 0.3515625,-0.3515625 0,-0.1992188 -0.140625,-0.3515625 -0.3515625,-0.3632813 0.234375,-0.3046875 0.7148437,-0.3867187 0.9726562,-0.3867187 0.3164063,0 0.7617188,0.1523437 0.7617188,0.7617187 0,0.2929688 -0.1054688,0.609375 -0.28125,0.8320313 -0.234375,0.2578125 -0.421875,0.28125 -0.7734375,0.2929687 -0.1757813,0.023437 -0.1875,0.023437 -0.2226563,0.023437 -0.011719,0 -0.070312,0.011719 -0.070312,0.09375 0,0.09375 0.058594,0.09375 0.1757813,0.09375 z m 0,0"
         style="fill:#000000;fill-opacity:1;fill-rule:nonzero;stroke:none" />
    </g>
    <path
       id="path31"
       d="m 286.3025,17.00781 c 0,7.82785 -6.34555,14.1734 -14.1734,14.1734 -7.82785,0 -14.1734,-6.34555 -14.1734,-14.1734 0,-7.82785 6.34555,-14.1734 14.1734,-14.1734 7.82785,0 14.1734,6.34555 14.1734,14.1734 z"
       style="fill:#bfffbf;fill-opacity:1;fill-rule:nonzero;stroke:#66ff66;stroke-width:0.79701;stroke-linecap:butt;stroke-linejoin:miter;stroke-miterlimit:10;stroke-dasharray:none;stroke-opacity:1"
       transform="matrix(1.3333333,0,0,-1.3333333,24.962667,87.46)" />
    <g
       id="g31"
       aria-label="y&#10;1"
       transform="matrix(1.3333333,0,0,1.3333333,381.56,66.352)">
      <path
         id="path32"
         d="m 4.8387891,-3.7972031 c 0.046875,-0.140625 0.046875,-0.1523438 0.046875,-0.2226563 0,-0.1875 -0.140625,-0.2695312 -0.2929688,-0.2695312 -0.1054687,0 -0.2578125,0.058594 -0.3515625,0.1992187 -0.023437,0.058594 -0.09375,0.3632813 -0.140625,0.5390625 -0.070312,0.2578125 -0.140625,0.5273438 -0.1992187,0.796875 l -0.4453125,1.79296877 c -0.035156,0.15234375 -0.46875,0.85546875 -1.125,0.85546875 -0.5039063,0 -0.6210938,-0.4453125 -0.6210938,-0.80859375 0,-0.45703127 0.1757813,-1.07812497 0.515625,-1.95703127 0.1523438,-0.4101562 0.1992188,-0.515625 0.1992188,-0.7148437 0,-0.4453125 -0.328125,-0.8203125 -0.8203125,-0.8203125 -0.94921879,0 -1.31250004,1.453125 -1.31250004,1.5351562 0,0.1054688 0.09375,0.1054688 0.1171875,0.1054688 0.09375,0 0.10546875,-0.023437 0.15234375,-0.1875 0.26953125,-0.9375 0.66796879,-1.2304688 1.00781249,-1.2304688 0.082031,0 0.2578125,0 0.2578125,0.3164063 0,0.2460937 -0.1054687,0.515625 -0.1757812,0.703125 -0.3984375,1.0546875 -0.5742188,1.6171875 -0.5742188,2.0859375 0,0.89062497 0.6210938,1.18359372 1.21875,1.18359372 0.3867188,0 0.7265625,-0.1640625 0.9960938,-0.4453125 -0.1289063,0.515625 -0.2460938,1.0078125 -0.6445313,1.53515628 -0.2578125,0.3398437 -0.6328125,0.6328125 -1.0898437,0.6328125 -0.140625,0 -0.59765629,-0.035156 -0.76171879,-0.421875 0.1640625,0 0.29296879,0 0.43359379,-0.1171875 0.09375,-0.09375 0.1992187,-0.2226563 0.1992187,-0.41015628 0,-0.31640625 -0.2695312,-0.3515625 -0.375,-0.3515625 -0.22265624,0 -0.55078124,0.1640625 -0.55078124,0.64453128 0,0.5039062 0.43359375,0.8671875 1.05468754,0.8671875 1.0195312,0 2.0507812,-0.9023438 2.3320312,-2.02734378 z m 0,0"
         style="fill:#000000;fill-opacity:1;fill-rule:nonzero;stroke:none" />
      <path
         id="path33"
         d="m 7.2176953,-2.935875 c 0,-0.1875 -0.011719,-0.1992188 -0.2109375,-0.1992188 -0.4453125,0.4335938 -1.078125,0.4453125 -1.359375,0.4453125 v 0.2460938 c 0.1640625,0 0.6210938,0 1.0078125,-0.1875 v 3.55078125 c 0,0.23437495 0,0.32812495 -0.6914062,0.32812495 H 5.6942578 v 0.2460938 c 0.1289063,-0.011719 0.984375,-0.023437 1.2421875,-0.023437 0.2109375,0 1.0898438,0.011719 1.2421875,0.023437 V 1.2477187 H 7.9208203 c -0.703125,0 -0.703125,-0.09375 -0.703125,-0.32812495 z m 0,0"
         style="fill:#000000;fill-opacity:1;fill-rule:nonzero;stroke:none" />
    </g>
    <path
       id="path34"
       d="m 286.3025,-17.00781 c 0,7.82785 -6.34555,14.1734 -14.1734,14.1734 -7.82785,0 -14.1734,-6.34555 -14.1734,-14.1734 0,-7.82785 6.34555,-14.1734 14.1734,-14.1734 7.82785,0 14.1734,6.34555 14.1734,14.1734 z"
       style="fill:#bfffbf;fill-opacity:1;fill-rule:nonzero;stroke:#66ff66;stroke-width:0.79701;stroke-linecap:butt;stroke-linejoin:miter;stroke-miterlimit:10;stroke-dasharray:none;stroke-opacity:1"
       transform="matrix(1.3333333,0,0,-1.3333333,24.962667,87.46)" />
    <g
       id="g34"
       aria-label="y&#10;2"
       transform="matrix(1.3333333,0,0,1.3333333,381.56,111.70533)">
      <path
         id="path35"
         d="m 4.8387891,-3.7956016 c 0.046875,-0.140625 0.046875,-0.1523437 0.046875,-0.2226562 0,-0.1875 -0.140625,-0.2695313 -0.2929688,-0.2695313 -0.1054687,0 -0.2578125,0.058594 -0.3515625,0.1992188 -0.023437,0.058594 -0.09375,0.3632812 -0.140625,0.5390625 -0.070312,0.2578125 -0.140625,0.5273437 -0.1992187,0.796875 l -0.4453125,1.79296874 c -0.035156,0.15234375 -0.46875,0.85546875 -1.125,0.85546875 -0.5039063,0 -0.6210938,-0.4453125 -0.6210938,-0.80859375 0,-0.45703124 0.1757813,-1.07812504 0.515625,-1.95703124 0.1523438,-0.4101563 0.1992188,-0.515625 0.1992188,-0.7148438 0,-0.4453125 -0.328125,-0.8203125 -0.8203125,-0.8203125 -0.94921879,0 -1.31250004,1.453125 -1.31250004,1.5351563 0,0.1054687 0.09375,0.1054687 0.1171875,0.1054687 0.09375,0 0.10546875,-0.023437 0.15234375,-0.1875 0.26953125,-0.9375 0.66796879,-1.2304687 1.00781249,-1.2304687 0.082031,0 0.2578125,0 0.2578125,0.3164062 0,0.2460938 -0.1054687,0.515625 -0.1757812,0.703125 -0.3984375,1.0546875 -0.5742188,1.6171875 -0.5742188,2.0859375 0,0.89062504 0.6210938,1.18359379 1.21875,1.18359379 0.3867188,0 0.7265625,-0.1640625 0.9960938,-0.4453125 -0.1289063,0.515625 -0.2460938,1.0078125 -0.6445313,1.53515621 -0.2578125,0.3398438 -0.6328125,0.6328125 -1.0898437,0.6328125 -0.140625,0 -0.59765629,-0.035156 -0.76171879,-0.421875 0.1640625,0 0.29296879,0 0.43359379,-0.1171875 0.09375,-0.09375 0.1992187,-0.2226562 0.1992187,-0.41015621 0,-0.31640625 -0.2695312,-0.3515625 -0.375,-0.3515625 -0.22265624,0 -0.55078124,0.1640625 -0.55078124,0.64453121 0,0.5039063 0.43359375,0.8671875 1.05468754,0.8671875 1.0195312,0 2.0507812,-0.9023437 2.3320312,-2.02734371 z m 0,0"
         style="fill:#000000;fill-opacity:1;fill-rule:nonzero;stroke:none" />
      <path
         id="path36"
         d="m 8.4012891,0.22978906 h -0.234375 c -0.023437,0.15234375 -0.082031,0.5625 -0.1757813,0.6328125 -0.058594,0.0351563 -0.5976562,0.0351563 -0.6914062,0.0351563 H 6.0106641 c 0.7382812,-0.64453125 0.984375,-0.84375 1.3945312,-1.171875 0.515625,-0.41015625 0.9960938,-0.84374996 0.9960938,-1.49999996 0,-0.8437501 -0.7382813,-1.3593751 -1.6289063,-1.3593751 -0.8671875,0 -1.453125,0.609375 -1.453125,1.2421876 0,0.3632813 0.3046875,0.3984375 0.375,0.3984375 0.1640625,0 0.375,-0.1171875 0.375,-0.375 0,-0.1289063 -0.058594,-0.3632812 -0.421875,-0.3632812 0.2226563,-0.5039064 0.6914063,-0.6562501 1.0195313,-0.6562501 0.703125,0 1.0664062,0.5507812 1.0664062,1.1132813 0,0.609375 -0.4335937,1.08984371 -0.65625,1.33593746 l -1.6875,1.66406254 c -0.070312,0.058594 -0.070312,0.070312 -0.070312,0.2695313 h 2.8828125 z m 0,0"
         style="fill:#000000;fill-opacity:1;fill-rule:nonzero;stroke:none" />
    </g>
    <path
       id="path37"
       d="M 14.32152,36.70116 74.42989,47.97168"
       style="fill:none;stroke:#b3b3b3;stroke-width:0.3985;stroke-linecap:butt;stroke-linejoin:miter;stroke-miterlimit:10;stroke-dasharray:none;stroke-opacity:1"
       transform="matrix(1.3333333,0,0,-1.3333333,24.962667,87.46)" />
    <path
       id="path38"
       d="M 1.99252,0 -1.19551,1.59401 0,0 -1.19551,-1.59401"
       style="fill:#b3b3b3;fill-opacity:1;fill-rule:nonzero;stroke:none"
       transform="matrix(1.3104267,-0.24569333,-0.24569333,-1.3104267,124.20252,23.497787)" />
    <path
       id="path39"
       d="M 14.32152,31.331 74.42989,20.06007"
       style="fill:none;stroke:#b3b3b3;stroke-width:0.3985;stroke-linecap:butt;stroke-linejoin:miter;stroke-miterlimit:10;stroke-dasharray:none;stroke-opacity:1"
       transform="matrix(1.3333333,0,0,-1.3333333,24.962667,87.46)" />
    <path
       id="path40"
       d="M 1.99252,0 -1.19551,1.59401 0,0 -1.19551,-1.59401"
       style="fill:#b3b3b3;fill-opacity:1;fill-rule:nonzero;stroke:none"
       transform="matrix(1.3104267,0.24570667,0.24570667,-1.3104267,124.20252,60.71324)" />
    <path
       id="path41"
       d="M 12.69992,26.87244 76.27321,-8.88737"
       style="fill:none;stroke:#b3b3b3;stroke-width:0.3985;stroke-linecap:butt;stroke-linejoin:miter;stroke-miterlimit:10;stroke-dasharray:none;stroke-opacity:1"
       transform="matrix(1.3333333,0,0,-1.3333333,24.962667,87.46)" />
    <path
       id="path42"
       d="M 1.99252,0 -1.19551,1.59401 0,0 -1.19551,-1.59401"
       style="fill:#b3b3b3;fill-opacity:1;fill-rule:nonzero;stroke:none"
       transform="matrix(1.1620533,0.65364,0.65364,-1.1620533,126.66028,99.309827)" />
    <path
       id="path43"
       d="M 10.6303,24.05016 78.62584,-39.69528"
       style="fill:none;stroke:#b3b3b3;stroke-width:0.3985;stroke-linecap:butt;stroke-linejoin:miter;stroke-miterlimit:10;stroke-dasharray:none;stroke-opacity:1"
       transform="matrix(1.3333333,0,0,-1.3333333,24.962667,87.46)" />
    <path
       id="path44"
       d="M 1.99252,0 -1.19551,1.59401 0,0 -1.19551,-1.59401"
       style="fill:#b3b3b3;fill-opacity:1;fill-rule:nonzero;stroke:none"
       transform="matrix(0.97266667,0.91188,0.91188,-0.97266667,129.79709,140.38703)" />
    <path
       id="path45"
       d="M 12.69992,7.14363 76.27321,42.90346"
       style="fill:none;stroke:#b3b3b3;stroke-width:0.3985;stroke-linecap:butt;stroke-linejoin:miter;stroke-miterlimit:10;stroke-dasharray:none;stroke-opacity:1"
       transform="matrix(1.3333333,0,0,-1.3333333,24.962667,87.46)" />
    <path
       id="path46"
       d="M 1.99252,0 -1.19551,1.59401 0,0 -1.19551,-1.59401"
       style="fill:#b3b3b3;fill-opacity:1;fill-rule:nonzero;stroke:none"
       transform="matrix(1.1620533,-0.65364,-0.65364,-1.1620533,126.66028,30.255387)" />
    <path
       id="path47"
       d="M 14.32152,2.68507 74.42989,13.9556"
       style="fill:none;stroke:#b3b3b3;stroke-width:0.3985;stroke-linecap:butt;stroke-linejoin:miter;stroke-miterlimit:10;stroke-dasharray:none;stroke-opacity:1"
       transform="matrix(1.3333333,0,0,-1.3333333,24.962667,87.46)" />
    <path
       id="path48"
       d="M 1.99252,0 -1.19551,1.59401 0,0 -1.19551,-1.59401"
       style="fill:#b3b3b3;fill-opacity:1;fill-rule:nonzero;stroke:none"
       transform="matrix(1.3104267,-0.24569333,-0.24569333,-1.3104267,124.20252,68.85256)" />
    <path
       id="path49"
       d="M 14.32152,-2.68507 74.42989,-13.9556"
       style="fill:none;stroke:#b3b3b3;stroke-width:0.3985;stroke-linecap:butt;stroke-linejoin:miter;stroke-miterlimit:10;stroke-dasharray:none;stroke-opacity:1"
       transform="matrix(1.3333333,0,0,-1.3333333,24.962667,87.46)" />
    <path
       id="path50"
       d="M 1.99252,0 -1.19551,1.59401 0,0 -1.19551,-1.59401"
       style="fill:#b3b3b3;fill-opacity:1;fill-rule:nonzero;stroke:none"
       transform="matrix(1.3104267,0.24569333,0.24569333,-1.3104267,124.20252,106.06744)" />
    <path
       id="path51"
       d="M 12.69992,-7.14363 76.27321,-42.90346"
       style="fill:none;stroke:#b3b3b3;stroke-width:0.3985;stroke-linecap:butt;stroke-linejoin:miter;stroke-miterlimit:10;stroke-dasharray:none;stroke-opacity:1"
       transform="matrix(1.3333333,0,0,-1.3333333,24.962667,87.46)" />
    <path
       id="path52"
       d="M 1.99252,0 -1.19551,1.59401 0,0 -1.19551,-1.59401"
       style="fill:#b3b3b3;fill-opacity:1;fill-rule:nonzero;stroke:none"
       transform="matrix(1.1620533,0.65364,0.65364,-1.1620533,126.66028,144.66461)" />
    <path
       id="path53"
       d="M 10.6303,-24.05016 78.62584,39.69528"
       style="fill:none;stroke:#b3b3b3;stroke-width:0.3985;stroke-linecap:butt;stroke-linejoin:miter;stroke-miterlimit:10;stroke-dasharray:none;stroke-opacity:1"
       transform="matrix(1.3333333,0,0,-1.3333333,24.962667,87.46)" />
    <path
       id="path54"
       d="M 1.99252,0 -1.19551,1.59401 0,0 -1.19551,-1.59401"
       style="fill:#b3b3b3;fill-opacity:1;fill-rule:nonzero;stroke:none"
       transform="matrix(0.97266667,-0.91188,-0.91188,-0.97266667,129.79709,34.532973)" />
    <path
       id="path55"
       d="M 12.69992,-26.87244 76.27321,8.88737"
       style="fill:none;stroke:#b3b3b3;stroke-width:0.3985;stroke-linecap:butt;stroke-linejoin:miter;stroke-miterlimit:10;stroke-dasharray:none;stroke-opacity:1"
       transform="matrix(1.3333333,0,0,-1.3333333,24.962667,87.46)" />
    <path
       id="path56"
       d="M 1.99252,0 -1.19551,1.59401 0,0 -1.19551,-1.59401"
       style="fill:#b3b3b3;fill-opacity:1;fill-rule:nonzero;stroke:none"
       transform="matrix(1.1620533,-0.65364,-0.65364,-1.1620533,126.66028,75.610173)" />
    <path
       id="path57"
       d="m 14.32152,-31.331 60.10837,11.27093"
       style="fill:none;stroke:#b3b3b3;stroke-width:0.3985;stroke-linecap:butt;stroke-linejoin:miter;stroke-miterlimit:10;stroke-dasharray:none;stroke-opacity:1"
       transform="matrix(1.3333333,0,0,-1.3333333,24.962667,87.46)" />
    <path
       id="path58"
       d="M 1.99252,0 -1.19551,1.59401 0,0 -1.19551,-1.59401"
       style="fill:#b3b3b3;fill-opacity:1;fill-rule:nonzero;stroke:none"
       transform="matrix(1.3104267,-0.24570667,-0.24570667,-1.3104267,124.20252,114.20676)" />
    <path
       id="path59"
       d="M 14.32152,-36.70116 74.42989,-47.97168"
       style="fill:none;stroke:#b3b3b3;stroke-width:0.3985;stroke-linecap:butt;stroke-linejoin:miter;stroke-miterlimit:10;stroke-dasharray:none;stroke-opacity:1"
       transform="matrix(1.3333333,0,0,-1.3333333,24.962667,87.46)" />
    <path
       id="path60"
       d="M 1.99252,0 -1.19551,1.59401 0,0 -1.19551,-1.59401"
       style="fill:#b3b3b3;fill-opacity:1;fill-rule:nonzero;stroke:none"
       transform="matrix(1.3104267,0.24569333,0.24569333,-1.3104267,124.20252,151.42221)" />
    <path
       id="path61"
       d="M 105.03122,48.33882 165.13959,37.0683"
       style="fill:none;stroke:#b3b3b3;stroke-width:0.3985;stroke-linecap:butt;stroke-linejoin:miter;stroke-miterlimit:10;stroke-dasharray:none;stroke-opacity:1"
       transform="matrix(1.3333333,0,0,-1.3333333,24.962667,87.46)" />
    <path
       id="path62"
       d="M 1.99252,0 -1.19551,1.59401 0,0 -1.19551,-1.59401"
       style="fill:#b3b3b3;fill-opacity:1;fill-rule:nonzero;stroke:none"
       transform="matrix(1.3104267,0.24569333,0.24569333,-1.3104267,245.14879,38.035587)" />
    <path
       id="path63"
       d="M 103.40962,43.88026 166.98291,8.12044"
       style="fill:none;stroke:#b3b3b3;stroke-width:0.3985;stroke-linecap:butt;stroke-linejoin:miter;stroke-miterlimit:10;stroke-dasharray:none;stroke-opacity:1"
       transform="matrix(1.3333333,0,0,-1.3333333,24.962667,87.46)" />
    <path
       id="path64"
       d="M 1.99252,0 -1.19551,1.59401 0,0 -1.19551,-1.59401"
       style="fill:#b3b3b3;fill-opacity:1;fill-rule:nonzero;stroke:none"
       transform="matrix(1.1620533,0.65364,0.65364,-1.1620533,247.60655,76.632747)" />
    <path
       id="path65"
       d="m 101.34,41.05798 67.99554,-63.74543"
       style="fill:none;stroke:#b3b3b3;stroke-width:0.3985;stroke-linecap:butt;stroke-linejoin:miter;stroke-miterlimit:10;stroke-dasharray:none;stroke-opacity:1"
       transform="matrix(1.3333333,0,0,-1.3333333,24.962667,87.46)" />
    <path
       id="path66"
       d="M 1.99252,0 -1.19551,1.59401 0,0 -1.19551,-1.59401"
       style="fill:#b3b3b3;fill-opacity:1;fill-rule:nonzero;stroke:none"
       transform="matrix(0.97266667,0.91188,0.91188,-0.97266667,250.74337,117.70992)" />
    <path
       id="path67"
       d="m 105.03122,19.69289 60.10837,11.27093"
       style="fill:none;stroke:#b3b3b3;stroke-width:0.3985;stroke-linecap:butt;stroke-linejoin:miter;stroke-miterlimit:10;stroke-dasharray:none;stroke-opacity:1"
       transform="matrix(1.3333333,0,0,-1.3333333,24.962667,87.46)" />
    <path
       id="path68"
       d="M 1.99252,0 -1.19551,1.59401 0,0 -1.19551,-1.59401"
       style="fill:#b3b3b3;fill-opacity:1;fill-rule:nonzero;stroke:none"
       transform="matrix(1.3104267,-0.24570667,-0.24570667,-1.3104267,245.14879,46.174907)" />
    <path
       id="path69"
       d="M 105.03122,14.32274 165.13959,3.05222"
       style="fill:none;stroke:#b3b3b3;stroke-width:0.3985;stroke-linecap:butt;stroke-linejoin:miter;stroke-miterlimit:10;stroke-dasharray:none;stroke-opacity:1"
       transform="matrix(1.3333333,0,0,-1.3333333,24.962667,87.46)" />
    <path
       id="path70"
       d="M 1.99252,0 -1.19551,1.59401 0,0 -1.19551,-1.59401"
       style="fill:#b3b3b3;fill-opacity:1;fill-rule:nonzero;stroke:none"
       transform="matrix(1.3104267,0.24569333,0.24569333,-1.3104267,245.14879,83.39036)" />
    <path
       id="path71"
       d="m 103.40962,9.86418 63.57329,-35.75981"
       style="fill:none;stroke:#b3b3b3;stroke-width:0.3985;stroke-linecap:butt;stroke-linejoin:miter;stroke-miterlimit:10;stroke-dasharray:none;stroke-opacity:1"
       transform="matrix(1.3333333,0,0,-1.3333333,24.962667,87.46)" />
    <path
       id="path72"
       d="M 1.99252,0 -1.19551,1.59401 0,0 -1.19551,-1.59401"
       style="fill:#b3b3b3;fill-opacity:1;fill-rule:nonzero;stroke:none"
       transform="matrix(1.1620533,0.65364,0.65364,-1.1620533,247.60655,121.98751)" />
    <path
       id="path73"
       d="m 103.40962,-9.86418 63.57329,35.75981"
       style="fill:none;stroke:#b3b3b3;stroke-width:0.3985;stroke-linecap:butt;stroke-linejoin:miter;stroke-miterlimit:10;stroke-dasharray:none;stroke-opacity:1"
       transform="matrix(1.3333333,0,0,-1.3333333,24.962667,87.46)" />
    <path
       id="path74"
       d="M 1.99252,0 -1.19551,1.59401 0,0 -1.19551,-1.59401"
       style="fill:#b3b3b3;fill-opacity:1;fill-rule:nonzero;stroke:none"
       transform="matrix(1.1620533,-0.65364,-0.65364,-1.1620533,247.60655,52.932493)" />
    <path
       id="path75"
       d="m 105.03122,-14.32274 60.10837,11.27052"
       style="fill:none;stroke:#b3b3b3;stroke-width:0.3985;stroke-linecap:butt;stroke-linejoin:miter;stroke-miterlimit:10;stroke-dasharray:none;stroke-opacity:1"
       transform="matrix(1.3333333,0,0,-1.3333333,24.962667,87.46)" />
    <path
       id="path76"
       d="M 1.99252,0 -1.19551,1.59401 0,0 -1.19551,-1.59401"
       style="fill:#b3b3b3;fill-opacity:1;fill-rule:nonzero;stroke:none"
       transform="matrix(1.3104267,-0.24569333,-0.24569333,-1.3104267,245.14879,91.52964)" />
    <path
       id="path77"
       d="m 105.03122,-19.69289 60.10837,-11.27093"
       style="fill:none;stroke:#b3b3b3;stroke-width:0.3985;stroke-linecap:butt;stroke-linejoin:miter;stroke-miterlimit:10;stroke-dasharray:none;stroke-opacity:1"
       transform="matrix(1.3333333,0,0,-1.3333333,24.962667,87.46)" />
    <path
       id="path78"
       d="M 1.99252,0 -1.19551,1.59401 0,0 -1.19551,-1.59401"
       style="fill:#b3b3b3;fill-opacity:1;fill-rule:nonzero;stroke:none"
       transform="matrix(1.3104267,0.24570667,0.24570667,-1.3104267,245.14879,128.74509)" />
    <path
       id="path79"
       d="m 101.34,-41.05798 67.99554,63.74543"
       style="fill:none;stroke:#b3b3b3;stroke-width:0.3985;stroke-linecap:butt;stroke-linejoin:miter;stroke-miterlimit:10;stroke-dasharray:none;stroke-opacity:1"
       transform="matrix(1.3333333,0,0,-1.3333333,24.962667,87.46)" />
    <path
       id="path80"
       d="M 1.99252,0 -1.19551,1.59401 0,0 -1.19551,-1.59401"
       style="fill:#b3b3b3;fill-opacity:1;fill-rule:nonzero;stroke:none"
       transform="matrix(0.97266667,-0.91188,-0.91188,-0.97266667,250.74337,57.21008)" />
    <path
       id="path81"
       d="m 103.40962,-43.88026 63.57329,35.75982"
       style="fill:none;stroke:#b3b3b3;stroke-width:0.3985;stroke-linecap:butt;stroke-linejoin:miter;stroke-miterlimit:10;stroke-dasharray:none;stroke-opacity:1"
       transform="matrix(1.3333333,0,0,-1.3333333,24.962667,87.46)" />
    <path
       id="path82"
       d="M 1.99252,0 -1.19551,1.59401 0,0 -1.19551,-1.59401"
       style="fill:#b3b3b3;fill-opacity:1;fill-rule:nonzero;stroke:none"
       transform="matrix(1.1620533,-0.65364,-0.65364,-1.1620533,247.60655,98.287253)" />
    <path
       id="path83"
       d="m 105.03122,-48.33882 60.10837,11.27052"
       style="fill:none;stroke:#b3b3b3;stroke-width:0.3985;stroke-linecap:butt;stroke-linejoin:miter;stroke-miterlimit:10;stroke-dasharray:none;stroke-opacity:1"
       transform="matrix(1.3333333,0,0,-1.3333333,24.962667,87.46)" />
    <path
       id="path84"
       d="M 1.99252,0 -1.19551,1.59401 0,0 -1.19551,-1.59401"
       style="fill:#b3b3b3;fill-opacity:1;fill-rule:nonzero;stroke:none"
       transform="matrix(1.3104267,-0.24569333,-0.24569333,-1.3104267,245.14879,136.88441)" />
    <path
       id="path85"
       d="M 195.74092,31.331 255.84929,20.06007"
       style="fill:none;stroke:#b3b3b3;stroke-width:0.3985;stroke-linecap:butt;stroke-linejoin:miter;stroke-miterlimit:10;stroke-dasharray:none;stroke-opacity:1"
       transform="matrix(1.3333333,0,0,-1.3333333,24.962667,87.46)" />
    <path
       id="path86"
       d="M 1.99252,0 -1.19551,1.59401 0,0 -1.19551,-1.59401"
       style="fill:#b3b3b3;fill-opacity:1;fill-rule:nonzero;stroke:none"
       transform="matrix(1.3104267,0.24570667,0.24570667,-1.3104267,366.09505,60.71324)" />
    <path
       id="path87"
       d="M 194.11932,26.87244 257.69263,-8.88737"
       style="fill:none;stroke:#b3b3b3;stroke-width:0.3985;stroke-linecap:butt;stroke-linejoin:miter;stroke-miterlimit:10;stroke-dasharray:none;stroke-opacity:1"
       transform="matrix(1.3333333,0,0,-1.3333333,24.962667,87.46)" />
    <path
       id="path88"
       d="M 1.99252,0 -1.19551,1.59401 0,0 -1.19551,-1.59401"
       style="fill:#b3b3b3;fill-opacity:1;fill-rule:nonzero;stroke:none"
       transform="matrix(1.1620533,0.65364,0.65364,-1.1620533,368.55284,99.309827)" />
    <path
       id="path89"
       d="M 195.74092,2.68507 255.84929,13.9556"
       style="fill:none;stroke:#b3b3b3;stroke-width:0.3985;stroke-linecap:butt;stroke-linejoin:miter;stroke-miterlimit:10;stroke-dasharray:none;stroke-opacity:1"
       transform="matrix(1.3333333,0,0,-1.3333333,24.962667,87.46)" />
    <path
       id="path90"
       d="M 1.99252,0 -1.19551,1.59401 0,0 -1.19551,-1.59401"
       style="fill:#b3b3b3;fill-opacity:1;fill-rule:nonzero;stroke:none"
       transform="matrix(1.3104267,-0.24569333,-0.24569333,-1.3104267,366.09505,68.85256)" />
    <path
       id="path91"
       d="M 195.74092,-2.68507 255.84929,-13.9556"
       style="fill:none;stroke:#b3b3b3;stroke-width:0.3985;stroke-linecap:butt;stroke-linejoin:miter;stroke-miterlimit:10;stroke-dasharray:none;stroke-opacity:1"
       transform="matrix(1.3333333,0,0,-1.3333333,24.962667,87.46)" />
    <path
       id="path92"
       d="M 1.99252,0 -1.19551,1.59401 0,0 -1.19551,-1.59401"
       style="fill:#b3b3b3;fill-opacity:1;fill-rule:nonzero;stroke:none"
       transform="matrix(1.3104267,0.24569333,0.24569333,-1.3104267,366.09505,106.06744)" />
    <path
       id="path93"
       d="M 194.11932,-26.87244 257.69263,8.88737"
       style="fill:none;stroke:#b3b3b3;stroke-width:0.3985;stroke-linecap:butt;stroke-linejoin:miter;stroke-miterlimit:10;stroke-dasharray:none;stroke-opacity:1"
       transform="matrix(1.3333333,0,0,-1.3333333,24.962667,87.46)" />
    <path
       id="path94"
       d="M 1.99252,0 -1.19551,1.59401 0,0 -1.19551,-1.59401"
       style="fill:#b3b3b3;fill-opacity:1;fill-rule:nonzero;stroke:none"
       transform="matrix(1.1620533,-0.65364,-0.65364,-1.1620533,368.55284,75.610173)" />
    <path
       id="path95"
       d="m 195.74092,-31.331 60.10837,11.27093"
       style="fill:none;stroke:#b3b3b3;stroke-width:0.3985;stroke-linecap:butt;stroke-linejoin:miter;stroke-miterlimit:10;stroke-dasharray:none;stroke-opacity:1"
       transform="matrix(1.3333333,0,0,-1.3333333,24.962667,87.46)" />
    <path
       id="path96"
       d="M 1.99252,0 -1.19551,1.59401 0,0 -1.19551,-1.59401"
       style="fill:#b3b3b3;fill-opacity:1;fill-rule:nonzero;stroke:none"
       transform="matrix(1.3104267,-0.24570667,-0.24570667,-1.3104267,366.09505,114.20676)" />
    <path
       id="path97"
       d="M 6.6575156,-2.4734141 H 6.2004844 c -0.1875,1.1484375 -0.3867188,2.03906254 -2.1328125,2.03906254 H 2.6497031 V -2.9421641 h 0.515625 c 0.8789063,0 0.9726563,0.3984375 0.9726563,1.0546875 H 4.5950156 V -4.4304453 H 4.1379844 c 0,0.65625 -0.082031,1.0546875 -0.9726563,1.0546875 h -0.515625 v -2.2851563 h 1.4179688 c 1.4179687,0 1.6992187,0.6210938 1.8398437,1.7460938 h 0.4570313 l -0.28125,-2.1796875 H 0.37626563 v 0.4335937 H 1.3489219 v 5.22656254 H 0.37626563 V -7.578125e-4 H 6.2356406 Z m 5.3437504,-0.2578125 c 0,-1.0664062 -0.644532,-1.3007812 -1.429688,-1.3007812 -1.1015624,0 -1.5351561,0.8085937 -1.6054686,0.9375 v -0.9375 l -1.5585938,0.070312 v 0.4335937 c 0.5390625,0 0.609375,0 0.609375,0.3515625 v 2.74218754 H 7.4075156 V -7.578125e-4 C 8.0754844,-0.02419531 8.1809531,-0.02419531 8.5442344,-0.02419531 c 0.3632812,0 0.4570312,0 1.1367187,0.0234374975 V -0.43435156 H 9.0715781 V -2.2741953 c 0,-1.0078125 0.8203125,-1.40625 1.3593749,-1.40625 0.339844,0 0.515625,0.1875 0.515625,0.8671875 v 2.37890624 H 10.337203 V -7.578125e-4 C 11.005172,-0.02419531 11.110641,-0.02419531 11.473922,-0.02419531 c 0.363281,0 0.457031,0 1.136719,0.0234374975 V -0.43435156 h -0.609375 z m 2.563476,-0.8085937 h 1.347656 v -0.4453125 h -1.347656 v -1.7109375 h -0.457031 c -0.01172,0.84375 -0.433594,1.7695312 -1.347656,1.7929687 v 0.3632813 h 0.75 v 2.4375 c 0,1.01953124 0.890625,1.16015624 1.441406,1.16015624 0.703125,0 1.136719,-0.50390625 1.136719,-1.16015624 v -0.4804688 h -0.457032 v 0.4570313 c 0,0.63281249 -0.328125,0.79687499 -0.550781,0.79687499 -0.515625,0 -0.515625,-0.5390625 -0.515625,-0.76171879 z m 4.092774,1.5820312 c 0,-0.65625 0.246093,-1.6875 1.113281,-1.7226562 -0.09375,0.1054687 -0.140625,0.2578125 -0.140625,0.3984375 0,0.3984375 0.316406,0.5742187 0.5625,0.5742187 0.292969,0 0.574219,-0.1992187 0.574219,-0.5742187 0,-0.4570313 -0.46875,-0.75 -0.996094,-0.75 -0.621094,0 -1.007813,0.4570312 -1.207031,0.9726562 h -0.01172 v -0.9726562 l -1.5,0.070312 v 0.4335937 c 0.539062,0 0.609375,0 0.609375,0.3515625 v 2.74218754 H 17.052047 V -7.578125e-4 C 17.720016,-0.02419531 17.778609,-0.02419531 18.200484,-0.02419531 c 0.222657,0 0.75,0 1.21875,0.0234374975 V -0.43435156 h -0.761718 z m 6.070312,-3.3046875 c 0.128906,-0.058594 0.339844,-0.1757812 0.339844,-0.4804687 0,-0.3046875 -0.269531,-0.5742188 -0.539063,-0.5742188 -0.222656,0 -0.304687,0.1054688 -0.5625,0.3867188 -0.199218,0.2226562 -0.703125,0.796875 -0.925781,1.0195312 l 0.28125,0.3632813 z m 0.597656,3.3398438 c 0.1875,0 0.292969,0 0.292969,-0.2578125 0,-0.1992188 -0.01172,-0.984375 -0.597656,-1.4648438 -0.398438,-0.3398437 -0.9375,-0.421875 -1.382813,-0.421875 -1.523437,0 -2.285156,0.9726563 -2.285156,2.0507813 0,1.17187499 0.890625,2.07421874 2.414063,2.07421874 1.476562,0 1.851562,-0.94921875 1.851562,-1.10156254 0,-0.1757812 -0.175781,-0.1757812 -0.234375,-0.1757812 -0.152344,0 -0.175781,0.058594 -0.222656,0.1757812 -0.210938,0.46875004 -0.761719,0.71484379 -1.324219,0.71484379 -1.265625,0 -1.289062,-1.16015629 -1.289062,-1.59374999 z m -2.777343,-0.328125 c 0.02344,-0.4101563 0.05859,-1.453125 1.089843,-1.453125 1.054688,0 1.089844,1.0898437 1.101563,1.453125 z m 7.646484,0.328125 c 0.1875,0 0.292969,0 0.292969,-0.2578125 0,-0.1992188 -0.01172,-0.984375 -0.597656,-1.4648438 -0.398438,-0.3398437 -0.9375,-0.421875 -1.382813,-0.421875 -1.523437,0 -2.285156,0.9726563 -2.285156,2.0507813 0,1.17187499 0.890625,2.07421874 2.414062,2.07421874 1.476563,0 1.851563,-0.94921875 1.851563,-1.10156254 0,-0.1757812 -0.175781,-0.1757812 -0.234375,-0.1757812 -0.152344,0 -0.175781,0.058594 -0.222656,0.1757812 -0.210938,0.46875004 -0.761719,0.71484379 -1.324219,0.71484379 -1.265625,0 -1.289063,-1.16015629 -1.289063,-1.59374999 z m -2.777344,-0.328125 c 0.02344,-0.4101563 0.05859,-1.453125 1.089844,-1.453125 1.054688,0 1.089844,1.0898437 1.101563,1.453125 z m 0,0"
       style="fill:#4c4cff;fill-opacity:1;fill-rule:nonzero;stroke:none"
       aria-label="Entr´ee"
       transform="matrix(1.3333333,0,0,1.3333333,4.428,186.09867)" />
    <path
       id="path98"
       d="m 7.0666484,-6.0007578 c 0,-0.1640625 0,-0.2578125 -0.1757812,-0.2578125 -0.09375,0 -0.1171875,0.023437 -0.1992188,0.09375 l -0.5859375,0.515625 c -0.515625,-0.4101563 -1.1601562,-0.609375 -1.8164062,-0.609375 -2.3203125,0 -3.70312501,1.359375 -3.70312501,3.1875 0,1.7695312 1.33593751,3.17578124 3.70312501,3.17578124 1.6875,0 2.7773437,-1.078125 2.7773437,-2.14453124 0,-0.1992188 -0.09375,-0.1992188 -0.234375,-0.1992188 -0.09375,0 -0.2109375,0 -0.2226562,0.140625 -0.070312,1.30078129 -1.265625,1.76953129 -2.1210938,1.76953129 -0.4804687,0 -1.3476562,-0.10546875 -1.9570312,-0.76171879 -0.46875,-0.5390625 -0.5273438,-1.3710937 -0.5273438,-1.9804687 0,-1.078125 0.2109375,-1.6171875 0.5742188,-2.0273438 0.421875,-0.4804687 1.1484375,-0.7148437 1.8984375,-0.7148437 0.7851562,0 1.828125,0.46875 2.0625,1.8984375 0.011719,0.1171875 0.1171875,0.1171875 0.2578125,0.1171875 0.2460937,0 0.2695312,-0.023437 0.2695312,-0.2695313 z m 4.9306646,3.328125 c 0,-0.7851563 -0.644532,-1.3945313 -2.0273442,-1.3945313 -0.5039063,0 -1.6523438,0.023437 -1.6523438,0.84375 0,0.4101563 0.3046875,0.5976563 0.5859375,0.5976563 0.3046875,0 0.5742188,-0.2226563 0.5742188,-0.5859375 0,-0.2578125 -0.1523438,-0.4101563 -0.1757813,-0.4335938 0.09375,-0.023437 0.3046875,-0.058594 0.6328125,-0.058594 0.6445315,0 1.0195315,0.328125 1.0195315,1.03125 v 0.2929687 c -1.4882815,0 -3.0000002,0.375 -3.0000002,1.3710938 0,0.89062499 1.125,1.06640624 1.7695312,1.06640624 0.679688,0 1.148438,-0.3046875 1.394531,-0.7265625 0,0.234375 0,0.6679687475 0.949219,0.6679687475 h 0.445313 c 0.164062,0 0.292968,0 0.292968,-0.2226562475 0,-0.2109375 -0.140625,-0.2109375 -0.234375,-0.2109375 -0.574218,-0.0117188 -0.574218,-0.10546875 -0.574218,-0.31640625 z m -1.042969,1.4296875 c 0,0.93749999 -1.042969,0.93749999 -1.0781252,0.93749999 -0.4570313,0 -0.8320313,-0.29296875 -0.8320313,-0.70312499 0,-0.2929688 0.1640625,-0.9960938 1.9101565,-1.0664063 z m 6.272461,0.1992187 c 0,-0.140625 -0.128907,-0.140625 -0.234375,-0.140625 -0.175782,0 -0.175782,0.011719 -0.246094,0.1757813 -0.175781,0.42187499 -0.585938,0.67968749 -1.113281,0.67968749 -1.265625,0 -1.265625,-1.28906249 -1.265625,-1.69921879 0,-0.5390625 0,-1.6523437 1.183593,-1.6523437 0.05859,0 0.539063,0.011719 0.539063,0.058594 0,0.011719 -0.01172,0.035156 -0.02344,0.046875 -0.08203,0.09375 -0.117187,0.234375 -0.117187,0.3632813 0,0.3632812 0.28125,0.5859375 0.585937,0.5859375 0.269532,0 0.574219,-0.1875 0.574219,-0.5976563 0,-0.84375 -1.253906,-0.84375 -1.605469,-0.84375 -1.710937,0 -2.332031,1.1015625 -2.332031,2.0742188 0,1.13671874 0.808594,2.05078124 2.296875,2.05078124 0.328125,0 0.761719,-0.0585937525 1.148438,-0.29296875 0.503906,-0.31640625 0.609375,-0.77343749 0.609375,-0.80859379 z m 5.050781,-1.6875 c 0,-1.0664062 -0.644531,-1.3007812 -1.429688,-1.3007812 -0.84375,0 -1.324218,0.4804687 -1.558593,0.84375 v -3.0351563 l -1.605469,0.070312 v 0.4453125 c 0.539062,0 0.609375,0 0.609375,0.3515625 v 4.92187504 H 17.683836 V -7.578125e-4 C 18.351805,-0.02419531 18.457273,-0.02419531 18.820555,-0.02419531 c 0.363281,0 0.457031,0 1.136718,0.0234374975 V -0.43435156 H 19.347898 V -2.2741953 c 0,-1.0078125 0.820313,-1.40625 1.359375,-1.40625 0.339844,0 0.515625,0.1875 0.515625,0.8671875 v 2.37890624 H 20.613523 V -7.578125e-4 C 21.281492,-0.02419531 21.386961,-0.02419531 21.750242,-0.02419531 c 0.363281,0 0.457031,0 1.136719,0.0234374975 V -0.43435156 h -0.609375 z m 4.520508,-2.53125 c 0.128906,-0.058594 0.339844,-0.1757812 0.339844,-0.4804687 0,-0.3046875 -0.269532,-0.5742188 -0.539063,-0.5742188 -0.222656,0 -0.304687,0.1054688 -0.5625,0.3867188 -0.199219,0.2226562 -0.703125,0.796875 -0.925781,1.0195312 l 0.28125,0.3632813 z m 0.597656,3.3398438 c 0.1875,0 0.292969,0 0.292969,-0.2578125 0,-0.1992188 -0.01172,-0.984375 -0.597656,-1.4648438 -0.398438,-0.3398437 -0.9375,-0.421875 -1.382813,-0.421875 -1.523437,0 -2.285156,0.9726563 -2.285156,2.0507813 0,1.17187499 0.890625,2.07421874 2.414062,2.07421874 1.476563,0 1.851563,-0.94921875 1.851563,-1.10156254 0,-0.1757812 -0.175781,-0.1757812 -0.234375,-0.1757812 -0.152344,0 -0.175781,0.058594 -0.222656,0.1757812 -0.210938,0.46875004 -0.761719,0.71484379 -1.324219,0.71484379 -1.265625,0 -1.289063,-1.16015629 -1.289063,-1.59374999 z m -2.777344,-0.328125 c 0.02344,-0.4101563 0.05859,-1.453125 1.089844,-1.453125 1.054688,0 1.089844,1.0898437 1.101563,1.453125 z m 7.646485,0.328125 c 0.1875,0 0.292968,0 0.292968,-0.2578125 0,-0.1992188 -0.01172,-0.984375 -0.597656,-1.4648438 -0.398437,-0.3398437 -0.9375,-0.421875 -1.382812,-0.421875 -1.523438,0 -2.285157,0.9726563 -2.285157,2.0507813 0,1.17187499 0.890625,2.07421874 2.414063,2.07421874 1.476562,0 1.851562,-0.94921875 1.851562,-1.10156254 0,-0.1757812 -0.175781,-0.1757812 -0.234375,-0.1757812 -0.152343,0 -0.175781,0.058594 -0.222656,0.1757812 -0.210937,0.46875004 -0.761719,0.71484379 -1.324219,0.71484379 -1.265625,0 -1.289062,-1.16015629 -1.289062,-1.59374999 z m -2.777344,-0.328125 c 0.02344,-0.4101563 0.05859,-1.453125 1.089844,-1.453125 1.054687,0 1.089843,1.0898437 1.101562,1.453125 z m 10.180664,-3.3398438 c 0,-0.1875 0,-0.2929687 -0.257813,-0.2929687 -0.105468,0 -0.117187,0 -0.199218,0.070312 -0.691407,0.5039062 -1.652344,0.5039062 -1.828125,0.5039062 h -0.1875 v 0.4453125 h 0.1875 c 0.210937,0 0.691406,-0.035156 1.195312,-0.1875 v 4.61718754 H 37.301023 V -7.578125e-4 C 37.640867,-0.02419531 38.718992,-0.02419531 39.129148,-0.02419531 c 0.421875,0 1.476563,0 1.839844,0.0234374975 V -0.43435156 h -1.300781 z m 0,0"
       style="fill:#cc6600;fill-opacity:1;fill-rule:nonzero;stroke:none"
       aria-label="Cach´ee1"
       transform="matrix(1.3333333,0,0,1.3333333,118.09733,186.09867)" />
    <path
       id="path99"
       d="m 7.0676328,-6.0007578 c 0,-0.1640625 0,-0.2578125 -0.1757812,-0.2578125 -0.09375,0 -0.1171875,0.023437 -0.1992188,0.09375 l -0.5859375,0.515625 c -0.515625,-0.4101563 -1.1601562,-0.609375 -1.8164062,-0.609375 -2.3203125,0 -3.70312504,1.359375 -3.70312504,3.1875 0,1.7695312 1.33593754,3.17578124 3.70312504,3.17578124 1.6875,0 2.7773437,-1.078125 2.7773437,-2.14453124 0,-0.1992188 -0.09375,-0.1992188 -0.234375,-0.1992188 -0.09375,0 -0.2109375,0 -0.2226562,0.140625 -0.070312,1.30078129 -1.265625,1.76953129 -2.1210938,1.76953129 -0.4804687,0 -1.3476562,-0.10546875 -1.9570312,-0.76171879 -0.46875,-0.5390625 -0.5273438,-1.3710937 -0.5273438,-1.9804687 0,-1.078125 0.2109375,-1.6171875 0.5742188,-2.0273438 0.421875,-0.4804687 1.1484375,-0.7148437 1.8984375,-0.7148437 0.7851562,0 1.828125,0.46875 2.0625,1.8984375 0.011719,0.1171875 0.1171875,0.1171875 0.2578125,0.1171875 0.2460937,0 0.2695312,-0.023437 0.2695312,-0.2695313 z m 4.9306642,3.328125 c 0,-0.7851563 -0.644531,-1.3945313 -2.0273439,-1.3945313 -0.5039062,0 -1.6523437,0.023437 -1.6523437,0.84375 0,0.4101563 0.3046875,0.5976563 0.5859375,0.5976563 0.3046875,0 0.5742187,-0.2226563 0.5742187,-0.5859375 0,-0.2578125 -0.1523437,-0.4101563 -0.1757812,-0.4335938 0.09375,-0.023437 0.3046875,-0.058594 0.6328125,-0.058594 0.6445311,0 1.0195311,0.328125 1.0195311,1.03125 v 0.2929687 c -1.4882811,0 -2.9999999,0.375 -2.9999999,1.3710938 0,0.89062499 1.125,1.06640624 1.7695313,1.06640624 0.6796876,0 1.1484376,-0.3046875 1.3945316,-0.7265625 0,0.234375 0,0.6679687475 0.949218,0.6679687475 h 0.445313 c 0.164062,0 0.292969,0 0.292969,-0.2226562475 0,-0.2109375 -0.140625,-0.2109375 -0.234375,-0.2109375 -0.574219,-0.0117188 -0.574219,-0.10546875 -0.574219,-0.31640625 z m -1.042969,1.4296875 c 0,0.93749999 -1.0429686,0.93749999 -1.0781249,0.93749999 -0.4570312,0 -0.8320312,-0.29296875 -0.8320312,-0.70312499 0,-0.2929688 0.1640625,-0.9960938 1.9101561,-1.0664063 z m 6.272461,0.1992187 c 0,-0.140625 -0.128906,-0.140625 -0.234375,-0.140625 -0.175781,0 -0.175781,0.011719 -0.246094,0.1757813 -0.175781,0.42187499 -0.585937,0.67968749 -1.113281,0.67968749 -1.265625,0 -1.265625,-1.28906249 -1.265625,-1.69921879 0,-0.5390625 0,-1.6523437 1.183594,-1.6523437 0.05859,0 0.539062,0.011719 0.539062,0.058594 0,0.011719 -0.01172,0.035156 -0.02344,0.046875 -0.08203,0.09375 -0.117188,0.234375 -0.117188,0.3632813 0,0.3632812 0.28125,0.5859375 0.585938,0.5859375 0.269531,0 0.574219,-0.1875 0.574219,-0.5976563 0,-0.84375 -1.253907,-0.84375 -1.605469,-0.84375 -1.710938,0 -2.332031,1.1015625 -2.332031,2.0742188 0,1.13671874 0.808593,2.05078124 2.296875,2.05078124 0.328125,0 0.761718,-0.0585937525 1.148437,-0.29296875 0.503906,-0.31640625 0.609375,-0.77343749 0.609375,-0.80859379 z m 5.050781,-1.6875 c 0,-1.0664062 -0.644531,-1.3007812 -1.429687,-1.3007812 -0.84375,0 -1.324219,0.4804687 -1.558594,0.84375 v -3.0351563 l -1.605469,0.070312 v 0.4453125 c 0.539063,0 0.609375,0 0.609375,0.3515625 v 4.92187504 H 17.68482 V -7.578125e-4 C 18.352789,-0.02419531 18.458258,-0.02419531 18.821539,-0.02419531 c 0.363281,0 0.457031,0 1.136719,0.0234374975 V -0.43435156 H 19.348883 V -2.2741953 c 0,-1.0078125 0.820312,-1.40625 1.359375,-1.40625 0.339844,0 0.515625,0.1875 0.515625,0.8671875 v 2.37890624 H 20.614508 V -7.578125e-4 C 21.282477,-0.02419531 21.387945,-0.02419531 21.751227,-0.02419531 c 0.363281,0 0.457031,0 1.136718,0.0234374975 V -0.43435156 H 22.27857 Z m 4.520508,-2.53125 c 0.128906,-0.058594 0.339844,-0.1757812 0.339844,-0.4804687 0,-0.3046875 -0.269531,-0.5742188 -0.539063,-0.5742188 -0.222656,0 -0.304687,0.1054688 -0.5625,0.3867188 -0.199218,0.2226562 -0.703125,0.796875 -0.925781,1.0195312 l 0.28125,0.3632813 z m 0.606445,3.3398438 c 0.1875,0 0.292969,0 0.292969,-0.2578125 0,-0.1992188 -0.01172,-0.984375 -0.597656,-1.4648438 -0.398438,-0.3398437 -0.9375,-0.421875 -1.382813,-0.421875 -1.523437,0 -2.285156,0.9726563 -2.285156,2.0507813 0,1.17187499 0.890625,2.07421874 2.414063,2.07421874 1.476562,0 1.851562,-0.94921875 1.851562,-1.10156254 0,-0.1757812 -0.175781,-0.1757812 -0.234375,-0.1757812 -0.152344,0 -0.175781,0.058594 -0.222656,0.1757812 -0.210938,0.46875004 -0.761719,0.71484379 -1.324219,0.71484379 -1.265625,0 -1.289062,-1.16015629 -1.289062,-1.59374999 z m -2.777343,-0.328125 c 0.02344,-0.4101563 0.05859,-1.453125 1.089843,-1.453125 1.054688,0 1.089844,1.0898437 1.101563,1.453125 z m 7.646484,0.328125 c 0.1875,0 0.292969,0 0.292969,-0.2578125 0,-0.1992188 -0.01172,-0.984375 -0.597656,-1.4648438 -0.398438,-0.3398437 -0.9375,-0.421875 -1.382813,-0.421875 -1.523437,0 -2.285156,0.9726563 -2.285156,2.0507813 0,1.17187499 0.890625,2.07421874 2.414062,2.07421874 1.476563,0 1.851563,-0.94921875 1.851563,-1.10156254 0,-0.1757812 -0.175781,-0.1757812 -0.234375,-0.1757812 -0.152344,0 -0.175781,0.058594 -0.222656,0.1757812 -0.210938,0.46875004 -0.761719,0.71484379 -1.324219,0.71484379 -1.265625,0 -1.289063,-1.16015629 -1.289063,-1.59374999 z m -2.777344,-0.328125 c 0.02344,-0.4101563 0.05859,-1.453125 1.089844,-1.453125 1.054688,0 1.089844,1.0898437 1.101563,1.453125 z m 11.683594,0.234375 h -0.457031 c -0.02344,0.1289062 -0.09375,0.7617187 -0.234375,0.8203125 -0.117188,0.046875 -0.773438,0.046875 -0.925781,0.046875 h -1.289063 c 0.480469,-0.3867188 1.019531,-0.8085938 1.464844,-1.125 0.75,-0.5273438 1.441406,-1.0078125 1.441406,-1.8867188 0,-1.0429687 -0.960937,-1.7226562 -2.261719,-1.7226562 -1.113281,0 -1.980468,0.5273437 -1.980468,1.359375 0,0.4570312 0.363281,0.6796875 0.679687,0.6796875 0.28125,0 0.65625,-0.2109375 0.65625,-0.6796875 0,-0.1875 -0.08203,-0.5273438 -0.46875,-0.6328125 0.304688,-0.2460938 0.714844,-0.28125 0.890625,-0.28125 0.738281,0 1.207031,0.5390625 1.207031,1.2890625 0,0.6445312 -0.386718,1.2304687 -0.867187,1.7226562 l -1.992188,1.96875004 c -0.105468,0.09375 -0.105468,0.10546875 -0.105468,0.28125 v 0.1757812475 h 3.960937 z m 0,0"
       style="fill:#cc6600;fill-opacity:1;fill-rule:nonzero;stroke:none"
       aria-label="Cach´ee2"
       transform="matrix(1.3333333,0,0,1.3333333,239.04133,186.09867)" />
    <path
       id="path100"
       d="m 2.4129766,-3.9851328 c -0.9023438,-0.1992188 -0.9375,-0.8085938 -0.9375,-0.9257813 0,-0.421875 0.28125,-0.9492187 1.1835937,-0.9492187 1.4179688,0 1.7695313,0.9726562 1.8632813,1.5703125 0.035156,0.140625 0.035156,0.1875 0.234375,0.1875 0.2226562,0 0.234375,-0.046875 0.234375,-0.2695313 v -1.6289062 c 0,-0.1640625 0,-0.2578125 -0.1757813,-0.2578125 -0.082031,0 -0.09375,0.011719 -0.1992187,0.1054687 l -0.3984375,0.3867188 c -0.5039063,-0.3984375 -1.078125,-0.4921875 -1.5703125,-0.4921875 -1.4296875,0 -2.06250004,0.9023437 -2.06250004,1.8046875 0,0.6445312 0.375,1.0546875 0.45703124,1.1484375 0.4921875,0.4921875 0.7851563,0.5507812 1.7226563,0.75 0.140625,0.023437 0.28125,0.058594 0.421875,0.09375 0.5273437,0.1054687 0.6796875,0.1289062 0.9726562,0.4335937 0.011719,0.023437 0.2460938,0.2578125 0.2460938,0.65625 0,0.1757813 -0.058594,1.04296879 -1.21875,1.04296879 -0.5390625,0 -2.0625,-0.10546875 -2.1328125,-1.49999999 -0.011719,-0.1640625 -0.011719,-0.2109375 -0.23437504,-0.2109375 -0.234375,0 -0.234375,0.046875 -0.234375,0.2695312 v 1.61718754 c 0,0.1640625 0,0.2578125 0.1875,0.2578125 0.0703125,0 0.0820313,0 0.1640625,-0.08203125 0.0585938,-0.03515625 0.25781254,-0.2578125 0.42187504,-0.3984375 0.5507812,0.3984375 1.3476562,0.48046875 1.8398437,0.48046875 1.5117188,0 2.0859375,-0.99609375 2.0859375,-1.92187504 0,-0.9726562 -0.7265625,-1.7109375 -1.5703125,-1.8984375 z m 8.4843754,2.0273437 c 0,-1.171875 -0.832032,-2.109375 -2.3554692,-2.109375 -1.5703125,0 -2.3554687,0.984375 -2.3554687,2.109375 0,1.11328129 0.8085937,2.01562504 2.3554687,2.01562504 1.6054692,0 2.3554692,-0.94921875 2.3554692,-2.01562504 z m -2.3554692,1.62890629 c -1.1601562,0 -1.1601562,-0.94921879 -1.1601562,-1.72265629 0,-0.75 0,-1.6523437 1.1601562,-1.6523437 1.1601563,0 1.1601563,0.9023437 1.1601563,1.6523437 0,0.7734375 0,1.72265629 -1.1601563,1.72265629 z M 13.167859,-1.9577891 c 0,-0.65625 0.246094,-1.6875 1.113282,-1.7226562 -0.09375,0.1054687 -0.140625,0.2578125 -0.140625,0.3984375 0,0.3984375 0.316406,0.5742187 0.5625,0.5742187 0.292968,0 0.574218,-0.1992187 0.574218,-0.5742187 0,-0.4570313 -0.46875,-0.75 -0.996093,-0.75 -0.621094,0 -1.007813,0.4570312 -1.207032,0.9726562 h -0.01172 v -0.9726562 l -1.5,0.070312 v 0.4335937 c 0.539062,0 0.609375,0 0.609375,0.3515625 v 2.74218754 H 11.562391 V -7.578125e-4 C 12.230359,-0.02419531 12.288953,-0.02419531 12.710828,-0.02419531 c 0.222656,0 0.75,0 1.21875,0.0234374975 V -0.43435156 h -0.761719 z m 4.41211,-1.5820312 h 1.347656 v -0.4453125 h -1.347656 v -1.7109375 h -0.457031 c -0.01172,0.84375 -0.433594,1.7695312 -1.347657,1.7929687 v 0.3632813 h 0.75 v 2.4375 c 0,1.01953124 0.890625,1.16015624 1.441407,1.16015624 0.703125,0 1.136718,-0.50390625 1.136718,-1.16015624 v -0.4804688 h -0.457031 v 0.4570313 c 0,0.63281249 -0.328125,0.79687499 -0.550781,0.79687499 -0.515625,0 -0.515625,-0.5390625 -0.515625,-0.76171879 z m 4.280273,-1.9804688 c 0,-0.46875 -0.386719,-0.7148437 -0.703125,-0.7148437 -0.410156,0 -0.714844,0.3515625 -0.714844,0.703125 0,0.375 0.316407,0.703125 0.714844,0.703125 0.339844,0 0.703125,-0.2695313 0.703125,-0.6914063 z m -1.664062,1.5585938 v 0.4335937 c 0.515625,0 0.585937,0 0.585937,0.3515625 v 2.74218754 H 20.172742 V -7.578125e-4 C 20.770398,-0.02419531 20.887586,-0.02419531 21.262586,-0.02419531 c 0.445312,0 0.5625,0 1.054687,0.0234374975 V -0.43435156 H 21.778211 V -4.0320078 Z m 6.720703,2.0390625 c 0.1875,0 0.292969,0 0.292969,-0.2578125 0,-0.1992188 -0.01172,-0.984375 -0.597657,-1.4648438 -0.398437,-0.3398437 -0.9375,-0.421875 -1.382812,-0.421875 -1.523438,0 -2.285156,0.9726563 -2.285156,2.0507813 0,1.17187499 0.890625,2.07421874 2.414062,2.07421874 1.476563,0 1.851563,-0.94921875 1.851563,-1.10156254 0,-0.1757812 -0.175782,-0.1757812 -0.234375,-0.1757812 -0.152344,0 -0.175782,0.058594 -0.222657,0.1757812 -0.210937,0.46875004 -0.761718,0.71484379 -1.324218,0.71484379 -1.265625,0 -1.289063,-1.16015629 -1.289063,-1.59374999 z m -2.777344,-0.328125 c 0.02344,-0.4101563 0.05859,-1.453125 1.089844,-1.453125 1.054687,0 1.089844,1.0898437 1.101562,1.453125 z m 0,0"
       style="fill:#009900;fill-opacity:1;fill-rule:nonzero;stroke:none"
       aria-label="Sortie"
       transform="matrix(1.3333333,0,0,1.3333333,369.45067,186.09867)" />
  </g>
</svg>
