<?xml version="1.0" encoding="UTF-8" standalone="no"?>
<!-- Created with Inkscape (http://www.inkscape.org/) -->

<svg
   version="1.1"
   id="svg1"
   width="382.41711"
   height="212.69707"
   viewBox="0 0 382.41712 212.69706"
   xmlns="http://www.w3.org/2000/svg"
   xmlns:svg="http://www.w3.org/2000/svg">
  <defs
     id="defs1" />
  <g
     id="g1"
     transform="translate(-4.9257813,0.00176002)">
    <path
       id="path1"
       d="m 14.17339,85.04042 c 0,7.82785 -6.34555,14.1734 -14.17339,14.1734 -7.82784,0 -14.17339,-6.34555 -14.17339,-14.1734 0,-7.82785 6.34555,-14.1734 14.17339,-14.1734 7.82784,0 14.17339,6.34555 14.17339,14.1734 z"
       style="fill:#ccccff;fill-opacity:1;fill-rule:nonzero;stroke:#6666ff;stroke-width:0.79701;stroke-linecap:butt;stroke-linejoin:miter;stroke-miterlimit:10;stroke-dasharray:none;stroke-opacity:1"
       transform="matrix(1.3333333,0,0,-1.3333333,27.752,132.81467)" />
    <g
       id="g2"
       aria-label="x&#10;1"
       transform="matrix(1.3333333,0,0,1.3333333,20.976,21.292)">
      <path
         id="path2"
         d="m 3.3285469,-3.0109922 c 0.058594,-0.2578125 0.2929687,-1.171875 0.984375,-1.171875 0.046875,0 0.2929687,0 0.5039062,0.1289063 -0.28125,0.046875 -0.4804687,0.3046875 -0.4804687,0.5390625 0,0.1640625 0.1054687,0.3515625 0.375,0.3515625 0.2226562,0 0.5390625,-0.1875 0.5390625,-0.5859375 0,-0.515625 -0.5859375,-0.65625 -0.9257813,-0.65625 -0.5742187,0 -0.9257812,0.5273437 -1.0429687,0.7617187 -0.2578125,-0.65625 -0.7851563,-0.7617187 -1.078125,-0.7617187 -1.0429688,0 -1.60546878,1.2890625 -1.60546878,1.5351562 0,0.1054688 0.10546875,0.1054688 0.1171875,0.1054688 0.0820313,0 0.1171875,-0.023437 0.12890625,-0.1171875 0.33984373,-1.0546875 0.99609373,-1.3007813 1.33593753,-1.3007813 0.1875,0 0.5390625,0.09375 0.5390625,0.6679688 0,0.3046875 -0.1640625,0.9726562 -0.5390625,2.3671875 -0.1523438,0.62109371 -0.5039063,1.04296871 -0.9492188,1.04296871 -0.058594,0 -0.28124998,0 -0.49218748,-0.12890625 0.24609375,-0.0585938 0.46874998,-0.26953125 0.46874998,-0.5390625 0,-0.26953126 -0.22265623,-0.35156246 -0.37499998,-0.35156246 -0.29296875,0 -0.5390625,0.25781246 -0.5390625,0.57421871 0,0.45703125 0.4921875,0.65625 0.93749998,0.65625 0.65625,0 1.0078125,-0.69140625 1.0429688,-0.75 0.1171875,0.36328125 0.4804687,0.75 1.078125,0.75 1.0195312,0 1.59375,-1.27734371 1.59375,-1.53515621 0,-0.09375 -0.09375,-0.09375 -0.1289063,-0.09375 -0.082031,0 -0.1054687,0.035156 -0.1289062,0.1054687 -0.328125,1.06640626 -0.9960938,1.31250001 -1.3242188,1.31250001 -0.3867187,0 -0.5390625,-0.328125 -0.5390625,-0.65625 0,-0.22265625 0.058594,-0.44531251 0.1640625,-0.87890621 z m 0,0"
         style="fill:#000000;fill-opacity:1;fill-rule:nonzero;stroke:none" />
      <path
         id="path3"
         d="m 8.0248359,-2.9348203 c 0,-0.1875 -0.011719,-0.1992188 -0.2109375,-0.1992188 -0.4453125,0.4335938 -1.078125,0.4453125 -1.359375,0.4453125 v 0.2460938 c 0.1640625,0 0.6210938,0 1.0078125,-0.1875 v 3.55078124 c 0,0.23437496 0,0.32812496 -0.6914062,0.32812496 H 6.5013984 v 0.2460938 c 0.1289063,-0.011719 0.984375,-0.023437 1.2421875,-0.023437 0.2109375,0 1.0898438,0.011719 1.2421875,0.023437 V 1.2487734 H 8.7279609 c -0.703125,0 -0.703125,-0.09375 -0.703125,-0.32812496 z m 0,0"
         style="fill:#000000;fill-opacity:1;fill-rule:nonzero;stroke:none" />
    </g>
    <path
       id="path4"
       d="m 14.17339,42.5202 c 0,7.82785 -6.34555,14.1734 -14.17339,14.1734 -7.82784,0 -14.17339,-6.34555 -14.17339,-14.1734 0,-7.82785 6.34555,-14.1734 14.17339,-14.1734 7.82784,0 14.17339,6.34555 14.17339,14.1734 z"
       style="fill:#ccccff;fill-opacity:1;fill-rule:nonzero;stroke:#6666ff;stroke-width:0.79701;stroke-linecap:butt;stroke-linejoin:miter;stroke-miterlimit:10;stroke-dasharray:none;stroke-opacity:1"
       transform="matrix(1.3333333,0,0,-1.3333333,27.752,132.81467)" />
    <g
       id="g4"
       aria-label="x&#10;2"
       transform="matrix(1.3333333,0,0,1.3333333,20.976,77.985333)">
      <path
         id="path5"
         d="m 3.3285469,-3.0124375 c 0.058594,-0.2578125 0.2929687,-1.171875 0.984375,-1.171875 0.046875,0 0.2929687,0 0.5039062,0.1289063 -0.28125,0.046875 -0.4804687,0.3046875 -0.4804687,0.5390625 0,0.1640625 0.1054687,0.3515625 0.375,0.3515625 0.2226562,0 0.5390625,-0.1875 0.5390625,-0.5859375 0,-0.515625 -0.5859375,-0.65625 -0.9257813,-0.65625 -0.5742187,0 -0.9257812,0.5273437 -1.0429687,0.7617187 -0.2578125,-0.65625 -0.7851563,-0.7617187 -1.078125,-0.7617187 -1.0429688,0 -1.60546878,1.2890625 -1.60546878,1.5351562 0,0.1054688 0.10546875,0.1054688 0.1171875,0.1054688 0.0820313,0 0.1171875,-0.023437 0.12890625,-0.1171875 0.33984373,-1.0546875 0.99609373,-1.3007813 1.33593753,-1.3007813 0.1875,0 0.5390625,0.09375 0.5390625,0.6679688 0,0.3046875 -0.1640625,0.9726562 -0.5390625,2.3671875 -0.1523438,0.6210937 -0.5039063,1.0429687 -0.9492188,1.0429687 -0.058594,0 -0.28124998,0 -0.49218748,-0.12890625 0.24609375,-0.0585938 0.46874998,-0.26953125 0.46874998,-0.5390625 0,-0.26953125 -0.22265623,-0.35156245 -0.37499998,-0.35156245 -0.29296875,0 -0.5390625,0.25781245 -0.5390625,0.5742187 0,0.45703125 0.4921875,0.65625 0.93749998,0.65625 0.65625,0 1.0078125,-0.69140625 1.0429688,-0.75 0.1171875,0.36328125 0.4804687,0.75 1.078125,0.75 1.0195312,0 1.59375,-1.2773437 1.59375,-1.5351562 0,-0.09375 -0.09375,-0.09375 -0.1289063,-0.09375 -0.082031,0 -0.1054687,0.035156 -0.1289062,0.1054687 -0.328125,1.06640625 -0.9960938,1.3125 -1.3242188,1.3125 -0.3867187,0 -0.5390625,-0.328125 -0.5390625,-0.65625 0,-0.22265625 0.058594,-0.4453125 0.1640625,-0.8789062 z m 0,0"
         style="fill:#000000;fill-opacity:1;fill-rule:nonzero;stroke:none" />
      <path
         id="path6"
         d="m 9.2084297,0.22779688 h -0.234375 c -0.023437,0.15234375 -0.082031,0.5625 -0.1757813,0.6328125 -0.058594,0.0351563 -0.5976562,0.0351563 -0.6914062,0.0351563 H 6.8178047 c 0.7382812,-0.64453125 0.984375,-0.84375 1.3945312,-1.171875 0.515625,-0.41015625 0.9960938,-0.84374998 0.9960938,-1.49999998 0,-0.8437501 -0.7382813,-1.3593751 -1.6289063,-1.3593751 -0.8671875,0 -1.453125,0.609375 -1.453125,1.2421876 0,0.3632812 0.3046875,0.3984375 0.375,0.3984375 0.1640625,0 0.375,-0.1171875 0.375,-0.375 0,-0.1289063 -0.058594,-0.3632813 -0.421875,-0.3632813 0.2226563,-0.5039063 0.6914063,-0.65625 1.0195313,-0.65625 0.703125,0 1.0664062,0.5507812 1.0664062,1.1132813 0,0.609375 -0.4335937,1.08984373 -0.65625,1.33593748 l -1.6875,1.66406252 c -0.070312,0.058594 -0.070312,0.070312 -0.070312,0.2695312 h 2.8828125 z m 0,0"
         style="fill:#000000;fill-opacity:1;fill-rule:nonzero;stroke:none" />
    </g>
    <path
       id="path7"
       d="M 14.17339,0 C 14.17339,7.82784 7.82784,14.17339 0,14.17339 -7.82784,14.17339 -14.17339,7.82784 -14.17339,0 c 0,-7.82784 6.34555,-14.17339 14.17339,-14.17339 7.82784,0 14.17339,6.34555 14.17339,14.17339 z"
       style="fill:#ccccff;fill-opacity:1;fill-rule:nonzero;stroke:#6666ff;stroke-width:0.79701;stroke-linecap:butt;stroke-linejoin:miter;stroke-miterlimit:10;stroke-dasharray:none;stroke-opacity:1"
       transform="matrix(1.3333333,0,0,-1.3333333,27.752,132.81467)" />
    <g
       id="g7"
       aria-label="x&#10;3"
       transform="matrix(1.3333333,0,0,1.3333333,20.976,134.67867)">
      <path
         id="path8"
         d="m 3.3285469,-3.0109531 c 0.058594,-0.2578125 0.2929687,-1.171875 0.984375,-1.171875 0.046875,0 0.2929687,0 0.5039062,0.1289062 -0.28125,0.046875 -0.4804687,0.3046875 -0.4804687,0.5390625 0,0.1640625 0.1054687,0.3515625 0.375,0.3515625 0.2226562,0 0.5390625,-0.1875 0.5390625,-0.5859375 0,-0.515625 -0.5859375,-0.65625 -0.9257813,-0.65625 -0.5742187,0 -0.9257812,0.5273438 -1.0429687,0.7617188 -0.2578125,-0.65625 -0.7851563,-0.7617188 -1.078125,-0.7617188 -1.0429688,0 -1.60546878,1.2890625 -1.60546878,1.5351563 0,0.1054687 0.10546875,0.1054687 0.1171875,0.1054687 0.0820313,0 0.1171875,-0.023437 0.12890625,-0.1171875 0.33984373,-1.0546875 0.99609373,-1.3007812 1.33593753,-1.3007812 0.1875,0 0.5390625,0.09375 0.5390625,0.6679687 0,0.3046875 -0.1640625,0.9726563 -0.5390625,2.3671875 -0.1523438,0.62109378 -0.5039063,1.04296878 -0.9492188,1.04296878 -0.058594,0 -0.28124998,0 -0.49218748,-0.12890625 0.24609375,-0.0585937 0.46874998,-0.26953125 0.46874998,-0.5390625 0,-0.26953123 -0.22265623,-0.35156253 -0.37499998,-0.35156253 -0.29296875,0 -0.5390625,0.25781253 -0.5390625,0.57421878 0,0.45703125 0.4921875,0.65625 0.93749998,0.65625 0.65625,0 1.0078125,-0.69140625 1.0429688,-0.75 0.1171875,0.36328125 0.4804687,0.75 1.078125,0.75 1.0195312,0 1.59375,-1.27734378 1.59375,-1.53515628 0,-0.09375 -0.09375,-0.09375 -0.1289063,-0.09375 -0.082031,0 -0.1054687,0.035156 -0.1289062,0.1054688 -0.328125,1.06640623 -0.9960938,1.31249998 -1.3242188,1.31249998 -0.3867187,0 -0.5390625,-0.328125 -0.5390625,-0.65625 0,-0.22265625 0.058594,-0.44531248 0.1640625,-0.87890628 z m 0,0"
         style="fill:#000000;fill-opacity:1;fill-rule:nonzero;stroke:none" />
      <path
         id="path9"
         d="m 7.5912422,-0.837125 c 0.5507812,0 0.9375,0.375 0.9375,1.125 0,0.8671875 -0.5039063,1.125 -0.9023438,1.125 -0.28125,0 -0.890625,-0.082031 -1.1835937,-0.4921875 C 6.7709297,0.90896875 6.8412422,0.67459375 6.8412422,0.53396875 6.8412422,0.3113125 6.6771797,0.14725 6.4545234,0.14725 c -0.1875,0 -0.3867187,0.1171875 -0.3867187,0.41015625 0,0.65625005 0.7265625,1.07812505 1.5703125,1.07812505 0.9726562,0 1.640625,-0.6445313 1.640625,-1.3476563 0,-0.5390625 -0.4453125,-1.08984375 -1.21875,-1.2421875 0.7382812,-0.2695312 0.9960937,-0.796875 0.9960937,-1.21875 0,-0.5507812 -0.6328125,-0.9609375 -1.40625,-0.9609375 -0.7734375,0 -1.359375,0.375 -1.359375,0.9375 0,0.234375 0.1523438,0.3632813 0.3632813,0.3632813 0.2109375,0 0.3515625,-0.1640625 0.3515625,-0.3515625 0,-0.1992188 -0.140625,-0.3515625 -0.3515625,-0.3632813 0.234375,-0.3046875 0.7148437,-0.3867187 0.9726562,-0.3867187 0.3164063,0 0.7617188,0.1523437 0.7617188,0.7617187 0,0.2929688 -0.1054688,0.609375 -0.28125,0.8320313 -0.234375,0.2578125 -0.421875,0.28125 -0.7734375,0.2929687 -0.1757813,0.023437 -0.1875,0.023437 -0.2226563,0.023437 -0.011719,0 -0.070312,0.011719 -0.070312,0.09375 0,0.09375 0.058594,0.09375 0.1757813,0.09375 z m 0,0"
         style="fill:#000000;fill-opacity:1;fill-rule:nonzero;stroke:none" />
    </g>
    <path
       id="path10"
       d="m 14.17339,-28.3468 c 0,7.82785 -6.34555,14.1734 -14.17339,14.1734 -7.82784,0 -14.17339,-6.34555 -14.17339,-14.1734 0,-7.82785 6.34555,-14.1734 14.17339,-14.1734 7.82784,0 14.17339,6.34555 14.17339,14.1734 z"
       style="fill:#e6e6e6;fill-opacity:1;fill-rule:nonzero;stroke:#b3b3b3;stroke-width:0.79701;stroke-linecap:butt;stroke-linejoin:miter;stroke-miterlimit:10;stroke-dasharray:none;stroke-opacity:1"
       transform="matrix(1.3333333,0,0,-1.3333333,27.752,132.81467)" />
    <path
       id="path11"
       d="m 2.3796641,-6.8086016 c 0,0 0,-0.1054687 -0.1289063,-0.1054687 -0.2226562,0 -0.9492187,0.082031 -1.21875,0.1054687 -0.0703125,0 -0.18749999,0.011719 -0.18749999,0.1992188 0,0.1171875 0.09375,0.1171875 0.24609379,0.1171875 0.46875,0 0.4921875,0.070312 0.4921875,0.1640625 0,0.070312 -0.082031,0.4101562 -0.140625,0.6210937 l -0.80859379,3.2460938 c -0.12890625,0.5039062 -0.1640625,0.65625 -0.1640625,1.0078125 0,0.94921874 0.52734375,1.55859374 1.26562499,1.55859374 1.171875,0 2.4023438,-1.47656254 2.4023438,-2.91796874 0,-0.9023438 -0.5273438,-1.59375 -1.3242188,-1.59375 -0.4570312,0 -0.8671875,0.2929687 -1.171875,0.5976562 z m -0.9375,3.7734375 c 0.058594,-0.2226562 0.058594,-0.2460937 0.1523437,-0.3515625 0.4921875,-0.6445312 0.9375,-0.796875 1.1953125,-0.796875 0.3632813,0 0.6328125,0.2929688 0.6328125,0.9375 0,0.5859375 -0.328125,1.734375 -0.515625,2.109375 -0.328125,0.66796879 -0.7851562,1.03125004 -1.171875,1.03125004 -0.3398437,0 -0.6679687,-0.26953125 -0.6679687,-1.00781254 0,-0.1875 0,-0.3867187 0.1640625,-1.0078125 z m 0,0"
       style="fill:#000000;fill-opacity:1;fill-rule:nonzero;stroke:none"
       aria-label="b"
       transform="matrix(1.3333333,0,0,1.3333333,24.901333,175.22267)" />
    <path
       id="path12"
       d="m 102.04848,42.5202 c 0,9.39339 -7.61466,17.00804 -17.00806,17.00804 -9.39339,0 -17.00804,-7.61465 -17.00804,-17.00804 0,-9.3934 7.61465,-17.00805 17.00804,-17.00805 9.3934,0 17.00806,7.61465 17.00806,17.00805 z"
       style="fill:#f9e6ec;fill-opacity:1;fill-rule:nonzero;stroke:#cc3366;stroke-width:0.79701;stroke-linecap:butt;stroke-linejoin:miter;stroke-miterlimit:10;stroke-dasharray:none;stroke-opacity:1"
       transform="matrix(1.3333333,0,0,-1.3333333,27.752,132.81467)" />
    <path
       id="path13"
       d="m 3.7020078,-3.2459766 c 0.09375,-0.1054687 0.09375,-0.140625 0.09375,-0.1640625 0,-0.046875 -0.046875,-0.09375 -0.070312,-0.140625 l -2.039063,-2.9414062 h 2.296875 c 1.6875,0 2.1796875,0.3515625 2.390625,1.9335937 h 0.2460938 l -0.28125,-2.25 H 0.81919531 c -0.24609375,0 -0.2578125,0 -0.2578125,0.234375 l 2.47265629,3.609375 -2.36718754,2.69531254 c -0.10546875,0.10546875 -0.10546875,0.12890625 -0.10546875,0.1640625 0,0.1054687475 0.10546875,0.1054687475 0.2578125,0.1054687475 H 6.3387266 L 6.6199766,-2.3553516 H 6.3738828 C 6.1981016,-0.69128906 5.5184141,-0.42175781 3.9481016,-0.42175781 H 1.2059141 Z m 0,0"
       style="fill:#000000;fill-opacity:1;fill-rule:nonzero;stroke:none"
       aria-label="Σ"
       transform="matrix(1.3333333,0,0,1.3333333,136.34133,80.66)" />
    <path
       id="path14"
       d="m 144.56868,28.3468 h 51.02434 v 28.34679 h -51.02434 z"
       style="fill:#ffe6cc;fill-opacity:1;fill-rule:nonzero;stroke:#ffa64c;stroke-width:0.79701;stroke-linecap:butt;stroke-linejoin:miter;stroke-miterlimit:10;stroke-dasharray:none;stroke-opacity:1"
       transform="matrix(1.3333333,0,0,-1.3333333,27.752,132.81467)" />
    <path
       id="path15"
       d="M 3.9601562,-6.9373828 C 3.9132812,-7.0662891 3.8898437,-7.1366016 3.7375,-7.1366016 c -0.1640625,0 -0.1875,0.058594 -0.2460938,0.1992188 l -2.0625,5.96484374 c -0.1757812,0.50390625 -0.5742187,0.65625 -1.1132812,0.66796875 V 1.171875e-4 C 0.55,-0.01160156 0.971875,-0.03503906 1.3351562,-0.03503906 c 0.3046875,0 0.8203125,0.0234375 1.1484375,0.0351562475 V -0.30457031 c -0.5039062,0 -0.75,-0.2578125 -0.75,-0.515625 0,-0.0234375 0.011719,-0.12890625 0.023437,-0.140625 L 2.2140625,-2.2733203 H 4.675 l 0.5273437,1.52343749 c 0.011719,0.046875 0.023437,0.10546875 0.023437,0.140625 0,0.3046875 -0.5507812,0.3046875 -0.8203125,0.3046875 V 1.171875e-4 C 4.7570312,-0.03503906 5.4601562,-0.03503906 5.8351562,-0.03503906 c 0.4335938,0 0.890625,0.01171875 1.3007813,0.0351562475 V -0.30457031 H 6.9601562 c -0.5976562,0 -0.7382812,-0.0703125 -0.84375,-0.3984375 z m -0.5273437,1.125 1.125,3.234375 H 2.3195312 Z m 5.2001953,3.6445312 c 0,-1.6289062 0.8203125,-2.0507812 1.3476563,-2.0507812 0.09375,0 0.7148439,0.011719 1.0664059,0.375 -0.410156,0.023437 -0.46875,0.328125 -0.46875,0.4570312 0,0.2578125 0.1875,0.4570313 0.457032,0.4570313 0.257812,0 0.457031,-0.1640625 0.457031,-0.46875 0,-0.6796875 -0.75,-1.0664063 -1.5234377,-1.0664063 -1.2421875,0 -2.15625,1.078125 -2.15625,2.3085938 0,1.27734374 0.984375,2.26171874 2.1445313,2.26171874 1.3359374,0 1.6523434,-1.19531254 1.6523434,-1.28906254 0,-0.1054687 -0.105468,-0.1054687 -0.128906,-0.1054687 -0.09375,0 -0.117187,0.046875 -0.128906,0.1054687 -0.292969,0.92578129 -0.9375,1.04296879 -1.3125,1.04296879 -0.5273439,0 -1.4062502,-0.421875 -1.4062502,-2.02734379 z m 4.9892582,-1.8164062 h 1.429687 v -0.3046875 h -1.429687 v -1.8398438 h -0.246094 c -0.01172,0.8203125 -0.316406,1.8867188 -1.289063,1.921875 v 0.2226563 h 0.84375 v 2.7539062 c 0,1.21875004 0.925782,1.33593754 1.289063,1.33593754 0.703125,0 0.984375,-0.703125 0.984375,-1.33593754 v -0.5742187 h -0.246094 v 0.5507812 c 0,0.73828129 -0.304687,1.11328129 -0.667969,1.11328129 -0.667968,0 -0.667968,-0.90234379 -0.667968,-1.07812499 z m 3.908203,-0.421875 -1.394532,0.1171875 v 0.3046875 c 0.65625,0 0.738282,0.058594 0.738282,0.5507812 v 2.67187504 c 0,0.45703125 -0.105469,0.45703125 -0.773438,0.45703125 V 1.171875e-4 C 16.417187,-0.01160156 16.95625,-0.03503906 17.202344,-0.03503906 c 0.339843,0 0.691406,0.0234375 1.03125,0.0351562475 V -0.30457031 c -0.65625,0 -0.703125,-0.0585938 -0.703125,-0.4453125 z m 0.04687,-1.734375 c 0,-0.3164063 -0.246094,-0.5273438 -0.527344,-0.5273438 -0.316406,0 -0.527344,0.2695313 -0.527344,0.5273438 0,0.2695312 0.210938,0.5273437 0.527344,0.5273437 0.28125,0 0.527344,-0.1992187 0.527344,-0.5273437 z m 5.112304,2.8242187 c 0.08203,-0.234375 0.257813,-0.65625 0.914063,-0.6679687 v -0.3046875 c -0.234375,0.011719 -0.515625,0.023437 -0.75,0.023437 -0.234375,0 -0.691406,-0.023437 -0.867188,-0.023437 v 0.3046875 c 0.375,0.011719 0.480469,0.234375 0.480469,0.4335937 0,0.082031 -0.02344,0.1289063 -0.05859,0.234375 l -1.019531,2.54296879 -1.113281,-2.77734379 c -0.05859,-0.140625 -0.05859,-0.1523437 -0.05859,-0.1757812 0,-0.2578125 0.386719,-0.2578125 0.5625,-0.2578125 v -0.3046875 c -0.292969,0 -0.855469,0.023437 -1.078125,0.023437 -0.269531,0 -0.667969,-0.011719 -0.972656,-0.023437 v 0.3046875 c 0.632812,0 0.667969,0.058594 0.796875,0.3632812 l 1.441406,3.53906254 c 0.05859,0.140625 0.07031,0.1875 0.199219,0.1875 0.128906,0 0.175781,-0.08203125 0.210937,-0.1875 z m 3.867188,2.55468754 c 0.03516,0.3984375 0.304687,0.8203125 0.773437,0.8203125 0.210938,0 0.820313,-0.140625 0.820313,-0.94921875 V -1.4412891 h -0.246094 v 0.55078129 c 0,0.5859375 -0.246094,0.64453125 -0.363281,0.64453125 -0.328125,0 -0.363281,-0.45703125 -0.363281,-0.50390625 V -2.7420703 c 0,-0.4101563 0,-0.8085938 -0.363282,-1.171875 -0.386718,-0.3867188 -0.878906,-0.5507813 -1.359375,-0.5507813 -0.820312,0 -1.511718,0.46875 -1.511718,1.125 0,0.3046875 0.199218,0.46875 0.457031,0.46875 0.28125,0 0.46875,-0.1992187 0.46875,-0.4570312 0,-0.1171875 -0.05859,-0.4453125 -0.515625,-0.4570313 0.269531,-0.3515625 0.761719,-0.4570312 1.078125,-0.4570312 0.492187,0 1.054687,0.3867187 1.054687,1.2773437 v 0.3632813 c -0.503906,0.035156 -1.207031,0.058594 -1.828125,0.3632812 -0.75,0.3398438 -0.996093,0.8554688 -0.996093,1.28906254 0,0.80859375 0.960937,1.0546875 1.59375,1.0546875 0.65625,0 1.113281,-0.3984375 1.300781,-0.8671875 z m -0.07031,-1.62890624 v 0.9960937 c 0,0.94921879 -0.714843,1.28906254 -1.160156,1.28906254 -0.492187,0 -0.902344,-0.3515625 -0.902344,-0.85546875 0,-0.53906249 0.421875,-1.37109379 2.0625,-1.42968749 z m 3.459961,-1.59375 h 1.429688 v -0.3046875 h -1.429688 v -1.8398438 h -0.246093 c -0.01172,0.8203125 -0.316407,1.8867188 -1.289063,1.921875 v 0.2226563 h 0.84375 v 2.7539062 c 0,1.21875004 0.925781,1.33593754 1.289063,1.33593754 0.703125,0 0.984375,-0.703125 0.984375,-1.33593754 V -1.8045703 H 31.28242 v 0.5507812 c 0,0.73828129 -0.304688,1.11328129 -0.667969,1.11328129 -0.667969,0 -0.667969,-0.90234379 -0.667969,-1.07812499 z m 3.908203,-0.421875 -1.394531,0.1171875 v 0.3046875 c 0.65625,0 0.738281,0.058594 0.738281,0.5507812 v 2.67187504 c 0,0.45703125 -0.105468,0.45703125 -0.773437,0.45703125 V 1.171875e-4 C 32.741406,-0.01160156 33.280469,-0.03503906 33.526562,-0.03503906 c 0.339844,0 0.691407,0.0234375 1.03125,0.0351562475 V -0.30457031 c -0.65625,0 -0.703125,-0.0585938 -0.703125,-0.4453125 z m 0.04687,-1.734375 c 0,-0.3164063 -0.246093,-0.5273438 -0.527343,-0.5273438 -0.316407,0 -0.527344,0.2695313 -0.527344,0.5273438 0,0.2695312 0.210937,0.5273437 0.527344,0.5273437 0.28125,0 0.527343,-0.1992187 0.527343,-0.5273437 z m 5.651368,4.0078125 c 0,-1.2773438 -0.996094,-2.3320313 -2.191407,-2.3320313 -1.253906,0 -2.214843,1.0898438 -2.214843,2.3320313 0,1.28906249 1.03125,2.23828124 2.203125,2.23828124 1.207031,0 2.203125,-0.97265625 2.203125,-2.23828124 z m -2.191407,1.99218749 c -0.433593,0 -0.867187,-0.2109375 -1.136718,-0.66796875 -0.257813,-0.43359374 -0.257813,-1.04296874 -0.257813,-1.40625004 0,-0.3867187 0,-0.9257812 0.246094,-1.359375 0.269531,-0.4570312 0.738281,-0.6679687 1.136719,-0.6679687 0.433593,0 0.867187,0.2226562 1.125,0.6445312 0.257812,0.4335938 0.257812,1.0078125 0.257812,1.3828125 0,0.3632813 0,0.9023438 -0.222656,1.33593754 -0.222656,0.4453125 -0.65625,0.73828125 -1.148438,0.73828125 z m 3.585938,-3.28124999 v 2.66015624 c 0,0.45703125 -0.117188,0.45703125 -0.785156,0.45703125 V 1.171875e-4 c 0.351562,-0.0117187475 0.855468,-0.0351562475 1.125,-0.0351562475 0.257812,0 0.785156,0.0234375 1.113281,0.0351562475 V -0.30457031 c -0.65625,0 -0.773438,0 -0.773438,-0.45703125 V -2.5897266 c 0,-1.03125 0.714844,-1.59375 1.347657,-1.59375 0.621093,0 0.738281,0.5390625 0.738281,1.1015625 v 2.32031254 c 0,0.45703125 -0.117188,0.45703125 -0.773438,0.45703125 V 1.171875e-4 c 0.339844,-0.0117187475 0.855469,-0.0351562475 1.125,-0.0351562475 0.257813,0 0.773438,0.0234375 1.113282,0.0351562475 V -0.30457031 c -0.515625,0 -0.773438,0 -0.785157,-0.3046875 V -2.5076953 c 0,-0.8554688 0,-1.171875 -0.304687,-1.5234375 -0.140625,-0.1757813 -0.46875,-0.375 -1.042969,-0.375 -0.726562,0 -1.195312,0.4335937 -1.476562,1.0546875 v -1.0546875 l -1.40625,0.1171875 v 0.3046875 c 0.703125,0 0.785156,0.070312 0.785156,0.5625 z m 0,0"
       style="fill:#000000;fill-opacity:1;fill-rule:nonzero;stroke:none"
       aria-label="Activation"
       transform="matrix(1.3333333,0,0,1.3333333,224.26667,80.66)" />
    <path
       id="path16"
       d="m 269.29468,42.5202 c 0,7.82785 -6.34555,14.1734 -14.1734,14.1734 -7.82785,0 -14.17339,-6.34555 -14.17339,-14.1734 0,-7.82785 6.34554,-14.1734 14.17339,-14.1734 7.82785,0 14.1734,6.34555 14.1734,14.1734 z"
       style="fill:#bfffbf;fill-opacity:1;fill-rule:nonzero;stroke:#66ff66;stroke-width:0.79701;stroke-linecap:butt;stroke-linejoin:miter;stroke-miterlimit:10;stroke-dasharray:none;stroke-opacity:1"
       transform="matrix(1.3333333,0,0,-1.3333333,27.752,132.81467)" />
    <path
       id="path17"
       d="m 4.8393906,-3.7963203 c 0.046875,-0.140625 0.046875,-0.1523438 0.046875,-0.2226563 0,-0.1875 -0.140625,-0.2695312 -0.2929687,-0.2695312 -0.1054688,0 -0.2578125,0.058594 -0.3515625,0.1992187 -0.023437,0.058594 -0.09375,0.3632813 -0.140625,0.5390625 -0.070312,0.2578125 -0.140625,0.5273438 -0.1992188,0.796875 l -0.4453125,1.79296879 c -0.035156,0.15234375 -0.46875,0.85546875 -1.125,0.85546875 -0.5039062,0 -0.6210937,-0.4453125 -0.6210937,-0.80859375 0,-0.45703129 0.1757812,-1.07812499 0.515625,-1.95703129 0.1523437,-0.4101562 0.1992187,-0.515625 0.1992187,-0.7148437 0,-0.4453125 -0.328125,-0.8203125 -0.8203125,-0.8203125 -0.94921873,0 -1.31249998,1.453125 -1.31249998,1.5351562 0,0.1054688 0.09375,0.1054688 0.1171875,0.1054688 0.09375,0 0.10546875,-0.023437 0.15234375,-0.1875 0.26953125,-0.9375 0.66796873,-1.2304688 1.00781253,-1.2304688 0.082031,0 0.2578125,0 0.2578125,0.3164063 0,0.2460937 -0.1054688,0.515625 -0.1757813,0.703125 -0.3984375,1.0546875 -0.5742187,1.6171875 -0.5742187,2.0859375 0,0.89062499 0.6210937,1.18359374 1.21875,1.18359374 0.3867187,0 0.7265625,-0.1640625 0.9960937,-0.4453125 -0.1289062,0.515625 -0.2460937,1.0078125 -0.6445312,1.53515626 -0.2578125,0.3398437 -0.6328125,0.6328125 -1.0898438,0.6328125 -0.140625,0 -0.59765623,-0.035156 -0.76171873,-0.421875 0.1640625,0 0.29296873,0 0.43359373,-0.1171875 0.09375,-0.09375 0.1992188,-0.2226563 0.1992188,-0.41015626 0,-0.31640625 -0.2695313,-0.3515625 -0.375,-0.3515625 -0.22265628,0 -0.55078128,0.1640625 -0.55078128,0.64453126 0,0.5039062 0.43359375,0.8671875 1.05468748,0.8671875 1.0195313,0 2.0507813,-0.9023438 2.3320313,-2.02734376 z m 0,0"
       style="fill:#000000;fill-opacity:1;fill-rule:nonzero;stroke:none"
       aria-label="y"
       transform="matrix(1.3333333,0,0,1.3333333,364.41467,77.690667)" />
    <path
       id="path18"
       d="M 13.03256,78.52425 67.55696,51.26176"
       style="fill:none;stroke:#b3b3b3;stroke-width:0.49814;stroke-linecap:butt;stroke-linejoin:miter;stroke-miterlimit:10;stroke-dasharray:none;stroke-opacity:1"
       transform="matrix(1.3333333,0,0,-1.3333333,27.752,132.81467)" />
    <path
       id="path19"
       d="M 2.14195,0 -1.28517,1.71356 0,0 -1.28517,-1.71356"
       style="fill:#b3b3b3;fill-opacity:1;fill-rule:nonzero;stroke:none"
       transform="matrix(1.19248,0.59622667,0.59622667,-1.19248,117.82793,64.465653)" />
    <g
       id="g19"
       aria-label="w&#10;1"
       transform="matrix(1.3333333,0,0,1.3333333,75.584,40.842667)">
      <path
         id="path20"
         d="m 4.2787969,-3.0695 c 0.046875,-0.1757813 0.1289062,-0.4921875 0.1289062,-0.5390625 0,-0.1054688 -0.082031,-0.2578125 -0.28125,-0.2578125 -0.1171875,0 -0.28125,0.070312 -0.3515625,0.2460937 -0.011719,0.058594 -0.4453125,1.78125 -0.5039062,2.015625 -0.046875,0.2109375 -0.082031,0.3632813 -0.082031,0.5742188 0.035156,0.22265625 -0.1054687,0.421875 -0.234375,0.59765625 -0.1992187,0.24609375 -0.3984375,0.3046875 -0.5859375,0.3046875 -0.328125,0 -0.7382812,-0.12890625 -0.7382812,-0.80859375 0,-0.4570313 0.234375,-1.1015625 0.515625,-1.828125 0.046875,-0.1171875 0.1054687,-0.2695313 0.1054687,-0.4453125 0,-0.4335938 -0.328125,-0.75 -0.7734375,-0.75 -0.85546873,0 -1.21874998,1.2773437 -1.21874998,1.3828125 0,0.082031 0.0703125,0.1054687 0.12890625,0.1054687 0.09375,0 0.10546875,-0.058594 0.140625,-0.1757812 0.1875,-0.65625 0.55078123,-1.0898438 0.92578123,-1.0898438 0.1757813,0 0.2109375,0.1171875 0.2109375,0.2929688 0,0.1523437 -0.035156,0.3164062 -0.1171875,0.5273437 -0.4335937,1.1484375 -0.5273437,1.4882813 -0.5273437,1.8632813 0,1.01953125 0.8671875,1.1484375 1.3242187,1.1484375 0.3398438,0 0.6796875,-0.140625 0.9375,-0.609375 0.2695313,0.5390625 0.8320313,0.609375 1.1601563,0.609375 0.6445312,0 1.03125,-0.45703125 1.3125,-1.0546875 0.2578125,-0.5273438 0.5976562,-1.8046875 0.5976562,-2.34375 0,-0.6328125 -0.328125,-0.6679688 -0.4101562,-0.6679688 -0.2226563,0 -0.4570313,0.2460938 -0.4570313,0.4453125 0,0.140625 0.082031,0.2109375 0.140625,0.2695313 0.2460938,0.2226562 0.328125,0.5039062 0.328125,0.7382812 0,0.2695313 -0.2226562,1.0898438 -0.4921875,1.61718755 -0.1992187,0.38671875 -0.5039062,0.7734375 -0.984375,0.7734375 -0.6796875,0 -0.6796875,-0.62109375 -0.6796875,-0.78515625 0,-0.2460938 0.046875,-0.4335938 0.1289063,-0.75 z m 0,0"
         style="fill:#b3b3b3;fill-opacity:1;fill-rule:nonzero;stroke:none" />
      <path
         id="path21"
         d="M 8.7495,-2.7999688 C 8.7495,-2.97575 8.726063,-2.97575 8.5502812,-2.97575 c -0.3984375,0.375 -1.0078125,0.375 -1.21875,0.375 v 0.234375 c 0.1523438,0 0.5507813,0 0.9023438,-0.1640625 V 0.493 c 0,0.1875 0,0.26953125 -0.609375,0.26953125 H 7.3666875 v 0.234375 c 0.328125,-0.0234375 0.796875,-0.0234375 1.125,-0.0234375 0.3398437,0 0.796875,0 1.1367187,0.0234375 v -0.234375 H 9.3705937 C 8.7495,0.76253125 8.7495,0.6805 8.7495,0.493 Z m 0,0"
         style="fill:#b3b3b3;fill-opacity:1;fill-rule:nonzero;stroke:none" />
    </g>
    <path
       id="path22"
       d="M 14.5719,42.5202 H 65.49191"
       style="fill:none;stroke:#b3b3b3;stroke-width:0.49814;stroke-linecap:butt;stroke-linejoin:miter;stroke-miterlimit:10;stroke-dasharray:none;stroke-opacity:1"
       transform="matrix(1.3333333,0,0,-1.3333333,27.752,132.81467)" />
    <path
       id="path23"
       d="M 2.14195,0 -1.28517,1.71356 0,0 -1.28517,-1.71356"
       style="fill:#b3b3b3;fill-opacity:1;fill-rule:nonzero;stroke:none"
       transform="matrix(1.3333333,0,0,-1.3333333,115.07455,76.121067)" />
    <g
       id="g23"
       aria-label="w&#10;2"
       transform="matrix(1.3333333,0,0,1.3333333,75.385333,70.034667)">
      <path
         id="path24"
         d="m 4.2783828,-3.0699453 c 0.046875,-0.1757813 0.1289063,-0.4921875 0.1289063,-0.5390625 0,-0.1054688 -0.082031,-0.2578125 -0.28125,-0.2578125 -0.1171875,0 -0.28125,0.070312 -0.3515625,0.2460937 -0.011719,0.058594 -0.4453125,1.78125 -0.5039063,2.015625 -0.046875,0.2109375 -0.082031,0.3632813 -0.082031,0.5742188 0.035156,0.22265624 -0.1054688,0.42187499 -0.234375,0.59765624 -0.1992188,0.24609375 -0.3984375,0.3046875 -0.5859375,0.3046875 -0.328125,0 -0.7382813,-0.12890625 -0.7382813,-0.80859375 0,-0.45703129 0.234375,-1.10156249 0.515625,-1.82812499 0.046875,-0.1171875 0.1054688,-0.2695313 0.1054688,-0.4453125 0,-0.4335938 -0.328125,-0.75 -0.7734375,-0.75 -0.85546879,0 -1.21875004,1.2773437 -1.21875004,1.3828125 0,0.082031 0.0703125,0.1054687 0.12890625,0.1054687 0.09375,0 0.10546875,-0.058594 0.140625,-0.1757812 0.1875,-0.65625 0.55078129,-1.0898438 0.92578129,-1.0898438 0.1757812,0 0.2109375,0.1171875 0.2109375,0.2929688 0,0.1523437 -0.035156,0.3164062 -0.1171875,0.5273437 -0.4335938,1.1484375 -0.5273438,1.4882813 -0.5273438,1.8632813 0,1.01953124 0.8671875,1.14843749 1.3242188,1.14843749 0.3398437,0 0.6796875,-0.140625 0.9375,-0.609375 0.2695312,0.5390625 0.8320312,0.609375 1.1601562,0.609375 0.6445313,0 1.03125,-0.45703125 1.3125,-1.0546875 0.2578125,-0.52734379 0.5976563,-1.80468749 0.5976563,-2.34374999 0,-0.6328125 -0.328125,-0.6679688 -0.4101563,-0.6679688 -0.2226562,0 -0.4570312,0.2460938 -0.4570312,0.4453125 0,0.140625 0.082031,0.2109375 0.140625,0.2695313 0.2460937,0.2226562 0.328125,0.5039062 0.328125,0.7382812 0,0.2695313 -0.2226563,1.0898438 -0.4921875,1.61718754 -0.1992188,0.38671875 -0.5039063,0.7734375 -0.984375,0.7734375 -0.6796875,0 -0.6796875,-0.62109375 -0.6796875,-0.78515625 0,-0.24609379 0.046875,-0.43359379 0.1289062,-0.74999999 z m 0,0"
         style="fill:#b3b3b3;fill-opacity:1;fill-rule:nonzero;stroke:none" />
      <path
         id="path25"
         d="M 9.8154922,-0.11682031 H 9.6045547 c -0.023437,0.08203125 -0.082031,0.46875 -0.1640625,0.5390625 -0.046875,0.0351563 -0.5273438,0.0351563 -0.609375,0.0351563 h -1.125 l 0.7734375,-0.62109375 c 0.1992187,-0.1640625 0.7265625,-0.5390625 0.9140625,-0.7265625 0.1757812,-0.17578134 0.421875,-0.48046884 0.421875,-0.90234384 0,-0.75 -0.6679688,-1.1835937 -1.4765625,-1.1835937 -0.7617188,0 -1.3007813,0.5039062 -1.3007813,1.0664063 0,0.3046875 0.2578125,0.3398438 0.3164063,0.3398438 0.1523437,0 0.328125,-0.1054688 0.328125,-0.3164063 0,-0.140625 -0.082031,-0.328125 -0.3398438,-0.328125 0.1289063,-0.3046875 0.5039063,-0.5273437 0.9140625,-0.5273437 0.6210938,0 0.9609375,0.46875 0.9609375,0.9492187 0,0.421875 -0.28125,0.85546874 -0.703125,1.24218749 l -1.4179687,1.3007812 c -0.058594,0.0585938 -0.058594,0.0585938 -0.058594,0.24609375 h 2.6015625 z m 0,0"
         style="fill:#b3b3b3;fill-opacity:1;fill-rule:nonzero;stroke:none" />
    </g>
    <path
       id="path26"
       d="m 13.03256,6.51617 54.5244,27.26247"
       style="fill:none;stroke:#b3b3b3;stroke-width:0.49814;stroke-linecap:butt;stroke-linejoin:miter;stroke-miterlimit:10;stroke-dasharray:none;stroke-opacity:1"
       transform="matrix(1.3333333,0,0,-1.3333333,27.752,132.81467)" />
    <path
       id="path27"
       d="M 2.14195,0 -1.28517,1.71356 0,0 -1.28517,-1.71356"
       style="fill:#b3b3b3;fill-opacity:1;fill-rule:nonzero;stroke:none"
       transform="matrix(1.19248,-0.59622667,-0.59622667,-1.19248,117.82793,87.77648)" />
    <g
       id="g27"
       aria-label="w&#10;3"
       transform="matrix(1.3333333,0,0,1.3333333,75.584,99.225333)">
      <path
         id="path28"
         d="m 4.2787969,-3.0693906 c 0.046875,-0.1757813 0.1289062,-0.4921875 0.1289062,-0.5390625 0,-0.1054688 -0.082031,-0.2578125 -0.28125,-0.2578125 -0.1171875,0 -0.28125,0.070312 -0.3515625,0.2460937 -0.011719,0.058594 -0.4453125,1.78125 -0.5039062,2.015625 -0.046875,0.2109375 -0.082031,0.3632813 -0.082031,0.5742188 0.035156,0.22265623 -0.1054687,0.42187498 -0.234375,0.59765623 -0.1992187,0.24609375 -0.3984375,0.3046875 -0.5859375,0.3046875 -0.328125,0 -0.7382812,-0.12890625 -0.7382812,-0.80859375 0,-0.45703128 0.234375,-1.10156248 0.515625,-1.82812498 0.046875,-0.1171875 0.1054687,-0.2695313 0.1054687,-0.4453125 0,-0.4335938 -0.328125,-0.75 -0.7734375,-0.75 -0.85546873,0 -1.21874998,1.2773437 -1.21874998,1.3828125 0,0.082031 0.0703125,0.1054687 0.12890625,0.1054687 0.09375,0 0.10546875,-0.058594 0.140625,-0.1757812 0.1875,-0.65625 0.55078123,-1.0898438 0.92578123,-1.0898438 0.1757813,0 0.2109375,0.1171875 0.2109375,0.2929688 0,0.1523437 -0.035156,0.3164062 -0.1171875,0.5273437 -0.4335937,1.1484375 -0.5273437,1.4882813 -0.5273437,1.8632813 0,1.01953123 0.8671875,1.14843748 1.3242187,1.14843748 0.3398438,0 0.6796875,-0.140625 0.9375,-0.609375 0.2695313,0.5390625 0.8320313,0.609375 1.1601563,0.609375 0.6445312,0 1.03125,-0.45703125 1.3125,-1.0546875 0.2578125,-0.52734378 0.5976562,-1.80468748 0.5976562,-2.34374998 0,-0.6328125 -0.328125,-0.6679688 -0.4101562,-0.6679688 -0.2226563,0 -0.4570313,0.2460938 -0.4570313,0.4453125 0,0.140625 0.082031,0.2109375 0.140625,0.2695313 0.2460938,0.2226562 0.328125,0.5039062 0.328125,0.7382812 0,0.2695313 -0.2226562,1.0898438 -0.4921875,1.61718753 -0.1992187,0.38671875 -0.5039062,0.7734375 -0.984375,0.7734375 -0.6796875,0 -0.6796875,-0.62109375 -0.6796875,-0.78515625 0,-0.24609378 0.046875,-0.43359378 0.1289063,-0.74999998 z m 0,0"
         style="fill:#b3b3b3;fill-opacity:1;fill-rule:nonzero;stroke:none" />
      <path
         id="path29"
         d="m 8.3627812,-0.98345312 c 0.5039063,0 0.84375,0.33984375 0.84375,0.94921875 0,0.65625 -0.3867187,0.9375 -0.8320312,0.9375 -0.1523438,0 -0.7734375,-0.0351563 -1.0429688,-0.375 0.234375,-0.0234375 0.328125,-0.1875 0.328125,-0.33984375 0,-0.2109375 -0.140625,-0.33984375 -0.3398437,-0.33984375 -0.1640625,0 -0.3398438,0.09375 -0.3398438,0.3515625 0,0.5859375 0.65625,0.92578127 1.4179688,0.92578127 0.8789062,0 1.4765625,-0.57421877 1.4765625,-1.16015627 0,-0.43359375 -0.3398438,-0.90234375 -1.0429688,-1.07812503 0.46875,-0.1523437 0.8554688,-0.5390625 0.8554688,-1.03125 0,-0.4804687 -0.5625,-0.8320312 -1.2773438,-0.8320312 -0.703125,0 -1.2421875,0.3164062 -1.2421875,0.8085937 0,0.2578125 0.1992188,0.328125 0.3164063,0.328125 0.1640625,0 0.328125,-0.1054687 0.328125,-0.3164062 0,-0.1875 -0.140625,-0.2929688 -0.2929688,-0.3164063 0.2695313,-0.3046875 0.8203125,-0.3046875 0.8671875,-0.3046875 0.3046875,0 0.6914063,0.140625 0.6914063,0.6328125 0,0.328125 -0.1875,0.9023438 -0.7851563,0.9375 -0.1054687,0.011719 -0.2695312,0.023437 -0.3164062,0.023437 -0.058594,0 -0.1289063,0.011719 -0.1289063,0.1054688 0,0.09375 0.070312,0.09375 0.1640625,0.09375 z m 0,0"
         style="fill:#b3b3b3;fill-opacity:1;fill-rule:nonzero;stroke:none" />
    </g>
    <path
       id="path30"
       d="M 11.19395,-19.01859 70.0235,30.0062"
       style="fill:none;stroke:#b3b3b3;stroke-width:0.49814;stroke-linecap:butt;stroke-linejoin:miter;stroke-miterlimit:10;stroke-dasharray:none;stroke-opacity:1"
       transform="matrix(1.3333333,0,0,-1.3333333,27.752,132.81467)" />
    <path
       id="path31"
       d="M 2.14195,0 -1.28517,1.71356 0,0 -1.28517,-1.71356"
       style="fill:#b3b3b3;fill-opacity:1;fill-rule:nonzero;stroke:none"
       transform="matrix(1.0242533,-0.85353333,-0.85353333,-1.0242533,121.11664,92.8064)" />
    <path
       id="path32"
       d="m 1.6165703,-2.8590703 c 0,-0.1757813 0,-0.1757813 0.1054688,-0.328125 0.3046875,-0.4101563 0.7382812,-0.5507813 1.078125,-0.5507813 0.3867187,0 0.75,0.2109375 0.984375,0.5859375 0.234375,0.3867188 0.2460937,0.9257813 0.2460937,1.2070313 0,0.421875 -0.046875,0.890625 -0.28125,1.25390624 -0.1992187,0.29296875 -0.5625,0.5625 -1.0429687,0.5625 -0.3984375,0 -0.7382813,-0.2109375 -0.9609375,-0.5390625 -0.1289063,-0.1875 -0.1289063,-0.19921875 -0.1289063,-0.37500004 z m -0.070312,2.30859374 c 0.2695313,0.3984375 0.7265625,0.64453125 1.2070313,0.64453125 1.0664062,0 2.0507812,-0.85546875 2.0507812,-2.02734379 0,-1.125 -0.890625,-2.0273437 -1.9570312,-2.0273437 -0.6210938,0 -1.03125,0.3164062 -1.2539063,0.5507812 v -2.8125 l -1.32421874,0.1054688 v 0.2695312 c 0.609375,0 0.69140625,0.070312 0.69140625,0.5039063 V 3.046875e-4 H 1.2064141 Z m 5.2265625,-3.41015624 -1.2890625,0.09375 v 0.28125 c 0.5742188,0 0.6445313,0.058594 0.6445313,0.4921875 v 2.40234374 c 0,0.41015625 -0.09375,0.41015625 -0.6796875,0.41015625 V 3.046875e-4 C 5.8470391,-0.02313281 6.0345391,-0.02313281 6.4329766,-0.02313281 c 0.140625,0 0.515625,0 0.9609375,0.0234374975 V -0.28094531 c -0.5859375,0 -0.6210938,-0.046875 -0.6210938,-0.38671875 z m 0.023437,-1.5585938 c 0,-0.2695312 -0.2109375,-0.4921875 -0.4804687,-0.4921875 -0.28125,0 -0.4921875,0.234375 -0.4921875,0.4921875 0,0.2578125 0.2109375,0.4804688 0.4921875,0.4804688 0.2695312,0 0.4804687,-0.2109375 0.4804687,-0.4804688 z m 3.9550782,4.87500004 c 0.03516,0.375 0.304687,0.703125 0.691406,0.703125 0.222656,0 0.785156,-0.140625 0.785156,-0.85546875 V -1.3004766 h -0.257812 v 0.49218754 c 0,0.10546875 0,0.55078125 -0.316406,0.55078125 -0.328125,0 -0.328125,-0.43359375 -0.328125,-0.57421875 V -2.4020391 c 0,-0.515625 0,-0.8203125 -0.398438,-1.1835937 -0.328125,-0.2929688 -0.761719,-0.4335938 -1.2070311,-0.4335938 -0.7617187,0 -1.3828125,0.375 -1.3828125,0.9492188 0,0.28125 0.1875,0.4335937 0.421875,0.4335937 0.234375,0 0.4101563,-0.1757812 0.4101563,-0.4101562 0,-0.3867188 -0.3984375,-0.4335938 -0.3984375,-0.4335938 0.234375,-0.234375 0.6679687,-0.3164062 0.9257812,-0.3164062 0.4570316,0 0.9726566,0.3398437 0.9726566,1.1367187 v 0.2929688 c -0.492188,0.023437 -1.1601566,0.058594 -1.7578128,0.3515625 -0.6445313,0.3164062 -0.84375,0.7734375 -0.84375,1.13671874 0,0.73828125 0.8671875,0.97265625 1.4648437,0.97265625 0.7500001,0 1.0898441,-0.4921875 1.2187501,-0.73828125 z m -0.08203,-0.62109374 c 0,0.86718749 -0.6796878,1.13671874 -1.0664066,1.13671874 -0.421875,0 -0.8203125,-0.3046875 -0.8203125,-0.75 0,-0.58593754 0.515625,-1.21875004 1.8867191,-1.27734374 z m 3.269531,-2.6953125 -1.289063,0.09375 v 0.28125 c 0.574219,0 0.644532,0.058594 0.644532,0.4921875 v 2.40234374 c 0,0.41015625 -0.09375,0.41015625 -0.679688,0.41015625 V 3.046875e-4 C 13.013055,-0.02313281 13.200555,-0.02313281 13.598992,-0.02313281 c 0.140625,0 0.515625,0 0.960938,0.0234374975 V -0.28094531 c -0.585938,0 -0.621094,-0.046875 -0.621094,-0.38671875 z m 0.02344,-1.5585938 c 0,-0.2695312 -0.210937,-0.4921875 -0.480468,-0.4921875 -0.28125,0 -0.492188,0.234375 -0.492188,0.4921875 0,0.2578125 0.210938,0.4804688 0.492188,0.4804688 0.269531,0 0.480468,-0.2109375 0.480468,-0.4804688 z m 3.966797,1.734375 c 0,-0.1523437 0,-0.234375 -0.105468,-0.234375 -0.04687,0 -0.05859,0 -0.175782,0.1054688 -0.02344,0.023437 -0.105468,0.1054687 -0.152343,0.1523437 -0.28125,-0.1992187 -0.5625,-0.2578125 -0.867188,-0.2578125 -1.183594,0 -1.476562,0.65625 -1.476562,1.1132813 0,0.2929687 0.128906,0.5273437 0.328125,0.7148437 0.304687,0.28125 0.644531,0.3398438 1.101562,0.421875 0.457031,0.09375 0.609375,0.1171875 0.808594,0.2695313 0.09375,0.070312 0.316406,0.2460937 0.316406,0.58593749 0,0.78515625 -0.902344,0.78515625 -1.03125,0.78515625 -0.914062,0 -1.148437,-0.76171875 -1.253906,-1.24218754 -0.02344,-0.09375 -0.03516,-0.140625 -0.140625,-0.140625 -0.128906,0 -0.128906,0.070312 -0.128906,0.234375 v 1.14843754 c 0,0.15234375 0,0.22265625 0.105468,0.22265625 0.05859,0 0.07031,0 0.222657,-0.17578125 0.03516,-0.046875 0.140625,-0.1640625 0.1875,-0.2109375 0.375,0.36328125 0.785156,0.38671875 1.007812,0.38671875 1.101563,0 1.488281,-0.64453125 1.488281,-1.24218749 0,-0.3984375 -0.175781,-0.6445313 -0.375,-0.8554688 -0.304687,-0.2929687 -0.632812,-0.3515625 -1.289062,-0.4804687 -0.234375,-0.046875 -0.890625,-0.1640625 -0.890625,-0.6679688 0,-0.2929687 0.210937,-0.6679687 1.019531,-0.6679687 0.972656,0 1.03125,0.75 1.054688,0.9726562 0.01172,0.1054688 0.01172,0.1640625 0.117187,0.1640625 0.128906,0 0.128906,-0.070312 0.128906,-0.234375 z m 0,0"
       style="fill:#b3b3b3;fill-opacity:1;fill-rule:nonzero;stroke:none"
       aria-label="biais"
       transform="matrix(1.3333333,0,0,1.3333333,53.590667,119.816)" />
    <path
       id="path33"
       d="m 102.44698,42.5202 h 39.58123"
       style="fill:none;stroke:#b3b3b3;stroke-width:0.49814;stroke-linecap:butt;stroke-linejoin:miter;stroke-miterlimit:10;stroke-dasharray:none;stroke-opacity:1"
       transform="matrix(1.3333333,0,0,-1.3333333,27.752,132.81467)" />
    <path
       id="path34"
       d="M 2.14195,0 -1.28517,1.71356 0,0 -1.28517,-1.71356"
       style="fill:#b3b3b3;fill-opacity:1;fill-rule:nonzero;stroke:none"
       transform="matrix(1.3333333,0,0,-1.3333333,217.12295,76.121067)" />
    <path
       id="path35"
       d="m 195.99153,42.5202 h 42.41589"
       style="fill:none;stroke:#b3b3b3;stroke-width:0.49814;stroke-linecap:butt;stroke-linejoin:miter;stroke-miterlimit:10;stroke-dasharray:none;stroke-opacity:1"
       transform="matrix(1.3333333,0,0,-1.3333333,27.752,132.81467)" />
    <path
       id="path36"
       d="M 2.14195,0 -1.28517,1.71356 0,0 -1.28517,-1.71356"
       style="fill:#b3b3b3;fill-opacity:1;fill-rule:nonzero;stroke:none"
       transform="matrix(1.3333333,0,0,-1.3333333,345.62856,76.121067)" />
    <path
       id="path37"
       d="M 6.6555859,-2.4736406 H 6.1985547 c -0.1875,1.1484375 -0.3867188,2.03906248 -2.1328125,2.03906248 H 2.6477734 V -2.9423906 h 0.515625 c 0.8789063,0 0.9726563,0.3984375 0.9726563,1.0546875 H 4.5930859 V -4.4306719 H 4.1360547 c 0,0.65625 -0.082031,1.0546875 -0.9726563,1.0546875 h -0.515625 v -2.2851562 h 1.4179688 c 1.4179687,0 1.6992187,0.6210937 1.8398437,1.7460937 h 0.4570313 l -0.28125,-2.1796875 H 0.37433594 v 0.4335938 H 1.3469922 v 5.22656248 H 0.37433594 V -9.84375e-4 H 6.2337109 Z m 5.3466801,-0.2578125 c 0,-1.0664063 -0.644532,-1.3007813 -1.429688,-1.3007813 -1.1015624,0 -1.5351561,0.8085938 -1.6054686,0.9375 v -0.9375 l -1.5585938,0.070312 v 0.4335938 c 0.5390625,0 0.609375,0 0.609375,0.3515625 v 2.74218748 H 7.4085156 V -9.84375e-4 C 8.0764844,-0.02442187 8.1819531,-0.02442187 8.5452344,-0.02442187 c 0.3632812,0 0.4570312,0 1.1367187,0.023437495 V -0.43457812 H 9.0725781 V -2.2744219 c 0,-1.0078125 0.8203125,-1.40625 1.3593749,-1.40625 0.339844,0 0.515625,0.1875 0.515625,0.8671875 v 2.37890628 h -0.609375 v 0.433593745 c 0.667969,-0.023437495 0.773438,-0.023437495 1.136719,-0.023437495 0.363281,0 0.457031,0 1.136719,0.023437495 V -0.43457812 h -0.609375 z m 2.563476,-0.8085938 h 1.347656 v -0.4453125 h -1.347656 v -1.7109375 h -0.457031 c -0.01172,0.84375 -0.433594,1.7695313 -1.347656,1.7929688 v 0.3632812 h 0.75 v 2.4375 c 0,1.01953128 0.890625,1.16015628 1.441406,1.16015628 0.703125,0 1.136719,-0.50390625 1.136719,-1.16015628 v -0.4804687 h -0.457032 v 0.4570312 c 0,0.63281253 -0.328125,0.79687503 -0.550781,0.79687503 -0.515625,0 -0.515625,-0.5390625 -0.515625,-0.76171873 z m 4.089844,1.5820313 c 0,-0.65625 0.246094,-1.6875 1.113281,-1.7226563 -0.09375,0.1054688 -0.140625,0.2578125 -0.140625,0.3984375 0,0.3984375 0.316406,0.5742188 0.5625,0.5742188 0.292969,0 0.574219,-0.1992188 0.574219,-0.5742188 0,-0.4570312 -0.46875,-0.75 -0.996094,-0.75 -0.621094,0 -1.007812,0.4570313 -1.207031,0.9726563 h -0.01172 v -0.9726563 l -1.5,0.070312 v 0.4335938 c 0.539063,0 0.609375,0 0.609375,0.3515625 v 2.74218748 h -0.609375 v 0.433593745 c 0.667969,-0.023437495 0.726563,-0.023437495 1.148438,-0.023437495 0.222656,0 0.75,0 1.21875,0.023437495 V -0.43457812 h -0.761719 z m 6.073242,-3.3046875 c 0.128906,-0.058594 0.339844,-0.1757813 0.339844,-0.4804688 0,-0.3046875 -0.269531,-0.5742187 -0.539063,-0.5742187 -0.222656,0 -0.304687,0.1054687 -0.5625,0.3867187 -0.199218,0.2226563 -0.703125,0.796875 -0.925781,1.0195313 l 0.28125,0.3632812 z m 0.597656,3.3398437 c 0.1875,0 0.292969,0 0.292969,-0.2578125 0,-0.1992187 -0.01172,-0.984375 -0.597656,-1.4648437 -0.398438,-0.3398438 -0.9375,-0.421875 -1.382813,-0.421875 -1.523437,0 -2.285156,0.9726562 -2.285156,2.0507812 0,1.17187503 0.890625,2.07421878 2.414063,2.07421878 1.476562,0 1.851562,-0.94921875 1.851562,-1.10156248 0,-0.1757813 -0.175781,-0.1757813 -0.234375,-0.1757813 -0.152344,0 -0.175781,0.058594 -0.222656,0.1757813 -0.210938,0.46874998 -0.761719,0.71484373 -1.324219,0.71484373 -1.265625,0 -1.289062,-1.16015623 -1.289062,-1.59375003 z m -2.777343,-0.328125 c 0.02344,-0.4101562 0.05859,-1.453125 1.089843,-1.453125 1.054688,0 1.089844,1.0898438 1.101563,1.453125 z m 7.646484,0.328125 c 0.1875,0 0.292969,0 0.292969,-0.2578125 0,-0.1992187 -0.01172,-0.984375 -0.597657,-1.4648437 -0.398437,-0.3398438 -0.9375,-0.421875 -1.382812,-0.421875 -1.523438,0 -2.285156,0.9726562 -2.285156,2.0507812 0,1.17187503 0.890625,2.07421878 2.414062,2.07421878 1.476563,0 1.851563,-0.94921875 1.851563,-1.10156248 0,-0.1757813 -0.175782,-0.1757813 -0.234375,-0.1757813 -0.152344,0 -0.175782,0.058594 -0.222657,0.1757813 -0.210937,0.46874998 -0.761718,0.71484373 -1.324218,0.71484373 -1.265625,0 -1.289063,-1.16015623 -1.289063,-1.59375003 z m -2.777344,-0.328125 c 0.02344,-0.4101562 0.05859,-1.453125 1.089844,-1.453125 1.054687,0 1.089844,1.0898438 1.101562,1.453125 z m 6.94336,-1.546875 c 0,-0.1640625 0,-0.2695312 -0.1875,-0.2695312 -0.08203,0 -0.222657,0.082031 -0.386719,0.1640625 -0.292969,-0.1171875 -0.644531,-0.1640625 -0.9375,-0.1640625 -0.28125,0 -1.699219,0 -1.699219,1.1835937 0,0.9492188 1.171875,1.1484375 1.488281,1.1953125 0.738282,0.1289063 1.324219,0.2226563 1.324219,0.73828128 0,0.64453125 -0.84375,0.64453125 -1.042969,0.64453125 -0.457031,0 -1.03125,-0.1171875 -1.300781,-0.93750003 -0.03516,-0.1523437 -0.04687,-0.1875 -0.234375,-0.1875 -0.234375,0 -0.234375,0.058594 -0.234375,0.2695313 v 0.94921873 c 0,0.1640625 0,0.26953125 0.175781,0.26953125 0.05859,0 0.08203,0 0.28125,-0.12890625 l 0.246094,-0.15234375 c 0.410156,0.28125 0.890625,0.28125 1.066406,0.28125 0.269532,0 1.710938,0 1.710938,-1.31249998 0,-0.4570313 -0.269531,-0.75 -0.421875,-0.8789063 -0.410156,-0.3398437 -0.691406,-0.3867187 -1.40625,-0.5039062 -0.421875,-0.070312 -0.996094,-0.1640625 -0.996094,-0.5625 0,-0.5390625 0.84375,-0.5390625 1.03125,-0.5390625 1.007813,0 1.042969,0.5273437 1.066406,0.7734375 0,0.1171875 0.128907,0.1171875 0.222657,0.1171875 0.222656,0 0.234375,-0.035156 0.234375,-0.2578125 z m 0,0"
       style="fill:#4c4cff;fill-opacity:1;fill-rule:nonzero;stroke:none"
       aria-label="Entr´ees"
       transform="matrix(1.3333333,0,0,1.3333333,4.4266667,212.556)" />
    <path
       id="path38"
       d="m 2.4136016,-3.9835156 c -0.9023438,-0.1992188 -0.9375,-0.8085938 -0.9375,-0.9257813 0,-0.421875 0.28125,-0.9492187 1.1835937,-0.9492187 1.4179688,0 1.7695313,0.9726562 1.8632813,1.5703125 0.035156,0.140625 0.035156,0.1875 0.234375,0.1875 0.2226562,0 0.234375,-0.046875 0.234375,-0.2695313 v -1.6289062 c 0,-0.1640625 0,-0.2578125 -0.1757813,-0.2578125 -0.082031,0 -0.09375,0.011719 -0.1992187,0.1054687 l -0.3984375,0.3867188 c -0.5039063,-0.3984375 -1.078125,-0.4921875 -1.5703125,-0.4921875 -1.4296875,0 -2.06250004,0.9023437 -2.06250004,1.8046875 0,0.6445312 0.375,1.0546875 0.45703124,1.1484375 0.4921875,0.4921875 0.7851563,0.5507812 1.7226563,0.75 0.140625,0.023437 0.28125,0.058594 0.421875,0.09375 0.5273437,0.1054687 0.6796875,0.1289062 0.9726562,0.4335937 0.011719,0.023437 0.2460938,0.2578125 0.2460938,0.65625 0,0.1757813 -0.058594,1.04296878 -1.21875,1.04296878 -0.5390625,0 -2.0625,-0.10546875 -2.1328125,-1.49999998 -0.011719,-0.1640625 -0.011719,-0.2109375 -0.23437504,-0.2109375 -0.234375,0 -0.234375,0.046875 -0.234375,0.2695312 v 1.61718753 c 0,0.1640625 0,0.2578125 0.1875,0.2578125 0.0703125,0 0.0820313,0 0.1640625,-0.08203125 0.0585938,-0.03515625 0.25781254,-0.2578125 0.42187504,-0.3984375 0.5507812,0.3984375 1.3476562,0.48046875 1.8398437,0.48046875 1.5117188,0 2.0859375,-0.99609375 2.0859375,-1.92187503 0,-0.9726562 -0.7265625,-1.7109375 -1.5703125,-1.8984375 z m 8.4843754,2.0273437 c 0,-1.171875 -0.832032,-2.109375 -2.3554692,-2.109375 -1.5703125,0 -2.3554687,0.984375 -2.3554687,2.109375 0,1.11328128 0.8085937,2.01562503 2.3554687,2.01562503 1.6054692,0 2.3554692,-0.94921875 2.3554692,-2.01562503 z m -2.3554692,1.62890628 c -1.1601562,0 -1.1601562,-0.94921878 -1.1601562,-1.72265628 0,-0.75 0,-1.6523437 1.1601562,-1.6523437 1.1601563,0 1.1601563,0.9023437 1.1601563,1.6523437 0,0.7734375 0,1.72265628 -1.1601563,1.72265628 z M 19.191922,-2.7296094 c 0,-1.0664062 -0.644531,-1.3007812 -1.429688,-1.3007812 -0.9375,0 -1.394531,0.5625 -1.558593,0.84375 -0.199219,-0.8085938 -0.984375,-0.84375 -1.382813,-0.84375 -1.113281,0 -1.546875,0.8085937 -1.617187,0.9375 v -0.9375 l -1.558594,0.070312 v 0.4335937 c 0.539062,0 0.609375,0 0.609375,0.3515625 v 2.74218753 H 11.645047 V 8.59375e-4 c 0.667969,-0.023437495 0.773437,-0.023437495 1.136719,-0.023437495 0.363281,0 0.457031,0 1.136718,0.023437495 V -0.43273437 H 13.309109 V -2.2725781 c 0,-0.9960938 0.820313,-1.40625 1.359375,-1.40625 0.339844,0 0.527344,0.1875 0.527344,0.8671875 v 2.37890623 H 14.586453 V 8.59375e-4 c 0.667969,-0.023437495 0.773438,-0.023437495 1.136719,-0.023437495 0.363281,0 0.457031,0 1.136719,0.023437495 V -0.43273437 H 16.250516 V -2.2725781 c 0,-0.9960938 0.820312,-1.40625 1.359375,-1.40625 0.339843,0 0.527343,0.1875 0.527343,0.8671875 v 2.37890623 H 17.527859 V 8.59375e-4 c 0.667969,-0.023437495 0.773438,-0.023437495 1.125,-0.023437495 0.375,0 0.457032,0 1.148438,0.023437495 V -0.43273437 h -0.609375 z m 8.841797,0 c 0,-1.0664062 -0.644532,-1.3007812 -1.429688,-1.3007812 -0.9375,0 -1.394531,0.5625 -1.558594,0.84375 -0.199218,-0.8085938 -0.984375,-0.84375 -1.382812,-0.84375 -1.113281,0 -1.546875,0.8085937 -1.617188,0.9375 v -0.9375 l -1.558593,0.070312 v 0.4335937 c 0.539062,0 0.609375,0 0.609375,0.3515625 v 2.74218753 H 20.486844 V 8.59375e-4 c 0.667968,-0.023437495 0.773437,-0.023437495 1.136718,-0.023437495 0.363282,0 0.457032,0 1.136719,0.023437495 V -0.43273437 H 22.150906 V -2.2725781 c 0,-0.9960938 0.820313,-1.40625 1.359375,-1.40625 0.339844,0 0.527344,0.1875 0.527344,0.8671875 v 2.37890623 H 23.42825 V 8.59375e-4 c 0.667969,-0.023437495 0.773437,-0.023437495 1.136719,-0.023437495 0.363281,0 0.457031,0 1.136718,0.023437495 V -0.43273437 H 25.092312 V -2.2725781 c 0,-0.9960938 0.820313,-1.40625 1.359375,-1.40625 0.339844,0 0.527344,0.1875 0.527344,0.8671875 v 2.37890623 H 26.369656 V 8.59375e-4 c 0.667969,-0.023437495 0.773438,-0.023437495 1.125,-0.023437495 0.375,0 0.457031,0 1.148438,0.023437495 V -0.43273437 h -0.609375 z m 5.115234,0.8085938 c 0.1875,0 0.292969,0 0.292969,-0.2578125 0,-0.1992188 -0.01172,-0.984375 -0.597656,-1.4648438 -0.398438,-0.3398437 -0.9375,-0.421875 -1.382813,-0.421875 -1.523437,0 -2.285156,0.9726563 -2.285156,2.0507813 0,1.17187498 0.890625,2.07421873 2.414062,2.07421873 1.476563,0 1.851563,-0.94921875 1.851563,-1.10156253 0,-0.1757812 -0.175781,-0.1757812 -0.234375,-0.1757812 -0.152344,0 -0.175781,0.058594 -0.222656,0.1757812 -0.210938,0.46875003 -0.761719,0.71484378 -1.324219,0.71484378 -1.265625,0 -1.289063,-1.16015628 -1.289063,-1.59374998 z m -2.777344,-0.328125 c 0.02344,-0.4101563 0.05859,-1.453125 1.089844,-1.453125 1.054688,0 1.089844,1.0898437 1.101563,1.453125 z m 0,0"
       style="fill:#cc3366;fill-opacity:1;fill-rule:nonzero;stroke:none"
       aria-label="Somme"
       transform="matrix(1.3333333,0,0,1.3333333,118.63733,212.50667)" />
    <path
       id="path39"
       d="m 4.3949219,-6.0361406 c -0.1054688,-0.234375 -0.234375,-0.234375 -0.3984375,-0.234375 -0.1640625,0 -0.2929688,0 -0.3867188,0.234375 l -2.2734375,5.39062498 c -0.058594,0.140625 -0.058594,0.15234375 -0.28125,0.17578125 -0.16406248,0.0234375 -0.32812498,0.0351563 -0.48046873,0.0351563 h -0.1875 V -9.84375e-4 C 0.89101562,-0.02442187 1.0082031,-0.02442187 1.4769531,-0.02442187 c 0.3515625,0 0.6445313,0 1.1953125,0.023437495 V -0.43457812 c -0.2460937,0 -0.5507812,0 -0.796875,-0.10546875 L 2.3675781,-1.7236406 h 2.484375 l 0.5390625,1.28906248 h -0.84375 v 0.433593745 c 0.3164063,-0.023437495 1.21875,-0.023437495 1.5820313,-0.023437495 0.375,0 1.1367187,0 1.4765625,0.023437495 V -0.43457812 H 6.7386719 Z m -0.7851563,1.359375 1.0546875,2.5195312 h -2.109375 z m 8.8037114,3.6328125 c 0,-0.140625 -0.128907,-0.140625 -0.234375,-0.140625 -0.175782,0 -0.175782,0.011719 -0.246094,0.1757812 -0.175781,0.42187503 -0.585938,0.67968753 -1.113281,0.67968753 -1.2656254,0 -1.2656254,-1.28906253 -1.2656254,-1.69921873 0,-0.5390625 0,-1.6523438 1.1835934,-1.6523438 0.05859,0 0.539063,0.011719 0.539063,0.058594 0,0.011719 -0.01172,0.035156 -0.02344,0.046875 -0.08203,0.09375 -0.117187,0.234375 -0.117187,0.3632812 0,0.3632813 0.28125,0.5859375 0.585937,0.5859375 0.269532,0 0.574219,-0.1875 0.574219,-0.5976562 0,-0.84375 -1.253906,-0.84375 -1.605469,-0.84375 -1.7109372,0 -2.3320309,1.1015625 -2.3320309,2.0742187 0,1.13671878 0.8085937,2.05078128 2.2968749,2.05078128 0.328125,0 0.761719,-0.058593755 1.148438,-0.29296875 0.503906,-0.31640625 0.609375,-0.77343753 0.609375,-0.80859373 z M 14.725,-3.5400469 h 1.347656 V -3.9853594 H 14.725 v -1.7109375 h -0.457031 c -0.01172,0.84375 -0.433594,1.7695313 -1.347657,1.7929688 v 0.3632812 h 0.75 v 2.4375 c 0,1.01953128 0.890625,1.16015628 1.441407,1.16015628 0.703125,0 1.136718,-0.50390625 1.136718,-1.16015628 v -0.4804687 h -0.457031 v 0.4570312 c 0,0.63281253 -0.328125,0.79687503 -0.550781,0.79687503 -0.515625,0 -0.515625,-0.5390625 -0.515625,-0.76171873 z m 4.280273,-1.9804687 c 0,-0.46875 -0.386718,-0.7148438 -0.703125,-0.7148438 -0.410156,0 -0.714843,0.3515625 -0.714843,0.703125 0,0.375 0.316406,0.703125 0.714843,0.703125 0.339844,0 0.703125,-0.2695312 0.703125,-0.6914062 z m -1.664062,1.5585937 v 0.4335938 c 0.515625,0 0.585937,0 0.585937,0.3515625 v 2.74218748 h -0.609375 v 0.433593745 c 0.597657,-0.023437495 0.714844,-0.023437495 1.089844,-0.023437495 0.445313,0 0.5625,0 1.054688,0.023437495 V -0.43457812 H 18.923242 V -4.0322344 Z m 7.142578,0.609375 c 0.05859,-0.1289062 0.09375,-0.1875 0.65625,-0.1875 v -0.4453125 c -0.246094,0.035156 -0.480469,0.035156 -0.726562,0.035156 -0.257813,0 -0.550782,0 -0.808594,-0.035156 v 0.4453125 c 0.257812,0 0.328125,0.046875 0.410156,0.082031 0,0.035156 0,0.046875 -0.04687,0.1171875 l -1.078125,2.2382812 -1.171875,-2.4375 H 22.1752 v -0.4453125 c -0.585937,0.023437 -0.761718,0.035156 -1.101562,0.035156 -0.316406,0 -0.492188,0 -1.03125,-0.035156 v 0.4453125 h 0.574219 l 1.605468,3.32812503 c 0.07031,0.17578125 0.152344,0.2578125 0.375,0.2578125 0.222657,0 0.292969,-0.08203125 0.375,-0.2578125 z m 4.655273,0.6796875 c 0,-0.7851562 -0.644531,-1.3945312 -2.027343,-1.3945312 -0.503907,0 -1.652344,0.023437 -1.652344,0.84375 0,0.4101562 0.304687,0.5976562 0.585937,0.5976562 0.304688,0 0.574219,-0.2226562 0.574219,-0.5859375 0,-0.2578125 -0.152344,-0.4101562 -0.175781,-0.4335937 0.09375,-0.023437 0.304687,-0.058594 0.632812,-0.058594 0.644532,0 1.019532,0.328125 1.019532,1.03125 v 0.2929688 c -1.488282,0 -3,0.375 -3,1.3710937 0,0.89062503 1.125,1.06640628 1.769531,1.06640628 0.679687,0 1.148437,-0.3046875 1.394531,-0.7265625 0,0.234375 0,0.667968745 0.949219,0.667968745 h 0.445312 c 0.164063,0 0.292969,0 0.292969,-0.222656245 0,-0.2109375 -0.140625,-0.2109375 -0.234375,-0.2109375 -0.574219,-0.0117188 -0.574219,-0.10546875 -0.574219,-0.31640625 z m -1.042968,1.4296875 c 0,0.93750003 -1.042969,0.93750003 -1.078125,0.93750003 -0.457032,0 -0.832032,-0.29296875 -0.832032,-0.70312503 0,-0.2929687 0.164063,-0.9960937 1.910157,-1.0664062 z m 3.867187,-2.296875 h 1.347656 V -3.9853594 H 31.963281 V -5.6962969 H 31.50625 c -0.01172,0.84375 -0.433594,1.7695313 -1.347656,1.7929688 v 0.3632812 h 0.75 v 2.4375 c 0,1.01953128 0.890625,1.16015628 1.441406,1.16015628 0.703125,0 1.136719,-0.50390625 1.136719,-1.16015628 v -0.4804687 h -0.457032 v 0.4570312 c 0,0.63281253 -0.328125,0.79687503 -0.550781,0.79687503 -0.515625,0 -0.515625,-0.5390625 -0.515625,-0.76171873 z m 4.280274,-1.9804687 c 0,-0.46875 -0.386719,-0.7148438 -0.703125,-0.7148438 -0.410157,0 -0.714844,0.3515625 -0.714844,0.703125 0,0.375 0.316406,0.703125 0.714844,0.703125 0.339843,0 0.703125,-0.2695312 0.703125,-0.6914062 z m -1.664063,1.5585937 v 0.4335938 c 0.515625,0 0.585938,0 0.585938,0.3515625 v 2.74218748 h -0.609375 v 0.433593745 c 0.597656,-0.023437495 0.714843,-0.023437495 1.089843,-0.023437495 0.445313,0 0.5625,0 1.054688,0.023437495 V -0.43457812 H 36.161523 V -4.0322344 Z m 7.458985,2.0039063 c 0,-1.171875 -0.832032,-2.109375 -2.355469,-2.109375 -1.570313,0 -2.355469,0.984375 -2.355469,2.109375 0,1.11328123 0.808594,2.01562498 2.355469,2.01562498 1.605469,0 2.355469,-0.94921875 2.355469,-2.01562498 z m -2.355469,1.62890623 c -1.160156,0 -1.160156,-0.94921873 -1.160156,-1.72265623 0,-0.75 0,-1.6523438 1.160156,-1.6523438 1.160156,0 1.160156,0.9023438 1.160156,1.6523438 0,0.7734375 0,1.72265623 -1.160156,1.72265623 z m 7.696289,-2.40234373 c 0,-1.0664063 -0.644531,-1.3007813 -1.429688,-1.3007813 -1.101562,0 -1.535156,0.8085938 -1.605468,0.9375 v -0.9375 l -1.558594,0.070312 v 0.4335938 c 0.539062,0 0.609375,0 0.609375,0.3515625 v 2.74218748 h -0.609375 v 0.433593745 c 0.667969,-0.023437495 0.773437,-0.023437495 1.136719,-0.023437495 0.363281,0 0.457031,0 1.136718,0.023437495 V -0.43457812 H 44.449609 V -2.2744219 c 0,-1.0078125 0.820313,-1.40625 1.359375,-1.40625 0.339844,0 0.515625,0.1875 0.515625,0.8671875 v 2.37890628 h -0.609375 v 0.433593745 c 0.667969,-0.023437495 0.773438,-0.023437495 1.136719,-0.023437495 0.363281,0 0.457031,0 1.136719,0.023437495 V -0.43457812 h -0.609375 z m 0,0"
       style="fill:#ffa64c;fill-opacity:1;fill-rule:nonzero;stroke:none"
       aria-label="Activation"
       transform="matrix(1.3333333,0,0,1.3333333,222.36667,212.556)" />
    <path
       id="path40"
       d="m 2.4129375,-3.9853594 c -0.9023438,-0.1992187 -0.9375,-0.8085937 -0.9375,-0.9257812 0,-0.421875 0.28125,-0.9492188 1.1835937,-0.9492188 1.4179688,0 1.7695313,0.9726563 1.8632813,1.5703125 0.035156,0.140625 0.035156,0.1875 0.234375,0.1875 0.2226562,0 0.234375,-0.046875 0.234375,-0.2695312 v -1.6289063 c 0,-0.1640625 0,-0.2578125 -0.1757813,-0.2578125 -0.082031,0 -0.09375,0.011719 -0.1992187,0.1054688 L 4.217625,-5.7666094 C 3.7137187,-6.1650469 3.1395,-6.2587969 2.6473125,-6.2587969 c -1.4296875,0 -2.0625,0.9023438 -2.0625,1.8046875 0,0.6445313 0.375,1.0546875 0.4570312,1.1484375 0.4921875,0.4921875 0.7851563,0.5507813 1.7226563,0.75 0.140625,0.023437 0.28125,0.058594 0.421875,0.09375 0.5273437,0.1054688 0.6796875,0.1289063 0.9726562,0.4335938 0.011719,0.023437 0.2460938,0.2578125 0.2460938,0.65625 0,0.1757812 -0.058594,1.04296873 -1.21875,1.04296873 -0.5390625,0 -2.0625,-0.10546875 -2.1328125,-1.50000003 -0.011719,-0.1640625 -0.011719,-0.2109375 -0.234375,-0.2109375 -0.234375,0 -0.234375,0.046875 -0.234375,0.2695313 v 1.61718748 c 0,0.1640625 0,0.2578125 0.1875,0.2578125 0.0703125,0 0.0820313,0 0.1640625,-0.08203125 0.0585938,-0.03515625 0.2578125,-0.2578125 0.421875,-0.3984375 0.5507812,0.3984375 1.3476562,0.48046875 1.8398437,0.48046875 1.5117188,0 2.0859375,-0.99609375 2.0859375,-1.92187498 0,-0.9726563 -0.7265625,-1.7109375 -1.5703125,-1.8984375 z m 8.4843745,2.0273438 c 0,-1.171875 -0.832031,-2.109375 -2.3554683,-2.109375 -1.5703125,0 -2.3554687,0.984375 -2.3554687,2.109375 0,1.11328123 0.8085937,2.01562498 2.3554687,2.01562498 1.6054683,0 2.3554683,-0.94921875 2.3554683,-2.01562498 z m -2.3554683,1.62890623 c -1.1601562,0 -1.1601562,-0.94921873 -1.1601562,-1.72265623 0,-0.75 0,-1.6523438 1.1601562,-1.6523438 1.1601563,0 1.1601563,0.9023438 1.1601563,1.6523438 0,0.7734375 0,1.72265623 -1.1601563,1.72265623 z M 13.16782,-1.9580156 c 0,-0.65625 0.246094,-1.6875 1.113282,-1.7226563 -0.09375,0.1054688 -0.140625,0.2578125 -0.140625,0.3984375 0,0.3984375 0.316406,0.5742188 0.5625,0.5742188 0.292968,0 0.574218,-0.1992188 0.574218,-0.5742188 0,-0.4570312 -0.46875,-0.75 -0.996093,-0.75 -0.621094,0 -1.007813,0.4570313 -1.207032,0.9726563 h -0.01172 v -0.9726563 l -1.5,0.070312 v 0.4335938 c 0.539062,0 0.609375,0 0.609375,0.3515625 v 2.74218748 H 11.56235 v 0.433593745 c 0.667968,-0.023437495 0.726562,-0.023437495 1.148437,-0.023437495 0.222656,0 0.75,0 1.21875,0.023437495 V -0.43457812 H 13.16782 Z m 4.41211,-1.5820313 h 1.347656 V -3.9853594 H 17.57993 v -1.7109375 h -0.457032 c -0.01172,0.84375 -0.433593,1.7695313 -1.347656,1.7929688 v 0.3632812 h 0.75 v 2.4375 c 0,1.01953128 0.890625,1.16015628 1.441406,1.16015628 0.703125,0 1.136719,-0.50390625 1.136719,-1.16015628 v -0.4804687 h -0.457031 v 0.4570312 c 0,0.63281253 -0.328125,0.79687503 -0.550781,0.79687503 -0.515625,0 -0.515625,-0.5390625 -0.515625,-0.76171873 z m 4.280273,-1.9804687 c 0,-0.46875 -0.386719,-0.7148438 -0.703125,-0.7148438 -0.410156,0 -0.714844,0.3515625 -0.714844,0.703125 0,0.375 0.316407,0.703125 0.714844,0.703125 0.339844,0 0.703125,-0.2695312 0.703125,-0.6914062 z m -1.664062,1.5585937 v 0.4335938 c 0.515625,0 0.585937,0 0.585937,0.3515625 v 2.74218748 h -0.609375 v 0.433593745 c 0.597656,-0.023437495 0.714844,-0.023437495 1.089844,-0.023437495 0.445312,0 0.5625,0 1.054687,0.023437495 V -0.43457812 H 21.778172 V -4.0322344 Z m 6.720703,2.0390625 c 0.1875,0 0.292968,0 0.292968,-0.2578125 0,-0.1992187 -0.01172,-0.984375 -0.597656,-1.4648437 -0.398437,-0.3398438 -0.9375,-0.421875 -1.382812,-0.421875 -1.523438,0 -2.285157,0.9726562 -2.285157,2.0507812 0,1.17187503 0.890625,2.07421878 2.414063,2.07421878 1.476562,0 1.851562,-0.94921875 1.851562,-1.10156248 0,-0.1757813 -0.175781,-0.1757813 -0.234375,-0.1757813 -0.152343,0 -0.175781,0.058594 -0.222656,0.1757813 -0.210937,0.46874998 -0.761719,0.71484373 -1.324219,0.71484373 -1.265625,0 -1.289062,-1.16015623 -1.289062,-1.59375003 z M 24.1395,-2.2509844 c 0.02344,-0.4101562 0.05859,-1.453125 1.089844,-1.453125 1.054687,0 1.089843,1.0898438 1.101562,1.453125 z m 0,0"
       style="fill:#66ff66;fill-opacity:1;fill-rule:nonzero;stroke:none"
       aria-label="Sortie"
       transform="matrix(1.3333333,0,0,1.3333333,349.564,212.556)" />
  </g>
</svg>
