<?xml version="1.0" encoding="UTF-8" standalone="no"?>
<!-- Created with Inkscape (http://www.inkscape.org/) -->

<svg
   version="1.1"
   id="svg1"
   width="491.34985"
   height="115.53024"
   viewBox="0 0 491.34986 115.53024"
   xmlns="http://www.w3.org/2000/svg"
   xmlns:svg="http://www.w3.org/2000/svg">
  <defs
     id="defs1" />
  <g
     id="g1"
     transform="translate(-0.66230711,-8.5585934)">
    <path
       id="path1"
       d="m 19.92555,19.92555 h -39.8511 v -39.8511 h 39.8511 z"
       style="fill:#ccccff;fill-opacity:1;fill-rule:nonzero;stroke:#000000;stroke-width:0.49814;stroke-linecap:butt;stroke-linejoin:miter;stroke-miterlimit:10;stroke-dasharray:none;stroke-opacity:1"
       transform="matrix(1.3333333,0,0,-1.3333333,151.84533,97.189333)" />
    <path
       id="path2"
       d="m 2.3384336,-4.4348867 c 0,-0.1875 -0.017578,-0.1933594 -0.2109375,-0.1933594 -0.4453125,0.4394531 -1.078125,0.4453125 -1.36523438,0.4453125 v 0.2519531 c 0.1640625,0 0.62695308,0 1.00781248,-0.1933593 v 3.55078121 c 0,0.234375 0,0.32226562 -0.6972656,0.32226562 H 0.80913672 V 6.6015625e-4 C 0.93218359,-0.00519922 1.7935117,-0.02863672 2.0513242,-0.02863672 c 0.2167969,0 1.0957031,0.0234375 1.2480469,0.0292968763 V -0.25129297 H 3.0356992 c -0.6972656,0 -0.6972656,-0.0878906 -0.6972656,-0.32226562 z m 0,0"
       style="fill:#000000;fill-opacity:1;fill-rule:nonzero;stroke:none"
       aria-label="1"
       transform="matrix(2.6666667,0,0,2.6666667,146.54933,93.369333)" />
    <path
       id="path3"
       d="M 0,0 H 3.971"
       style="fill:none;stroke:#000000;stroke-width:0.398;stroke-linecap:butt;stroke-linejoin:miter;stroke-miterlimit:10;stroke-dasharray:none;stroke-opacity:1"
       transform="matrix(2.6666667,0,0,-2.6666667,146.54933,97.188)" />
    <path
       id="path4"
       d="m 3.0058711,-2.6185703 c -0.1816406,0.041016 -0.2929688,0.1875 -0.2929688,0.3222656 0,0.1640625 0.140625,0.2285156 0.2285157,0.2285156 0.070312,0 0.3339843,-0.046875 0.3339843,-0.3984375 0,-0.4570312 -0.4980468,-0.609375 -0.9257812,-0.609375 -1.0898438,0 -1.2832031,0.8027344 -1.2832031,1.0195313 0,0.2578125 0.1464843,0.4277344 0.2460937,0.5097656 0.1816406,0.140625 0.3046875,0.1640625 0.7851563,0.2519531 0.1464843,0.023437 0.5917968,0.1113282 0.5917968,0.45703129 0,0.1171875 -0.076172,0.38671875 -0.3691406,0.55664062 -0.2695312,0.15820313 -0.609375,0.15820313 -0.6972656,0.15820313 -0.2753906,0 -0.67382813,-0.0644531 -0.83789063,-0.29296875 0.23437503,-0.0292969 0.38671873,-0.20507813 0.38671873,-0.3984375 0,-0.17578125 -0.1230469,-0.25781249 -0.26953123,-0.25781249 -0.20507813,0 -0.41015625,0.15820311 -0.41015625,0.46289061 0,0.421875 0.45117187,0.6796875 1.12499998,0.6796875 1.2832031,0 1.5234375,-0.87890625 1.5234375,-1.14843751 0,-0.6445312 -0.7089844,-0.7675781 -0.9667969,-0.8203125 -0.058594,-0.011719 -0.234375,-0.041016 -0.2753906,-0.052734 -0.2578125,-0.052734 -0.3867187,-0.1992187 -0.3867187,-0.3515625 0,-0.1582031 0.1289062,-0.3457031 0.28125,-0.4453125 0.1875,-0.1171875 0.4335937,-0.1289062 0.5507812,-0.1289062 0.1464844,0 0.5097656,0.017578 0.6621094,0.2578121 z m 0,0"
       style="fill:#000000;fill-opacity:1;fill-rule:nonzero;stroke:none"
       aria-label="s"
       transform="matrix(2.6666667,0,0,2.6666667,146.832,112.99067)" />
    <g
       id="g4"
       aria-label="v&#10;0"
       transform="matrix(2.6666667,0,0,2.6666667,139.44667,21.473333)">
      <path
         id="path5"
         d="m 4.6635547,-3.7033789 c 0,-0.5390625 -0.2636719,-0.6972656 -0.4394531,-0.6972656 -0.2519532,0 -0.4921875,0.2578125 -0.4921875,0.4746093 0,0.1289063 0.052734,0.1933594 0.1640625,0.2988282 0.2050781,0.1992187 0.3339843,0.4570312 0.3339843,0.8203125 0,0.4160156 -0.6035156,2.69531247 -1.7695312,2.69531247 -0.5097656,0 -0.7382813,-0.34570313 -0.7382813,-0.8671875 0,-0.55664067 0.2695313,-1.28320317 0.5800782,-2.10937497 0.070312,-0.1699219 0.1171875,-0.3105469 0.1171875,-0.4980469 0,-0.4453125 -0.3164063,-0.8144531 -0.8144532,-0.8144531 -0.93749996,0 -1.31835934,1.4414062 -1.31835934,1.5292968 0,0.099609 0.0996094,0.099609 0.12304688,0.099609 0.0996094,0 0.10546875,-0.017578 0.15820312,-0.1757812 0.28710938,-1.0078125 0.71484374,-1.2363282 1.00781254,-1.2363282 0.076172,0 0.2460937,0 0.2460937,0.3164063 0,0.2519531 -0.099609,0.5214844 -0.1699219,0.6972656 -0.4394531,1.1601563 -0.5683593,1.6171875 -0.5683593,2.0449219 0,1.07812499 0.8789062,1.23632812 1.3359375,1.23632812 1.6757812,0 2.2441406,-3.29882812 2.2441406,-3.81445272 z m 0,0"
         style="fill:#000000;fill-opacity:1;fill-rule:nonzero;stroke:none" />
      <path
         id="path6"
         d="m 8.4282031,-0.73121094 c 0,-0.76757816 -0.087891,-1.31835936 -0.4101562,-1.80468746 C 7.80125,-2.8581641 7.3676563,-3.1335547 6.8110156,-3.1335547 c -1.6171875,0 -1.6171875,1.9042969 -1.6171875,2.40234376 0,0.50390625 0,2.36718754 1.6171875,2.36718754 1.6171875,0 1.6171875,-1.86328129 1.6171875,-2.36718754 z M 6.8110156,1.4367578 c -0.3222656,0 -0.7441406,-0.1875 -0.8847656,-0.75585936 -0.099609,-0.41015625 -0.099609,-0.984375 -0.099609,-1.5 0,-0.50976564 0,-1.03710934 0.1054688,-1.42382814 0.1464844,-0.5507812 0.5917969,-0.6972656 0.8789062,-0.6972656 0.375,0 0.7382813,0.2285156 0.8671875,0.6328125 0.1113282,0.3808594 0.1171875,0.8789062 0.1171875,1.48828124 0,0.515625 0,1.03125 -0.09375,1.47070312 C 7.5610156,1.2844141 7.0922656,1.4367578 6.8110156,1.4367578 Z m 0,0"
         style="fill:#000000;fill-opacity:1;fill-rule:nonzero;stroke:none" />
    </g>
    <path
       id="path7"
       d="M 0,21.2556 V 46.16077"
       style="fill:none;stroke:#000000;stroke-width:0.99628;stroke-linecap:butt;stroke-linejoin:miter;stroke-miterlimit:10;stroke-dasharray:none;stroke-opacity:1"
       transform="matrix(1.3333333,0,0,-1.3333333,151.84533,97.189333)" />
    <path
       id="path8"
       d="M -1.73352,2.31136 C -1.58905,1.4446 0,0.14444 0.43336,0 0,-0.14444 -1.58905,-1.4446 -1.73352,-2.31136"
       style="fill:none;stroke:#000000;stroke-width:0.79701;stroke-linecap:round;stroke-linejoin:round;stroke-miterlimit:10;stroke-dasharray:none;stroke-opacity:1"
       transform="matrix(0,1.3333333,1.3333333,0,151.84533,68.848533)" />
    <path
       id="path9"
       d="m 161.65965,19.92555 h -39.85113 v -39.8511 h 39.85113 z"
       style="fill:#ccccff;fill-opacity:1;fill-rule:nonzero;stroke:#000000;stroke-width:0.49814;stroke-linecap:butt;stroke-linejoin:miter;stroke-miterlimit:10;stroke-dasharray:none;stroke-opacity:1"
       transform="matrix(1.3333333,0,0,-1.3333333,151.84533,97.189333)" />
    <path
       id="path10"
       d="m 2.3371797,-4.4348867 c 0,-0.1875 -0.017578,-0.1933594 -0.2109375,-0.1933594 -0.4453125,0.4394531 -1.078125,0.4453125 -1.36523439,0.4453125 v 0.2519531 c 0.1640625,0 0.62695309,0 1.00781249,-0.1933593 v 3.55078121 c 0,0.234375 0,0.32226562 -0.6972656,0.32226562 H 0.80788281 V 6.6015625e-4 C 0.93092969,-0.00519922 1.7922578,-0.02863672 2.0500703,-0.02863672 c 0.2167969,0 1.0957031,0.0234375 1.2480469,0.0292968763 V -0.25129297 H 3.0344453 c -0.6972656,0 -0.6972656,-0.0878906 -0.6972656,-0.32226562 z m 0,0"
       style="fill:#000000;fill-opacity:1;fill-rule:nonzero;stroke:none"
       aria-label="1"
       transform="matrix(2.6666667,0,0,2.6666667,335.52533,93.369333)" />
    <path
       id="path11"
       d="M 0,0 H 3.971"
       style="fill:none;stroke:#000000;stroke-width:0.398;stroke-linecap:butt;stroke-linejoin:miter;stroke-miterlimit:10;stroke-dasharray:none;stroke-opacity:1"
       transform="matrix(2.6666667,0,0,-2.6666667,335.52533,97.188)" />
    <path
       id="path12"
       d="m 3.006082,-2.6185703 c -0.1816406,0.041016 -0.2929687,0.1875 -0.2929687,0.3222656 0,0.1640625 0.140625,0.2285156 0.2285156,0.2285156 0.070312,0 0.3339844,-0.046875 0.3339844,-0.3984375 0,-0.4570312 -0.4980469,-0.609375 -0.9257813,-0.609375 -1.0898437,0 -1.2832031,0.8027344 -1.2832031,1.0195313 0,0.2578125 0.1464844,0.4277344 0.2460938,0.5097656 0.1816406,0.140625 0.3046875,0.1640625 0.7851562,0.2519531 0.1464844,0.023437 0.5917969,0.1113282 0.5917969,0.45703129 0,0.1171875 -0.076172,0.38671875 -0.3691406,0.55664062 -0.2695313,0.15820313 -0.609375,0.15820313 -0.6972657,0.15820313 -0.2753906,0 -0.67382809,-0.0644531 -0.83789059,-0.29296875 0.23437499,-0.0292969 0.38671879,-0.20507813 0.38671879,-0.3984375 0,-0.17578125 -0.1230469,-0.25781249 -0.26953129,-0.25781249 -0.20507813,0 -0.41015625,0.15820311 -0.41015625,0.46289061 0,0.421875 0.45117187,0.6796875 1.12500004,0.6796875 1.2832031,0 1.5234375,-0.87890625 1.5234375,-1.14843751 0,-0.6445312 -0.7089844,-0.7675781 -0.9667969,-0.8203125 -0.058594,-0.011719 -0.234375,-0.041016 -0.2753906,-0.052734 -0.2578125,-0.052734 -0.3867188,-0.1992187 -0.3867188,-0.3515625 0,-0.1582031 0.1289063,-0.3457031 0.28125,-0.4453125 0.1875,-0.1171875 0.4335938,-0.1289062 0.5507813,-0.1289062 0.1464843,0 0.5097656,0.017578 0.6621093,0.2578121 z m 0,0"
       style="fill:#000000;fill-opacity:1;fill-rule:nonzero;stroke:none"
       aria-label="s"
       transform="matrix(2.6666667,0,0,2.6666667,335.808,112.99067)" />
    <g
       id="g12"
       aria-label="p&#10;0"
       transform="matrix(2.6666667,0,0,2.6666667,328.17867,20.293333)">
      <path
         id="path13"
         d="m 0.44569531,1.2127539 c -0.0761719,0.3398438 -0.0996094,0.4101563 -0.53320312,0.4101563 -0.12304688,0 -0.22851563,0 -0.22851563,0.1875 0,0.082031 0.046875,0.1230468 0.12890625,0.1230468 0.26953125,0 0.55664063,-0.029297 0.83203125,-0.029297 0.33398438,0 0.66796874,0.029297 0.99023434,0.029297 0.046875,0 0.1757813,0 0.1757813,-0.1992187 0,-0.1113281 -0.099609,-0.1113281 -0.234375,-0.1113281 -0.4980469,0 -0.4980469,-0.070312 -0.4980469,-0.1582032 0,-0.1230468 0.4160156,-1.74609372 0.4863281,-1.99218747 0.1289063,0.28710938 0.4101563,0.63867188 0.9140625,0.63867188 1.1542969,0 2.4023438,-1.45312501 2.4023438,-2.91796871 0,-0.9375 -0.5683594,-1.59375 -1.3242188,-1.59375 -0.4980468,0 -0.9785156,0.3574218 -1.3066406,0.7441406 -0.099609,-0.5390625 -0.5273437,-0.7441406 -0.8964844,-0.7441406 -0.45703121,0 -0.64453121,0.3867187 -0.73828121,0.5683593 -0.17578125,0.3339844 -0.3046875,0.9316407 -0.3046875,0.9609375 0,0.099609 0.0996094,0.099609 0.1171875,0.099609 0.0996094,0 0.11132812,-0.00586 0.16992187,-0.2285156 0.16992188,-0.703125 0.36914063,-1.1835938 0.72656254,-1.1835938 0.1699218,0 0.3105468,0.082031 0.3105468,0.4570313 0,0.2285156 -0.029297,0.3398437 -0.070312,0.5097656 z M 2.2035078,-3.1056055 c 0.070312,-0.2695312 0.3339844,-0.5507812 0.515625,-0.6972656 0.3515625,-0.3105469 0.6386719,-0.3808594 0.8085938,-0.3808594 0.3984375,0 0.6386718,0.3515625 0.6386718,0.9375 0,0.5859375 -0.3339843,1.734375 -0.5097656,2.109375 -0.3398437,0.69726566 -0.8203125,1.02539066 -1.1835937,1.02539066 -0.6621094,0 -0.7910157,-0.82617188 -0.7910157,-0.88476563 0,-0.0175781 0,-0.0410156 0.029297,-0.15820313 z m 0,0"
         style="fill:#000000;fill-opacity:1;fill-rule:nonzero;stroke:none" />
      <path
         id="path14"
         d="m 8.6107344,-0.73255859 c 0,-0.76757811 -0.087891,-1.31835941 -0.4101563,-1.80468751 -0.2167968,-0.3222656 -0.6503906,-0.5976562 -1.2070312,-0.5976562 -1.6171875,0 -1.6171875,1.9042968 -1.6171875,2.40234371 0,0.50390625 0,2.36718749 1.6171875,2.36718749 1.6171875,0 1.6171875,-1.86328124 1.6171875,-2.36718749 z M 6.9935469,1.4354102 c -0.3222656,0 -0.7441406,-0.1875 -0.8847656,-0.75585942 -0.099609,-0.41015625 -0.099609,-0.984375 -0.099609,-1.5 0,-0.50976558 0,-1.03710938 0.1054687,-1.42382808 0.1464844,-0.5507813 0.5917969,-0.6972657 0.8789063,-0.6972657 0.375,0 0.7382812,0.2285157 0.8671875,0.6328125 0.1113281,0.3808594 0.1171875,0.8789063 0.1171875,1.48828128 0,0.515625 0,1.03125 -0.09375,1.47070313 C 7.7435469,1.2830664 7.2747969,1.4354102 6.9935469,1.4354102 Z m 0,0"
         style="fill:#000000;fill-opacity:1;fill-rule:nonzero;stroke:none" />
    </g>
    <path
       id="path15"
       d="M 141.73409,21.2556 V 46.16077"
       style="fill:none;stroke:#000000;stroke-width:0.99628;stroke-linecap:butt;stroke-linejoin:miter;stroke-miterlimit:10;stroke-dasharray:none;stroke-opacity:1"
       transform="matrix(1.3333333,0,0,-1.3333333,151.84533,97.189333)" />
    <path
       id="path16"
       d="M -1.73352,2.31136 C -1.58905,1.4446 0,0.14444 0.43336,0 0,-0.14444 -1.58905,-1.4446 -1.73352,-2.31136"
       style="fill:none;stroke:#000000;stroke-width:0.79701;stroke-linecap:round;stroke-linejoin:round;stroke-miterlimit:10;stroke-dasharray:none;stroke-opacity:1"
       transform="matrix(0,1.3333333,1.3333333,0,340.82412,68.848533)" />
    <path
       id="path17"
       d="m -113.38727,0 h 85.98964"
       style="fill:none;stroke:#000000;stroke-width:0.99628;stroke-linecap:butt;stroke-linejoin:miter;stroke-miterlimit:10;stroke-dasharray:none;stroke-opacity:1"
       transform="matrix(1.3333333,0,0,-1.3333333,151.84533,97.189333)" />
    <path
       id="path18"
       d="M 4.92007,0 C 4.31586,0.15076 1.65996,1.00505 0,1.93475 v -3.8695 C 1.65996,-1.00505 4.31586,-0.15076 4.92007,0 Z"
       style="fill:#000000;fill-opacity:1;fill-rule:nonzero;stroke:#000000;stroke-width:0.99628;stroke-linecap:butt;stroke-linejoin:miter;stroke-miterlimit:10;stroke-dasharray:none;stroke-opacity:1"
       transform="matrix(1.3333333,0,0,-1.3333333,115.31516,97.189333)" />
    <path
       id="path19"
       d="m 3.7147891,-3.7681133 c -0.1816407,-0.3632812 -0.46875,-0.6328125 -0.9140625,-0.6328125 -1.1660157,0 -2.40234379,1.4648438 -2.40234379,2.9179688 0,0.93749997 0.54492188,1.59374997 1.32421879,1.59374997 0.1992187,0 0.6972656,-0.04101563 1.2949218,-0.75 0.082031,0.421875 0.4277344,0.75 0.9082032,0.75 0.3457031,0 0.5742187,-0.22851563 0.7382812,-0.55078125 0.1640625,-0.35742188 0.2988281,-0.96679692 0.2988281,-0.98437502 0,-0.099609 -0.09375,-0.099609 -0.1230468,-0.099609 -0.099609,0 -0.1113282,0.041016 -0.140625,0.1816407 -0.1699219,0.64453122 -0.3457032,1.23046872 -0.7558594,1.23046872 -0.2695313,0 -0.2988281,-0.2578125 -0.2988281,-0.45703125 0,-0.21679688 0.023437,-0.29882813 0.1289062,-0.73828127 0.1113281,-0.4160156 0.1289063,-0.515625 0.2226563,-0.8964844 L 4.3534609,-3.598191 c 0.070312,-0.2753906 0.070312,-0.2988281 0.070312,-0.3339844 0,-0.1699219 -0.1230468,-0.2695312 -0.2929687,-0.2695312 -0.234375,0 -0.3867188,0.2167968 -0.4160151,0.4335933 z m -0.6445313,2.5839844 c -0.052734,0.1757812 -0.052734,0.19921874 -0.1992187,0.36914062 -0.4394532,0.54492187 -0.8496094,0.703125 -1.1308594,0.703125 -0.4980469,0 -0.6328125,-0.54492188 -0.6328125,-0.93164062 0,-0.4980469 0.3164062,-1.7285156 0.5449219,-2.1855469 0.3105468,-0.5859375 0.7558593,-0.9550781 1.1542968,-0.9550781 0.6503907,0 0.7910157,0.8144531 0.7910157,0.8789062 0,0.058594 -0.023437,0.1171875 -0.029297,0.1699219 z m 0,0"
       style="fill:#000000;fill-opacity:1;fill-rule:nonzero;stroke:none"
       aria-label="a"
       transform="matrix(2.6666667,0,0,2.6666667,55.617333,87.005333)" />
    <path
       id="path20"
       d="m 20.42369,0 h 93.91275"
       style="fill:none;stroke:#000000;stroke-width:0.99628;stroke-linecap:butt;stroke-linejoin:miter;stroke-miterlimit:10;stroke-dasharray:none;stroke-opacity:1"
       transform="matrix(1.3333333,0,0,-1.3333333,151.84533,97.189333)" />
    <path
       id="path21"
       d="M 4.92007,0 C 4.31586,0.15076 1.65996,1.00505 0,1.93475 v -3.8695 C 1.65996,-1.00505 4.31586,-0.15076 4.92007,0 Z"
       style="fill:#000000;fill-opacity:1;fill-rule:nonzero;stroke:#000000;stroke-width:0.99628;stroke-linecap:butt;stroke-linejoin:miter;stroke-miterlimit:10;stroke-dasharray:none;stroke-opacity:1"
       transform="matrix(1.3333333,0,0,-1.3333333,304.29392,97.189333)" />
    <path
       id="path22"
       d="m 4.6643008,-3.7036602 c 0,-0.5390625 -0.2636719,-0.6972656 -0.4394531,-0.6972656 -0.2519532,0 -0.4921875,0.2578125 -0.4921875,0.4746094 0,0.1289062 0.052734,0.1933594 0.1640625,0.2988281 0.2050781,0.1992188 0.3339843,0.4570313 0.3339843,0.8203125 0,0.4160156 -0.6035156,2.69531252 -1.7695312,2.69531252 -0.5097656,0 -0.7382813,-0.34570313 -0.7382813,-0.8671875 0,-0.55664062 0.2695313,-1.28320312 0.5800782,-2.10937502 0.070312,-0.1699219 0.1171875,-0.3105469 0.1171875,-0.4980469 0,-0.4453125 -0.3164063,-0.8144531 -0.8144532,-0.8144531 -0.93749997,0 -1.31835934,1.4414063 -1.31835934,1.5292969 0,0.099609 0.0996094,0.099609 0.12304687,0.099609 0.0996094,0 0.10546875,-0.017578 0.15820313,-0.1757813 0.28710937,-1.0078125 0.71484374,-1.2363281 1.00781254,-1.2363281 0.076172,0 0.2460937,0 0.2460937,0.3164062 0,0.2519532 -0.099609,0.5214844 -0.1699219,0.6972657 -0.4394531,1.1601562 -0.5683593,1.6171875 -0.5683593,2.0449218 0,1.07812504 0.8789062,1.23632817 1.3359375,1.23632817 1.6757812,0 2.2441406,-3.29882817 2.2441406,-3.81445277 z m 0,0"
       style="fill:#000000;fill-opacity:1;fill-rule:nonzero;stroke:none"
       aria-label="v"
       transform="matrix(2.6666667,0,0,2.6666667,239.41733,87.005333)" />
    <path
       id="path23"
       d="m 162.15779,0 h 85.98963"
       style="fill:none;stroke:#000000;stroke-width:0.99628;stroke-linecap:butt;stroke-linejoin:miter;stroke-miterlimit:10;stroke-dasharray:none;stroke-opacity:1"
       transform="matrix(1.3333333,0,0,-1.3333333,151.84533,97.189333)" />
    <path
       id="path24"
       d="M 4.92007,0 C 4.31586,0.15076 1.65996,1.00505 0,1.93475 v -3.8695 C 1.65996,-1.00505 4.31586,-0.15076 4.92007,0 Z"
       style="fill:#000000;fill-opacity:1;fill-rule:nonzero;stroke:#000000;stroke-width:0.99628;stroke-linecap:butt;stroke-linejoin:miter;stroke-miterlimit:10;stroke-dasharray:none;stroke-opacity:1"
       transform="matrix(1.3333333,0,0,-1.3333333,482.70856,97.189333)" />
    <path
       id="path25"
       d="m 0.44521875,1.212832 c -0.0761719,0.3398438 -0.0996094,0.4101563 -0.53320312,0.4101563 -0.12304688,0 -0.22851563,0 -0.22851563,0.1875 0,0.082031 0.046875,0.1230469 0.12890625,0.1230469 0.26953125,0 0.55664063,-0.029297 0.83203125,-0.029297 0.33398438,0 0.6679688,0.029297 0.9902344,0.029297 0.046875,0 0.1757812,0 0.1757812,-0.1992188 0,-0.1113281 -0.099609,-0.1113281 -0.234375,-0.1113281 -0.4980468,0 -0.4980468,-0.070312 -0.4980468,-0.1582031 0,-0.1230469 0.4160156,-1.74609379 0.4863281,-1.99218754 0.1289062,0.28710937 0.4101562,0.63867187 0.9140625,0.63867187 1.1542969,0 2.4023437,-1.45312503 2.4023437,-2.91796873 0,-0.9375 -0.5683593,-1.59375 -1.3242187,-1.59375 -0.4980469,0 -0.9785156,0.3574219 -1.3066406,0.7441406 -0.099609,-0.5390625 -0.5273438,-0.7441406 -0.8964844,-0.7441406 -0.45703127,0 -0.64453127,0.3867187 -0.73828127,0.5683594 -0.17578125,0.3339843 -0.3046875,0.9316406 -0.3046875,0.9609375 0,0.099609 0.0996094,0.099609 0.1171875,0.099609 0.0996094,0 0.11132812,-0.00586 0.16992187,-0.2285156 0.16992188,-0.703125 0.36914063,-1.1835937 0.7265625,-1.1835937 0.1699219,0 0.3105469,0.082031 0.3105469,0.4570312 0,0.2285156 -0.029297,0.3398438 -0.070312,0.5097656 z M 2.2030313,-3.1055273 c 0.070312,-0.2695313 0.3339843,-0.5507813 0.515625,-0.6972657 0.3515625,-0.3105468 0.6386718,-0.3808593 0.8085937,-0.3808593 0.3984375,0 0.6386719,0.3515625 0.6386719,0.9375 0,0.5859375 -0.3339844,1.734375 -0.5097656,2.109375 -0.3398438,0.69726558 -0.8203125,1.02539058 -1.1835938,1.02539058 -0.6621094,0 -0.7910156,-0.82617187 -0.7910156,-0.88476562 0,-0.0175782 0,-0.0410157 0.029297,-0.15820316 z m 0,0"
       style="fill:#000000;fill-opacity:1;fill-rule:nonzero;stroke:none"
       aria-label="p"
       transform="matrix(2.6666667,0,0,2.6666667,423.344,81.84)" />
  </g>
</svg>
