<?xml version="1.0" encoding="UTF-8" standalone="no"?>
<!-- Created with Inkscape (http://www.inkscape.org/) -->

<svg
   version="1.1"
   id="svg1"
   width="250.66719"
   height="469.73035"
   viewBox="0 0 250.66719 469.73035"
   xmlns="http://www.w3.org/2000/svg"
   xmlns:svg="http://www.w3.org/2000/svg">
  <defs
     id="defs1" />
  <g
     id="g1"
     transform="translate(-4.9257813,0.00119285)">
    <path
       id="path1"
       d="m 38.53511,14.17339 h -77.07022 c -2.20094,0 -3.98511,-1.78417 -3.98511,-3.98511 v -20.37656 c 0,-2.20094 1.78417,-3.98511 3.98511,-3.98511 h 77.07022 c 2.20094,0 3.98511,1.78417 3.98511,3.98511 v 20.37656 c 0,2.20094 -1.78417,3.98511 -3.98511,3.98511 z"
       style="fill:#e6e6ff;fill-opacity:1;fill-rule:nonzero;stroke:#6666ff;stroke-width:0.79701;stroke-linecap:butt;stroke-linejoin:miter;stroke-miterlimit:10;stroke-dasharray:none;stroke-opacity:1"
       transform="matrix(1.3333333,0,0,-1.3333333,198.368,19.428)" />
    <path
       id="path2"
       d="m 2.2375859,-6.0236016 c 0,-0.3632812 0.035156,-0.46875 0.8203125,-0.46875 h 0.2578125 v -0.3164062 c -0.3515625,0.035156 -1.1367187,0.035156 -1.5117187,0.035156 -0.3867188,0 -1.17187501,0 -1.52343751,-0.035156 v 0.3164062 h 0.2578125 c 0.78515621,0 0.82031251,0.1054688 0.82031251,0.46875 v 5.25000004 c 0,0.3515625 -0.035156,0.46875 -0.82031251,0.46875 H 0.28055469 V -1.640625e-4 C 0.63211719,-0.03532031 1.4172734,-0.03532031 1.7922734,-0.03532031 c 0.3867188,0 1.171875,0 1.5234375,0.0351562475 V -0.30485156 H 3.0578984 c -0.7851562,0 -0.8203125,-0.1171875 -0.8203125,-0.46875 z m 2.4609375,2.6015625 v 2.66015629 c 0,0.45703125 -0.1171875,0.45703125 -0.7851562,0.45703125 v 0.3046874975 c 0.3515625,-0.0117187475 0.8554687,-0.0351562475 1.125,-0.0351562475 0.2578125,0 0.7851562,0.0234375 1.1132812,0.0351562475 V -0.30485156 c -0.65625,0 -0.7734375,0 -0.7734375,-0.45703125 V -2.5900078 c 0,-1.03125 0.7148438,-1.59375 1.3476563,-1.59375 0.6210937,0 0.7382812,0.5390625 0.7382812,1.1015625 v 2.32031249 c 0,0.45703125 -0.1171875,0.45703125 -0.7734375,0.45703125 v 0.3046874975 c 0.3398438,-0.0117187475 0.8554688,-0.0351562475 1.125,-0.0351562475 0.2578125,0 0.7734375,0.0234375 1.1132813,0.0351562475 V -0.30485156 c -0.515625,0 -0.7734375,0 -0.7851563,-0.3046875 V -2.5079766 c 0,-0.8554687 0,-1.171875 -0.3046875,-1.5234375 -0.140625,-0.1757812 -0.46875,-0.375 -1.0429687,-0.375 -0.7265625,0 -1.1953125,0.4335938 -1.4765625,1.0546875 v -1.0546875 l -1.40625,0.1171875 v 0.3046875 c 0.703125,0 0.7851562,0.070312 0.7851562,0.5625 z m 6.1464846,-0.328125 v -0.65625 l -1.4296877,0.1171875 v 0.3046875 c 0.7031247,0 0.7734377,0.058594 0.7734377,0.4921875 v 4.6640625 c 0,0.4570313 -0.105469,0.4570313 -0.7734377,0.4570313 v 0.3046875 c 0.3398438,-0.011719 0.8554687,-0.035156 1.1132817,-0.035156 0.269531,0 0.773437,0.023437 1.125,0.035156 V 1.6287422 c -0.667969,0 -0.773438,0 -0.773438,-0.4570313 v -1.75781246 c 0.04687,0.15234375 0.46875,0.69140625 1.21875,0.69140625 1.183594,0 2.226563,-0.97265625 2.226563,-2.26171879 0,-1.265625 -0.972657,-2.25 -2.085938,-2.25 -0.773437,0 -1.195312,0.4453125 -1.394531,0.65625 z m 0.03516,2.6132813 v -2.2148438 c 0.28125,-0.515625 0.773438,-0.796875 1.277344,-0.796875 0.726562,0 1.335937,0.8671875 1.335937,1.9921875 0,1.20703129 -0.691406,2.05078129 -1.429687,2.05078129 -0.398438,0 -0.773438,-0.19921875 -1.042969,-0.609375 -0.140625,-0.2109375 -0.140625,-0.22265625 -0.140625,-0.42187499 z m 7.678711,0.35156249 v 0.890625 L 20.000281,-1.640625e-4 V -0.30485156 c -0.703125,0 -0.785156,-0.0703125 -0.785156,-0.5625 V -4.4064141 L 17.762,-4.2892266 v 0.3046875 c 0.691406,0 0.773438,0.070312 0.773438,0.5625 v 1.7695313 c 0,0.86718749 -0.480469,1.54687499 -1.207032,1.54687499 -0.832031,0 -0.878906,-0.46875 -0.878906,-0.99609379 v -3.3046875 l -1.464844,0.1171875 v 0.3046875 c 0.785157,0 0.785157,0.035156 0.785157,0.9140625 v 1.5 c 0,0.77343754 0,1.67578129 1.511718,1.67578129 0.550782,0 0.996094,-0.26953125 1.277344,-0.890625 z M 21.92509,-3.9845391 h 1.429687 V -4.2892266 H 21.92509 v -1.8398437 h -0.246094 c -0.01172,0.8203125 -0.316406,1.8867187 -1.289062,1.921875 v 0.2226562 h 0.84375 v 2.7539063 c 0,1.21874999 0.925781,1.33593749 1.289062,1.33593749 0.703125,0 0.984375,-0.703125 0.984375,-1.33593749 v -0.5742188 h -0.246094 v 0.5507813 c 0,0.73828124 -0.304687,1.11328124 -0.667968,1.11328124 -0.667969,0 -0.667969,-0.90234374 -0.667969,-1.07812504 z m 0,0"
       style="fill:#000000;fill-opacity:1;fill-rule:nonzero;stroke:none"
       aria-label="Input"
       transform="matrix(1.3333333,0,0,1.3333333,182.31733,22.676)" />
    <path
       id="path3"
       d="m 38.53511,-36.85095 h -77.07022 c -2.20094,0 -3.98511,-1.78417 -3.98511,-3.98511 v -20.37659 c 0,-2.20094 1.78417,-3.9851 3.98511,-3.9851 h 77.07022 c 2.20094,0 3.98511,1.78416 3.98511,3.9851 v 20.37659 c 0,2.20094 -1.78417,3.98511 -3.98511,3.98511 z"
       style="fill:#e6e6ff;fill-opacity:1;fill-rule:nonzero;stroke:#6666ff;stroke-width:0.79701;stroke-linecap:butt;stroke-linejoin:miter;stroke-miterlimit:10;stroke-dasharray:none;stroke-opacity:1"
       transform="matrix(1.3333333,0,0,-1.3333333,198.368,19.428)" />
    <path
       id="path4"
       d="m 6.1041172,-6.0247031 c 0,-0.3632813 0.023437,-0.46875 0.7851562,-0.46875 h 0.2460938 v -0.3164063 c -0.3515625,0.035156 -1.0898438,0.035156 -1.4648438,0.035156 -0.3867187,0 -1.125,0 -1.4765625,-0.035156 v 0.3164063 h 0.234375 c 0.7734375,0 0.7851563,0.1054687 0.7851563,0.46875 v 2.3320312 H 2.2369297 v -2.3320312 c 0,-0.3632813 0.023437,-0.46875 0.7851562,-0.46875 h 0.2460938 v -0.3164063 c -0.3515625,0.035156 -1.0898438,0.035156 -1.4648438,0.035156 -0.375,0 -1.12499996,0 -1.47656246,-0.035156 v 0.3164063 h 0.234375 c 0.77343746,0 0.79687496,0.1054687 0.79687496,0.46875 v 5.24999997 c 0,0.3515625 -0.023437,0.46875 -0.79687496,0.46875 h -0.234375 v 0.3046875 c 0.3515625,-0.03515625 1.08984376,-0.03515625 1.46484376,-0.03515625 0.375,0 1.125,0 1.4765625,0.03515625 v -0.3046875 H 3.0220859 c -0.7617187,0 -0.7851562,-0.1171875 -0.7851562,-0.46875 V -3.3879844 h 2.9765625 v 2.61328127 c 0,0.3515625 -0.011719,0.46875 -0.7851563,0.46875 h -0.234375 v 0.3046875 c 0.3515625,-0.03515625 1.0898438,-0.03515625 1.4648438,-0.03515625 0.375,0 1.125,0 1.4765625,0.03515625 v -0.3046875 H 6.8892734 c -0.7617187,0 -0.7851562,-0.1171875 -0.7851562,-0.46875 z m 3.1259766,1.6171875 -1.3945313,0.1171875 v 0.3046875 c 0.65625,0 0.7382813,0.058594 0.7382813,0.5507812 v 2.67187502 c 0,0.45703125 -0.1054688,0.45703125 -0.7734375,0.45703125 v 0.3046875 c 0.3164062,-0.01171875 0.8554687,-0.03515625 1.1015625,-0.03515625 0.3398437,0 0.6914062,0.0234375 1.03125,0.03515625 v -0.3046875 c -0.65625,0 -0.703125,-0.0585938 -0.703125,-0.4453125 z m 0.046875,-1.734375 c 0,-0.3164063 -0.2460938,-0.5273438 -0.5273438,-0.5273438 -0.3164062,0 -0.5273437,0.2695313 -0.5273437,0.5273438 0,0.2695312 0.2109375,0.5273437 0.5273437,0.5273437 0.28125,0 0.5273438,-0.1992187 0.5273438,-0.5273437 z m 4.7490232,5.58984372 v 0.65625 l 1.464844,-0.10546875 v -0.3046875 c -0.703125,0 -0.773438,-0.0703125 -0.773438,-0.5625 V -6.9153281 l -1.441406,0.1054687 v 0.3164063 c 0.703125,0 0.785156,0.070312 0.785156,0.5507812 v 2.15625 c -0.292968,-0.3632812 -0.726562,-0.6210937 -1.265625,-0.6210937 -1.171875,0 -2.214843,0.984375 -2.214843,2.2617187 0,1.26562502 0.972656,2.25000002 2.109375,2.25000002 0.644531,0 1.089843,-0.33984375 1.335937,-0.65625 z m 0,-2.67187502 v 2.0507813 c 0,0.17578122 0,0.19921872 -0.105469,0.36328122 -0.304687,0.48046875 -0.75,0.703125 -1.183593,0.703125 -0.445313,0 -0.796875,-0.2578125 -1.042969,-0.64453125 -0.257813,-0.41015627 -0.292969,-0.97265627 -0.292969,-1.38281247 0,-0.3632813 0.02344,-0.9609375 0.316406,-1.4179688 0.210938,-0.3046875 0.585938,-0.6328125 1.125,-0.6328125 0.351563,0 0.761719,0.1523438 1.078125,0.5976563 0.105469,0.1640625 0.105469,0.1875 0.105469,0.3632812 z m 5.53418,2.67187502 v 0.65625 l 1.464844,-0.10546875 v -0.3046875 c -0.703125,0 -0.773438,-0.0703125 -0.773438,-0.5625 V -6.9153281 l -1.441406,0.1054687 v 0.3164063 c 0.703125,0 0.785156,0.070312 0.785156,0.5507812 v 2.15625 c -0.292969,-0.3632812 -0.726562,-0.6210937 -1.265625,-0.6210937 -1.171875,0 -2.214844,0.984375 -2.214844,2.2617187 0,1.26562502 0.972657,2.25000002 2.109375,2.25000002 0.644532,0 1.089844,-0.33984375 1.335938,-0.65625 z m 0,-2.67187502 v 2.0507813 c 0,0.17578122 0,0.19921872 -0.105469,0.36328122 -0.304687,0.48046875 -0.75,0.703125 -1.183594,0.703125 -0.445312,0 -0.796875,-0.2578125 -1.042968,-0.64453125 -0.257813,-0.41015627 -0.292969,-0.97265627 -0.292969,-1.38281247 0,-0.3632813 0.02344,-0.9609375 0.316406,-1.4179688 0.210938,-0.3046875 0.585938,-0.6328125 1.125,-0.6328125 0.351563,0 0.761719,0.1523438 1.078125,0.5976563 0.105469,0.1640625 0.105469,0.1875 0.105469,0.3632812 z m 2.862305,0.7148438 c 0.05859,-1.4882813 0.902343,-1.734375 1.242187,-1.734375 1.019531,0 1.125,1.3476562 1.125,1.734375 z m -0.01172,0.2109375 h 2.789062 c 0.210938,0 0.246094,0 0.246094,-0.2109375 0,-0.984375 -0.539062,-1.9570313 -1.78125,-1.9570313 -1.160156,0 -2.074219,1.03125 -2.074219,2.2734375 0,1.33593752 1.042969,2.29687502 2.191407,2.29687502 1.21875,0 1.664062,-1.1015625 1.664062,-1.28906252 0,-0.1054687 -0.08203,-0.1171875 -0.128906,-0.1171875 -0.09375,0 -0.117188,0.058594 -0.128906,0.140625 -0.351563,1.01953127 -1.253907,1.01953127 -1.347657,1.01953127 -0.503906,0 -0.902343,-0.29296875 -1.125,-0.66796875 C 22.410758,-1.2903281 22.410758,-1.9465781 22.410758,-2.2981406 Z m 4.426758,-1.125 v 2.66015622 c 0,0.45703125 -0.117188,0.45703125 -0.785157,0.45703125 v 0.3046875 c 0.351563,-0.01171875 0.855469,-0.03515625 1.125,-0.03515625 0.257813,0 0.785157,0.0234375 1.113282,0.03515625 v -0.3046875 c -0.65625,0 -0.773438,0 -0.773438,-0.45703125 V -2.5911094 c 0,-1.03125 0.714844,-1.59375 1.347656,-1.59375 0.621094,0 0.738282,0.5390625 0.738282,1.1015625 v 2.32031252 c 0,0.45703125 -0.117188,0.45703125 -0.773438,0.45703125 v 0.3046875 c 0.339844,-0.01171875 0.855469,-0.03515625 1.125,-0.03515625 0.257813,0 0.773438,0.0234375 1.113281,0.03515625 v -0.3046875 c -0.515625,0 -0.773437,0 -0.785156,-0.3046875 V -2.5090781 c 0,-0.8554688 0,-1.171875 -0.304687,-1.5234375 -0.140625,-0.1757813 -0.46875,-0.375 -1.042969,-0.375 -0.726563,0 -1.195313,0.4335937 -1.476563,1.0546875 v -1.0546875 l -1.40625,0.1171875 v 0.3046875 c 0.703125,0 0.785157,0.070312 0.785157,0.5625 z m 0,0"
       style="fill:#000000;fill-opacity:1;fill-rule:nonzero;stroke:none"
       aria-label="Hidden"
       transform="matrix(1.3333333,0,0,1.3333333,177.52133,92.072)" />
    <path
       id="path5"
       d="m 38.53511,-87.87532 h -77.07022 c -2.20094,0 -3.98511,-1.78416 -3.98511,-3.98511 V -112.237 c 0,-2.20094 1.78417,-3.9851 3.98511,-3.9851 h 77.07022 c 2.20094,0 3.98511,1.78416 3.98511,3.9851 v 20.37657 c 0,2.20095 -1.78417,3.98511 -3.98511,3.98511 z"
       style="fill:#e6e6ff;fill-opacity:1;fill-rule:nonzero;stroke:#6666ff;stroke-width:0.79701;stroke-linecap:butt;stroke-linejoin:miter;stroke-miterlimit:10;stroke-dasharray:none;stroke-opacity:1"
       transform="matrix(1.3333333,0,0,-1.3333333,198.368,19.428)" />
    <path
       id="path6"
       d="m 7.1822266,-3.3752891 c 0,-2.0390625 -1.5,-3.6445312 -3.3164063,-3.6445312 -1.78125,0 -3.30468749,1.59375 -3.30468749,3.6445312 0,2.0390625 1.53515629,3.59765629 3.30468749,3.59765629 1.8164063,0 3.3164063,-1.58203129 3.3164063,-3.59765629 z m -3.3046875,3.33984379 c -0.9609375,0 -2.296875,-0.87890625 -2.296875,-3.48046879 0,-2.578125 1.453125,-3.2578125 2.2851562,-3.2578125 0.8671875,0 2.2851563,0.703125 2.2851563,3.2578125 0,2.63671879 -1.359375,3.48046879 -2.2734375,3.48046879 z m 7.7607419,-0.75 v 0.890625 L 13.079688,-2.890625e-4 V -0.30497656 c -0.703125,0 -0.785157,-0.0703125 -0.785157,-0.5625 V -4.4065391 l -1.453125,0.1171875 v 0.3046875 c 0.691407,0 0.773438,0.070312 0.773438,0.5625 v 1.7695313 c 0,0.86718749 -0.480469,1.54687499 -1.207031,1.54687499 -0.8320317,0 -0.8789067,-0.46875 -0.8789067,-0.99609379 v -3.3046875 l -1.4648438,0.1171875 v 0.3046875 c 0.7851563,0 0.7851563,0.035156 0.7851563,0.9140625 v 1.5 c 0,0.77343754 0,1.67578129 1.5117192,1.67578129 0.550781,0 0.996093,-0.26953125 1.277343,-0.890625 z m 3.369141,-3.19921879 h 1.429687 v -0.3046875 h -1.429687 v -1.8398437 h -0.246094 c -0.01172,0.8203125 -0.316406,1.8867187 -1.289062,1.921875 v 0.2226562 h 0.84375 v 2.7539063 c 0,1.21874999 0.925781,1.33593749 1.289062,1.33593749 0.703125,0 0.984375,-0.703125 0.984375,-1.33593749 v -0.5742188 h -0.246094 v 0.5507813 c 0,0.73828124 -0.304687,1.11328124 -0.667968,1.11328124 -0.667969,0 -0.667969,-0.90234374 -0.667969,-1.07812504 z m 3.861328,0.234375 v -0.65625 l -1.429687,0.1171875 v 0.3046875 c 0.703125,0 0.773437,0.058594 0.773437,0.4921875 v 4.6640625 c 0,0.4570313 -0.105469,0.4570313 -0.773437,0.4570313 v 0.3046875 c 0.339843,-0.011719 0.855468,-0.035156 1.113281,-0.035156 0.269531,0 0.773437,0.023437 1.125,0.035156 V 1.6286172 c -0.667969,0 -0.773438,0 -0.773438,-0.4570313 v -1.75781246 c 0.04687,0.15234375 0.46875,0.69140625 1.21875,0.69140625 1.183594,0 2.226563,-0.97265625 2.226563,-2.26171879 0,-1.265625 -0.972656,-2.25 -2.085938,-2.25 -0.773437,0 -1.195312,0.4453125 -1.394531,0.65625 z m 0.03516,2.6132813 v -2.2148438 c 0.28125,-0.515625 0.773438,-0.796875 1.277344,-0.796875 0.726563,0 1.335938,0.8671875 1.335938,1.9921875 0,1.20703129 -0.691407,2.05078129 -1.429688,2.05078129 -0.398437,0 -0.773437,-0.19921875 -1.042969,-0.609375 C 18.90391,-0.92607031 18.90391,-0.93778906 18.90391,-1.1370078 Z m 7.681641,0.35156249 v 0.890625 L 28.026953,-2.890625e-4 V -0.30497656 c -0.703125,0 -0.785156,-0.0703125 -0.785156,-0.5625 V -4.4065391 l -1.453125,0.1171875 v 0.3046875 c 0.691406,0 0.773437,0.070312 0.773437,0.5625 v 1.7695313 c 0,0.86718749 -0.480468,1.54687499 -1.207031,1.54687499 -0.832031,0 -0.878906,-0.46875 -0.878906,-0.99609379 v -3.3046875 l -1.464844,0.1171875 v 0.3046875 c 0.785156,0 0.785156,0.035156 0.785156,0.9140625 v 1.5 c 0,0.77343754 0,1.67578129 1.511719,1.67578129 0.550781,0 0.996094,-0.26953125 1.277344,-0.890625 z m 3.366211,-3.19921879 h 1.429687 v -0.3046875 h -1.429687 v -1.8398437 h -0.246094 c -0.01172,0.8203125 -0.316406,1.8867187 -1.289062,1.921875 v 0.2226562 h 0.84375 v 2.7539063 c 0,1.21874999 0.925781,1.33593749 1.289062,1.33593749 0.703125,0 0.984375,-0.703125 0.984375,-1.33593749 v -0.5742188 h -0.246094 v 0.5507813 c 0,0.73828124 -0.304687,1.11328124 -0.667968,1.11328124 -0.667969,0 -0.667969,-0.90234374 -0.667969,-1.07812504 z m 0,0"
       style="fill:#000000;fill-opacity:1;fill-rule:nonzero;stroke:none"
       aria-label="Output"
       transform="matrix(1.3333333,0,0,1.3333333,176.96667,158.73867)" />
    <path
       id="path7"
       d="M 0,-14.5719 V -33.86218"
       style="fill:none;stroke:#b3b3b3;stroke-width:0.79701;stroke-linecap:butt;stroke-linejoin:miter;stroke-miterlimit:10;stroke-dasharray:none;stroke-opacity:1"
       transform="matrix(1.3333333,0,0,-1.3333333,198.368,19.428)" />
    <path
       id="path8"
       d="M 2.59026,0 -1.55415,2.0722 0,0 -1.55415,-2.0722"
       style="fill:#b3b3b3;fill-opacity:1;fill-rule:nonzero;stroke:none"
       transform="matrix(0,1.3333333,1.3333333,0,198.368,64.577573)" />
    <path
       id="path9"
       d="m 0,-65.59625 v -19.2903"
       style="fill:none;stroke:#b3b3b3;stroke-width:0.79701;stroke-linecap:butt;stroke-linejoin:miter;stroke-miterlimit:10;stroke-dasharray:none;stroke-opacity:1"
       transform="matrix(1.3333333,0,0,-1.3333333,198.368,19.428)" />
    <path
       id="path10"
       d="M 2.59026,0 -1.55415,2.0722 0,0 -1.55415,-2.0722"
       style="fill:#b3b3b3;fill-opacity:1;fill-rule:nonzero;stroke:none"
       transform="matrix(0,1.3333333,1.3333333,0,198.368,132.61007)" />
    <path
       id="path11"
       d="m 38.53511,-144.56895 h -77.07022 c -2.20094,0 -3.98511,-1.78417 -3.98511,-3.98511 v -20.37657 c 0,-2.20095 1.78417,-3.98511 3.98511,-3.98511 h 77.07022 c 2.20094,0 3.98511,1.78416 3.98511,3.98511 v 20.37657 c 0,2.20094 -1.78417,3.98511 -3.98511,3.98511 z"
       style="fill:#ffe6e6;fill-opacity:1;fill-rule:nonzero;stroke:#ff6666;stroke-width:0.79701;stroke-linecap:butt;stroke-linejoin:miter;stroke-miterlimit:10;stroke-dasharray:none;stroke-opacity:1"
       transform="matrix(1.3333333,0,0,-1.3333333,198.368,19.428)" />
    <path
       id="path12"
       d="M 5.7999688,-2.5665859 H 5.5421563 C 5.4366875,-1.5587734 5.2960625,-0.30486719 3.5499688,-0.30486719 H 2.7296563 c -0.46875,0 -0.4921875,-0.0703125 -0.4921875,-0.3984375 V -6.0118984 c 0,-0.3398438 0,-0.4804688 0.9492187,-0.4804688 h 0.328125 v -0.3164062 c -0.3632812,0.035156 -1.265625,0.035156 -1.6757812,0.035156 -0.3867188,0 -1.1601563,0 -1.5117188,-0.035156 v 0.3164062 h 0.234375 c 0.7734375,0 0.796875,0.1054688 0.796875,0.46875 v 5.25000001 c 0,0.3515625 -0.023437,0.46875 -0.796875,0.46875 h -0.234375 v 0.3046875025 h 5.1914063 z m 5.1152342,0.4335937 c 0,-1.2773437 -0.9960936,-2.3320312 -2.1914061,-2.3320312 -1.2539063,0 -2.2148438,1.0898437 -2.2148438,2.3320312 0,1.28906251 1.03125,2.23828126 2.203125,2.23828126 1.2070313,0 2.2031249,-0.97265625 2.2031249,-2.23828126 z m -2.1914061,1.99218751 c -0.4335938,0 -0.8671875,-0.2109375 -1.1367188,-0.66796875 C 7.3292656,-1.2423672 7.3292656,-1.8517422 7.3292656,-2.2150234 c 0,-0.3867188 0,-0.9257813 0.2460938,-1.359375 0.2695312,-0.4570313 0.7382812,-0.6679688 1.1367187,-0.6679688 0.4335938,0 0.8671875,0.2226563 1.125,0.6445313 0.2578129,0.4335937 0.2578129,1.0078125 0.2578129,1.3828125 0,0.3632812 0,0.9023437 -0.2226566,1.33593746 -0.2226563,0.4453125 -0.65625,0.73828125 -1.1484375,0.73828125 z M 13.282391,-1.9337734 c 0.222656,0.035156 1.03125,0.1992187 1.03125,0.9140625 0,0.51562496 -0.351563,0.91406246 -1.125,0.91406246 -0.832032,0 -1.195313,-0.57421875 -1.382813,-1.41796876 -0.03516,-0.1289062 -0.03516,-0.1757812 -0.140625,-0.1757812 -0.128906,0 -0.128906,0.070312 -0.128906,0.2578125 v 1.31249996 c 0,0.1640625 0,0.234375 0.105469,0.234375 0.05859,0 0.07031,0 0.257812,-0.19921875 0.01172,-0.01171875 0.01172,-0.03515625 0.199219,-0.22265625 0.433594,0.421875 0.878906,0.421875 1.089844,0.421875 1.148437,0 1.605468,-0.66796875 1.605468,-1.38281246 0,-0.5273438 -0.292968,-0.8203125 -0.421875,-0.9492188 -0.328125,-0.3164062 -0.714843,-0.3984375 -1.136718,-0.46875 -0.550782,-0.1171875 -1.21875,-0.2460937 -1.21875,-0.8203125 0,-0.3515625 0.257812,-0.7617187 1.113281,-0.7617187 1.101562,0 1.148437,0.9023437 1.171875,1.2070312 0,0.09375 0.09375,0.09375 0.117187,0.09375 0.128907,0 0.128907,-0.046875 0.128907,-0.2460937 v -0.9960938 c 0,-0.1757812 0,-0.2460937 -0.117188,-0.2460937 -0.04687,0 -0.07031,0 -0.199219,0.1171875 -0.02344,0.046875 -0.128906,0.1289062 -0.164062,0.1640625 -0.375,-0.28125 -0.785156,-0.28125 -0.9375,-0.28125 -1.21875,0 -1.59375,0.6679687 -1.59375,1.2304687 0,0.3398438 0.164062,0.6210938 0.433594,0.84375 0.316406,0.2578125 0.597656,0.3164063 1.3125,0.4570313 z m 3.928711,0 c 0.222656,0.035156 1.03125,0.1992187 1.03125,0.9140625 0,0.51562496 -0.351563,0.91406246 -1.125,0.91406246 -0.832032,0 -1.195313,-0.57421875 -1.382813,-1.41796876 -0.03516,-0.1289062 -0.03516,-0.1757812 -0.140625,-0.1757812 -0.128906,0 -0.128906,0.070312 -0.128906,0.2578125 v 1.31249996 c 0,0.1640625 0,0.234375 0.105469,0.234375 0.05859,0 0.07031,0 0.257812,-0.19921875 0.01172,-0.01171875 0.01172,-0.03515625 0.199219,-0.22265625 0.433594,0.421875 0.878906,0.421875 1.089844,0.421875 1.148437,0 1.605468,-0.66796875 1.605468,-1.38281246 0,-0.5273438 -0.292968,-0.8203125 -0.421875,-0.9492188 -0.328125,-0.3164062 -0.714843,-0.3984375 -1.136718,-0.46875 -0.550782,-0.1171875 -1.21875,-0.2460937 -1.21875,-0.8203125 0,-0.3515625 0.257812,-0.7617187 1.113281,-0.7617187 1.101562,0 1.148437,0.9023437 1.171875,1.2070312 0,0.09375 0.09375,0.09375 0.117187,0.09375 0.128907,0 0.128907,-0.046875 0.128907,-0.2460937 v -0.9960938 c 0,-0.1757812 0,-0.2460937 -0.117188,-0.2460937 -0.04687,0 -0.07031,0 -0.199219,0.1171875 -0.02344,0.046875 -0.128906,0.1289062 -0.164062,0.1640625 -0.375,-0.28125 -0.785156,-0.28125 -0.9375,-0.28125 -1.21875,0 -1.59375,0.6679687 -1.59375,1.2304687 0,0.3398438 0.164062,0.6210938 0.433594,0.84375 0.316406,0.2578125 0.597656,0.3164063 1.3125,0.4570313 z m 0,0"
       style="fill:#000000;fill-opacity:1;fill-rule:nonzero;stroke:none"
       aria-label="Loss"
       transform="matrix(1.3333333,0,0,1.3333333,185.65733,235.62133)" />
    <path
       id="path13"
       d="m 0,-116.62062 v -24.95956"
       style="fill:none;stroke:#b3b3b3;stroke-width:0.79701;stroke-linecap:butt;stroke-linejoin:miter;stroke-miterlimit:10;stroke-dasharray:none;stroke-opacity:1"
       transform="matrix(1.3333333,0,0,-1.3333333,198.368,19.428)" />
    <path
       id="path14"
       d="M 2.59026,0 -1.55415,2.0722 0,0 -1.55415,-2.0722"
       style="fill:#b3b3b3;fill-opacity:1;fill-rule:nonzero;stroke:none"
       transform="matrix(0,1.3333333,1.3333333,0,198.368,208.20157)" />
    <path
       id="path15"
       d="m 38.53511,-201.26259 h -77.07022 c -2.20094,0 -3.98511,-1.78416 -3.98511,-3.98511 v -20.37657 c 0,-2.20094 1.78417,-3.98511 3.98511,-3.98511 h 77.07022 c 2.20094,0 3.98511,1.78417 3.98511,3.98511 v 20.37657 c 0,2.20095 -1.78417,3.98511 -3.98511,3.98511 z"
       style="fill:#fff2e6;fill-opacity:1;fill-rule:nonzero;stroke:#ffa64c;stroke-width:0.79701;stroke-linecap:butt;stroke-linejoin:miter;stroke-miterlimit:10;stroke-dasharray:none;stroke-opacity:1"
       transform="matrix(1.3333333,0,0,-1.3333333,198.368,19.428)" />
    <g
       id="g15"
       aria-label="∂L/∂w&#10;out"
       transform="matrix(1.3333333,0,0,1.3333333,169.88267,309.99333)">
      <path
         id="path16"
         d="m 4.6172969,-3.3758594 c -0.1054688,-0.6210937 -0.515625,-1.171875 -1.2890625,-1.171875 -0.609375,0 -1.2539063,0.1523438 -2.0273438,0.9257813 -0.83203122,0.8320312 -0.90234372,1.7578125 -0.90234372,2.0625 0,0.62109372 0.43359375,1.78124997 1.82812502,1.78124997 2.3789062,0 3.4101562,-3.35156247 3.4101562,-4.76953127 0,-1.59375 -0.9257812,-2.5898437 -2.1445312,-2.5898437 -1.453125,0 -1.9101563,1.3007812 -1.9101563,1.5820312 0,0.140625 0.082031,0.3398438 0.375,0.3398438 0.3398438,0 0.5390625,-0.2929688 0.5390625,-0.5273438 0,-0.3398437 -0.3046875,-0.3398437 -0.46875,-0.3398437 0.4453125,-0.7382813 1.1484375,-0.796875 1.4414063,-0.796875 0.7265625,0 1.4179687,0.515625 1.4179687,1.7929687 0,0.3984375 -0.058594,0.9023438 -0.2695312,1.7109375 z m -2.3554688,3.31640627 c -1.1015625,0 -1.1015625,-1.03124997 -1.1015625,-1.12499997 0,-0.2695313 0.2578125,-1.6640625 0.6679688,-2.2617188 0.3984375,-0.5742187 0.8789062,-0.890625 1.5,-0.890625 1.0898437,0 1.1015625,1.1132813 1.1015625,1.3125 0,0.7265625 -0.6328125,2.96484377 -2.1679688,2.96484377 z m 7.3125,-5.96484377 c 0.09375,-0.3632812 0.1171875,-0.46875 1.0546879,-0.46875 0.304687,0 0.375,0 0.375,-0.1875 0,-0.1289062 -0.105469,-0.1289062 -0.152344,-0.1289062 -0.328125,0 -1.1484376,0.035156 -1.4765626,0.035156 -0.3046875,0 -1.03125,-0.035156 -1.3242188,-0.035156 -0.070313,0 -0.1875,0 -0.1875,0.1992187 0,0.1171875 0.082031,0.1171875 0.28125,0.1171875 0.011719,0 0.1992188,0 0.375,0.011719 0.1757813,0.023437 0.2695313,0.035156 0.2695313,0.1640625 0,0.035156 -0.011719,0.070312 -0.046875,0.1875 l -1.3359375,5.35546872 c -0.09375,0.38671875 -0.1171875,0.46875 -0.9023438,0.46875 -0.1640625,0 -0.2695312,0 -0.2695312,0.19921875 0,0.105468755 0.09375,0.105468755 0.2695312,0.105468755 h 4.6171874 c 0.234375,0 0.246094,0 0.304688,-0.164062505 l 0.785156,-2.15625002 c 0.04687,-0.1054687 0.04687,-0.1289062 0.04687,-0.140625 0,-0.035156 -0.03516,-0.1054687 -0.128906,-0.1054687 -0.08203,0 -0.09375,0.046875 -0.164063,0.2109375 -0.339844,0.9140625 -0.773437,2.05078122 -2.4960936,2.05078122 h -0.9375 c -0.140625,0 -0.1640625,0 -0.2226563,-0.0117188 -0.1054687,-0.0117188 -0.1289062,-0.0234375 -0.1289062,-0.10546875 0,-0.0234375 0,-0.046875 0.046875,-0.22265625 z m 7.4150389,-1.0664062 c 0.04687,-0.1289063 0.04687,-0.1757813 0.04687,-0.1875 0,-0.1054688 -0.08203,-0.1992188 -0.199219,-0.1992188 -0.07031,0 -0.128906,0.035156 -0.164062,0.09375 L 13.21593,2.1085156 c -0.04687,0.1289063 -0.04687,0.1757813 -0.04687,0.1875 0,0.1054688 0.08203,0.1992188 0.199218,0.1992188 0.128907,0 0.152344,-0.070312 0.210938,-0.2460938 z m 5.226563,3.7148437 c -0.105469,-0.6210937 -0.515625,-1.171875 -1.289063,-1.171875 -0.609375,0 -1.253906,0.1523438 -2.027344,0.9257813 -0.832031,0.8320312 -0.902343,1.7578125 -0.902343,2.0625 0,0.62109372 0.433593,1.78124997 1.828125,1.78124997 2.378906,0 3.410156,-3.35156247 3.410156,-4.76953127 0,-1.59375 -0.925781,-2.5898437 -2.144531,-2.5898437 -1.453125,0 -1.910157,1.3007812 -1.910157,1.5820312 0,0.140625 0.08203,0.3398438 0.375,0.3398438 0.339844,0 0.539063,-0.2929688 0.539063,-0.5273438 0,-0.3398437 -0.304688,-0.3398437 -0.46875,-0.3398437 0.445312,-0.7382813 1.148437,-0.796875 1.441406,-0.796875 0.726563,0 1.417969,0.515625 1.417969,1.7929687 0,0.3984375 -0.05859,0.9023438 -0.269531,1.7109375 z m -2.355469,3.31640627 c -1.101563,0 -1.101563,-1.03124997 -1.101563,-1.12499997 0,-0.2695313 0.257813,-1.6640625 0.667969,-2.2617188 0.398438,-0.5742187 0.878906,-0.890625 1.5,-0.890625 1.089844,0 1.101563,1.1132813 1.101563,1.3125 0,0.7265625 -0.632813,2.96484377 -2.167969,2.96484377 z m 8.191406,-3.31640627 c 0.04687,-0.2226562 0.140625,-0.5859375 0.140625,-0.6445312 0,-0.1875 -0.128906,-0.2695313 -0.28125,-0.2695313 -0.117187,0 -0.304687,0.070312 -0.375,0.2695313 -0.02344,0.070312 -0.492187,1.9804687 -0.5625,2.2382812 -0.07031,0.2929688 -0.09375,0.4804688 -0.09375,0.65625 0,0.1054688 0,0.12890627 0.01172,0.17578127 -0.222656,0.52734375 -0.527344,0.84375 -0.914063,0.84375 -0.796875,0 -0.796875,-0.73828125 -0.796875,-0.91406247 0,-0.3164063 0.04687,-0.703125 0.515625,-1.9335938 0.105469,-0.2929687 0.175782,-0.4335937 0.175782,-0.6328125 0,-0.4453125 -0.328125,-0.8203125 -0.820313,-0.8203125 -0.949219,0 -1.3125,1.453125 -1.3125,1.5351563 0,0.1054687 0.09375,0.1054687 0.117188,0.1054687 0.09375,0 0.105468,-0.023437 0.152343,-0.1875 0.269532,-0.9257812 0.667969,-1.2304687 1.007813,-1.2304687 0.09375,0 0.257812,0.011719 0.257812,0.328125 0,0.2460937 -0.117187,0.5273437 -0.1875,0.703125 -0.433593,1.171875 -0.550781,1.6289062 -0.550781,2.0039062 0,0.91406252 0.667969,1.25390627 1.40625,1.25390627 0.175781,0 0.644531,0 1.042969,-0.69140625 0.257812,0.6328125 0.949219,0.69140625 1.242187,0.69140625 0.75,0 1.183594,-0.62109375 1.441407,-1.21874997 0.339843,-0.7851563 0.65625,-2.109375 0.65625,-2.5898438 0,-0.5507812 -0.269532,-0.703125 -0.433594,-0.703125 -0.246094,0 -0.503906,0.2578125 -0.503906,0.4804688 0,0.1289062 0.07031,0.1875 0.152343,0.2695312 0.117188,0.1054688 0.363282,0.3632813 0.363282,0.84375 0,0.3398438 -0.292969,1.3125 -0.550782,1.82812502 -0.257812,0.52734375 -0.609375,0.87890625 -1.089843,0.87890625 -0.46875,0 -0.738282,-0.3046875 -0.738282,-0.8671875 0,-0.28124997 0.07031,-0.58593747 0.105469,-0.72656247 z m 0,0"
         style="fill:#000000;fill-opacity:1;fill-rule:nonzero;stroke:none" />
      <path
         id="path17"
         d="m 34.283313,-0.35535156 c 0,-0.77343754 -0.574219,-1.21875004 -1.265625,-1.21875004 -1.03125,0 -2.003907,0.96093754 -2.003907,1.92187504 0,0.69140626 0.503907,1.21874996 1.265625,1.21874996 0.996094,0 2.003907,-0.92578121 2.003907,-1.92187496 z M 32.291125,1.3673047 c -0.351562,0 -0.703125,-0.2226563 -0.703125,-0.77343751 0,-0.28125 0.140625,-0.9609375 0.410156,-1.359375 0.292969,-0.43359379 0.703125,-0.62109379 1.019532,-0.62109379 0.375,0 0.691406,0.2578125 0.691406,0.77343754 0,0.17578125 -0.08203,0.85546875 -0.386719,1.34765625 -0.269531,0.41015621 -0.679687,0.63281251 -1.03125,0.63281251 z m 5.173828,-0.99609376 c -0.03516,0.140625 -0.105469,0.3984375 -0.117187,0.41015625 -0.128907,0.2109375 -0.410157,0.58593751 -0.84375,0.58593751 -0.480469,0 -0.480469,-0.44531251 -0.480469,-0.57421876 0,-0.41015625 0.199219,-0.90234375 0.386719,-1.41796875 0.05859,-0.140625 0.105468,-0.24609375 0.105468,-0.3515625 0,-0.36328129 -0.304687,-0.59765629 -0.667968,-0.59765629 -0.691407,0 -1.007813,0.94921879 -1.007813,1.06640629 0,0.0820313 0.09375,0.0820313 0.117188,0.0820313 0.09375,0 0.105468,-0.0351563 0.128906,-0.10546875 0.164062,-0.57421874 0.46875,-0.85546874 0.738281,-0.85546874 0.128906,0 0.175781,0.082031 0.175781,0.2460938 0,0.16406244 -0.04687,0.30468744 -0.117187,0.46874994 -0.386719,0.9609375 -0.386719,1.16015625 -0.386719,1.34765625 0,0.1171875 0,0.44531241 0.269531,0.66796881 0.199219,0.1640625 0.46875,0.2226562 0.714844,0.2226562 0.433594,0 0.679688,-0.234375 0.902344,-0.4570312 0.152344,0.4453125 0.621094,0.4570312 0.703125,0.4570312 0.234375,0 0.421875,-0.140625 0.550781,-0.375 0.152344,-0.26953126 0.257813,-0.66796876 0.257813,-0.69140626 0,-0.09375 -0.105469,-0.09375 -0.117188,-0.09375 -0.105469,0 -0.105469,0.0351563 -0.164062,0.22265625 -0.08203,0.328125 -0.210938,0.73828131 -0.503907,0.73828131 -0.175781,0 -0.234375,-0.1523438 -0.234375,-0.3398438 0,-0.11718751 0.05859,-0.36328126 0.105469,-0.55078126 0.04687,-0.1875 0.117188,-0.46875 0.152344,-0.62109375 l 0.164062,-0.62109375 c 0.04687,-0.17578125 0.117188,-0.48046874 0.117188,-0.51562494 0,-0.140625 -0.105469,-0.2226563 -0.222656,-0.2226563 -0.257813,0 -0.316407,0.1992188 -0.363282,0.421875 z m 3.46875,-1.62890624 h 0.714844 c 0.128906,0 0.222656,0 0.222656,-0.1523438 0,-0.09375 -0.09375,-0.09375 -0.210937,-0.09375 h -0.65625 l 0.257812,-1.0429687 c 0,-0.023437 0.02344,-0.058594 0.02344,-0.09375 0,-0.1289063 -0.105469,-0.2226563 -0.246094,-0.2226563 -0.175781,0 -0.28125,0.1171875 -0.328125,0.3046875 -0.04687,0.1757813 0.04687,-0.1640625 -0.257813,1.0546875 h -0.714843 c -0.128907,0 -0.222657,0 -0.222657,0.1523438 0,0.09375 0.08203,0.09375 0.210938,0.09375 h 0.65625 l -0.410156,1.64062499 c -0.03516,0.17578125 -0.105469,0.43359375 -0.105469,0.515625 0,0.42187501 0.351562,0.66796871 0.75,0.66796871 0.773437,0 1.21875,-0.97265621 1.21875,-1.06640621 0,-0.09375 -0.09375,-0.09375 -0.117188,-0.09375 -0.08203,0 -0.09375,0.0117188 -0.140625,0.12890625 -0.199218,0.4453125 -0.550781,0.83203126 -0.9375,0.83203126 -0.152343,0 -0.246093,-0.082031 -0.246093,-0.3398438 0,-0.0703125 0.02344,-0.21093746 0.04687,-0.28124996 z m 0,0"
         style="fill:#000000;fill-opacity:1;fill-rule:nonzero;stroke:none" />
    </g>
    <path
       id="path18"
       d="m 38.53511,-252.28694 h -77.07022 c -2.20094,0 -3.98511,-1.78416 -3.98511,-3.98511 v -20.37659 c 0,-2.20094 1.78417,-3.9851 3.98511,-3.9851 h 77.07022 c 2.20094,0 3.98511,1.78416 3.98511,3.9851 v 20.37659 c 0,2.20095 -1.78417,3.98511 -3.98511,3.98511 z"
       style="fill:#fff2e6;fill-opacity:1;fill-rule:nonzero;stroke:#ffa64c;stroke-width:0.79701;stroke-linecap:butt;stroke-linejoin:miter;stroke-miterlimit:10;stroke-dasharray:none;stroke-opacity:1"
       transform="matrix(1.3333333,0,0,-1.3333333,198.368,19.428)" />
    <g
       id="g18"
       aria-label="∂L/∂w&#10;hidden"
       transform="matrix(1.3333333,0,0,1.3333333,161.32933,378.02533)">
      <path
         id="path19"
         d="m 4.6162813,-3.3764219 c -0.1054688,-0.6210937 -0.515625,-1.171875 -1.2890625,-1.171875 -0.609375,0 -1.2539063,0.1523438 -2.0273438,0.9257813 -0.83203125,0.8320312 -0.90234375,1.7578125 -0.90234375,2.0625 0,0.62109373 0.43359375,1.78124998 1.82812505,1.78124998 2.3789062,0 3.4101562,-3.35156248 3.4101562,-4.76953128 0,-1.59375 -0.9257812,-2.5898437 -2.1445312,-2.5898437 -1.453125,0 -1.9101563,1.3007812 -1.9101563,1.5820312 0,0.140625 0.082031,0.3398438 0.375,0.3398438 0.3398438,0 0.5390625,-0.2929688 0.5390625,-0.5273438 0,-0.3398437 -0.3046875,-0.3398437 -0.46875,-0.3398437 0.4453125,-0.7382813 1.1484375,-0.796875 1.4414063,-0.796875 0.7265625,0 1.4179687,0.515625 1.4179687,1.7929687 0,0.3984375 -0.058594,0.9023438 -0.2695312,1.7109375 z m -2.3554688,3.31640628 c -1.1015625,0 -1.1015625,-1.03124998 -1.1015625,-1.12499998 0,-0.2695313 0.2578125,-1.6640625 0.6679688,-2.2617188 0.3984375,-0.5742187 0.8789062,-0.890625 1.5,-0.890625 1.0898437,0 1.1015625,1.1132813 1.1015625,1.3125 0,0.7265625 -0.6328125,2.96484378 -2.1679688,2.96484378 z m 7.3125,-5.96484378 c 0.09375,-0.3632812 0.1171875,-0.46875 1.0546875,-0.46875 0.304688,0 0.375,0 0.375,-0.1875 0,-0.1289062 -0.105469,-0.1289062 -0.152344,-0.1289062 -0.328125,0 -1.1484372,0.035156 -1.4765622,0.035156 -0.3046875,0 -1.03125,-0.035156 -1.3242188,-0.035156 -0.070312,0 -0.1875,0 -0.1875,0.1992187 0,0.1171875 0.082031,0.1171875 0.28125,0.1171875 0.011719,0 0.1992188,0 0.375,0.011719 0.1757813,0.023437 0.2695313,0.035156 0.2695313,0.1640625 0,0.035156 -0.011719,0.070312 -0.046875,0.1875 l -1.3359375,5.35546873 c -0.09375,0.38671875 -0.1171875,0.46875 -0.9023438,0.46875 -0.1640625,0 -0.2695312,0 -0.2695312,0.19921875 0,0.10546875 0.09375,0.10546875 0.2695312,0.10546875 h 4.617188 c 0.234375,0 0.246093,0 0.304687,-0.1640625 l 0.785156,-2.15625003 c 0.04687,-0.1054687 0.04687,-0.1289062 0.04687,-0.140625 0,-0.035156 -0.03516,-0.1054687 -0.128906,-0.1054687 -0.08203,0 -0.09375,0.046875 -0.164062,0.2109375 -0.339844,0.9140625 -0.773438,2.05078123 -2.4960942,2.05078123 h -0.9375 c -0.140625,0 -0.1640625,0 -0.2226563,-0.0117188 -0.1054687,-0.0117188 -0.1289062,-0.0234375 -0.1289062,-0.10546875 0,-0.0234375 0,-0.046875 0.046875,-0.22265625 z m 7.4150395,-1.0664062 c 0.04687,-0.1289063 0.04687,-0.1757813 0.04687,-0.1875 0,-0.1054688 -0.08203,-0.1992188 -0.199219,-0.1992188 -0.07031,0 -0.128906,0.035156 -0.164063,0.09375 l -3.457031,9.4921875 c -0.04687,0.1289063 -0.04687,0.1757813 -0.04687,0.1875 0,0.1054688 0.08203,0.1992188 0.199219,0.1992188 0.128906,0 0.152344,-0.070312 0.210937,-0.2460938 z m 5.226562,3.7148437 c -0.105469,-0.6210937 -0.515625,-1.171875 -1.289062,-1.171875 -0.609375,0 -1.253907,0.1523438 -2.027344,0.9257813 -0.832031,0.8320312 -0.902344,1.7578125 -0.902344,2.0625 0,0.62109373 0.433594,1.78124998 1.828125,1.78124998 2.378906,0 3.410156,-3.35156248 3.410156,-4.76953128 0,-1.59375 -0.925781,-2.5898437 -2.144531,-2.5898437 -1.453125,0 -1.910156,1.3007812 -1.910156,1.5820312 0,0.140625 0.08203,0.3398438 0.375,0.3398438 0.339844,0 0.539062,-0.2929688 0.539062,-0.5273438 0,-0.3398437 -0.304687,-0.3398437 -0.46875,-0.3398437 0.445313,-0.7382813 1.148438,-0.796875 1.441407,-0.796875 0.726562,0 1.417968,0.515625 1.417968,1.7929687 0,0.3984375 -0.05859,0.9023438 -0.269531,1.7109375 z m -2.355469,3.31640628 c -1.101562,0 -1.101562,-1.03124998 -1.101562,-1.12499998 0,-0.2695313 0.257812,-1.6640625 0.667969,-2.2617188 0.398437,-0.5742187 0.878906,-0.890625 1.5,-0.890625 1.089843,0 1.101562,1.1132813 1.101562,1.3125 0,0.7265625 -0.632812,2.96484378 -2.167969,2.96484378 z m 8.191407,-3.31640628 c 0.04687,-0.2226562 0.140625,-0.5859375 0.140625,-0.6445312 0,-0.1875 -0.128907,-0.2695313 -0.28125,-0.2695313 -0.117188,0 -0.304688,0.070312 -0.375,0.2695313 -0.02344,0.070312 -0.492188,1.9804687 -0.5625,2.2382812 -0.07031,0.2929688 -0.09375,0.4804688 -0.09375,0.65625 0,0.1054688 0,0.12890628 0.01172,0.17578128 -0.222656,0.52734375 -0.527343,0.84375 -0.914062,0.84375 -0.796875,0 -0.796875,-0.73828125 -0.796875,-0.91406248 0,-0.3164063 0.04687,-0.703125 0.515625,-1.9335938 0.105469,-0.2929687 0.175781,-0.4335937 0.175781,-0.6328125 0,-0.4453125 -0.328125,-0.8203125 -0.820312,-0.8203125 -0.949219,0 -1.3125,1.453125 -1.3125,1.5351563 0,0.1054687 0.09375,0.1054687 0.117187,0.1054687 0.09375,0 0.105469,-0.023437 0.152344,-0.1875 0.269531,-0.9257812 0.667969,-1.2304687 1.007812,-1.2304687 0.09375,0 0.257813,0.011719 0.257813,0.328125 0,0.2460937 -0.117188,0.5273437 -0.1875,0.703125 -0.433594,1.171875 -0.550781,1.6289062 -0.550781,2.0039062 0,0.91406253 0.667968,1.25390628 1.40625,1.25390628 0.175781,0 0.644531,0 1.042968,-0.69140625 0.257813,0.6328125 0.949219,0.69140625 1.242188,0.69140625 0.75,0 1.183594,-0.62109375 1.441406,-1.21874998 0.339844,-0.7851563 0.65625,-2.109375 0.65625,-2.5898438 0,-0.5507812 -0.269531,-0.703125 -0.433594,-0.703125 -0.246093,0 -0.503906,0.2578125 -0.503906,0.4804688 0,0.1289062 0.07031,0.1875 0.152344,0.2695312 0.117187,0.1054688 0.363281,0.3632813 0.363281,0.84375 0,0.3398438 -0.292969,1.3125 -0.550781,1.82812503 -0.257813,0.52734375 -0.609375,0.87890625 -1.089844,0.87890625 -0.46875,0 -0.738281,-0.3046875 -0.738281,-0.8671875 0,-0.28124998 0.07031,-0.58593748 0.105469,-0.72656248 z m 0,0"
         style="fill:#000000;fill-opacity:1;fill-rule:nonzero;stroke:none" />
      <path
         id="path20"
         d="m 32.758859,-3.1361875 c 0.01172,-0.011719 0.03516,-0.1054687 0.03516,-0.1171875 0,-0.035156 -0.03516,-0.09375 -0.117188,-0.09375 -0.140625,0 -0.714844,0.058594 -0.890625,0.070312 -0.05859,0.011719 -0.152344,0.011719 -0.152344,0.1640625 0,0.09375 0.09375,0.09375 0.175782,0.09375 0.339843,0 0.339843,0.046875 0.339843,0.1054688 0,0.046875 -0.01172,0.09375 -0.03516,0.1523437 l -0.972656,3.9492188 c -0.03516,0.1289062 -0.03516,0.140625 -0.03516,0.1523437 0,0.1054688 0.08203,0.2226563 0.234375,0.2226563 0.07031,0 0.210937,-0.035156 0.28125,-0.1875 0.02344,-0.035156 0.08203,-0.2929688 0.117187,-0.4335938 l 0.164063,-0.62109375 c 0.02344,-0.10546875 0.09375,-0.36328125 0.117187,-0.46875 0.07031,-0.26953125 0.07031,-0.28125 0.199219,-0.50390625 0.222656,-0.33984375 0.574219,-0.7382812 1.125,-0.7382812 0.386719,0 0.410156,0.328125 0.410156,0.49218745 0,0.421875 -0.304687,1.1953125 -0.410156,1.48828125 -0.08203,0.1875 -0.105469,0.2578125 -0.105469,0.375 0,0.3632813 0.304688,0.5976563 0.65625,0.5976563 0.703125,0 1.007813,-0.96093755 1.007813,-1.0664063 0,-0.09375 -0.09375,-0.09375 -0.117188,-0.09375 -0.09375,0 -0.105469,0.046875 -0.128906,0.1171875 -0.164063,0.5625 -0.46875,0.84375 -0.738281,0.84375 -0.140625,0 -0.175782,-0.09375 -0.175782,-0.2460937 0,-0.1523438 0.03516,-0.2460938 0.164063,-0.56250005 0.08203,-0.2109375 0.363281,-0.94921875 0.363281,-1.34765625 0,-0.10546875 0,-0.3984375 -0.257812,-0.5976562 -0.117188,-0.09375 -0.316407,-0.1875 -0.644532,-0.1875 -0.503906,0 -0.878906,0.2695312 -1.136718,0.5742187 z m 4.746094,0.2695313 c 0,-0.1054688 -0.08203,-0.2578125 -0.28125,-0.2578125 -0.1875,0 -0.386719,0.1757812 -0.386719,0.375 0,0.1171875 0.08203,0.2695312 0.269532,0.2695312 0.210937,0 0.398437,-0.1992187 0.398437,-0.3867187 z m -1.429687,3.53906245 c -0.02344,0.09375 -0.05859,0.17578125 -0.05859,0.29296875 0,0.328125 0.28125,0.5976563 0.667969,0.5976563 0.691406,0 0.996093,-0.96093755 0.996093,-1.0664063 0,-0.09375 -0.08203,-0.09375 -0.105468,-0.09375 -0.105469,0 -0.105469,0.046875 -0.140625,0.1171875 -0.152344,0.5625 -0.457032,0.84375 -0.738282,0.84375 -0.140625,0 -0.175781,-0.082031 -0.175781,-0.2460937 0,-0.1523438 0.05859,-0.2929688 0.117188,-0.44531255 0.07031,-0.1875 0.140625,-0.375 0.222656,-0.55078125 0.05859,-0.1640625 0.316406,-0.80859375 0.339844,-0.890625 0.02344,-0.0703125 0.04687,-0.15234375 0.04687,-0.22265625 0,-0.32812495 -0.28125,-0.58593745 -0.667969,-0.58593745 -0.691406,0 -1.007813,0.9492187 -1.007813,1.0664062 0,0.0820313 0.09375,0.0820313 0.117188,0.0820313 0.09375,0 0.105469,-0.0351563 0.128906,-0.10546875 0.175781,-0.59765615 0.480469,-0.85546865 0.738281,-0.85546865 0.117188,0 0.175782,0.058594 0.175782,0.2460937 0,0.16406245 -0.03516,0.2695312 -0.210938,0.70312495 z m 5.970703,-3.80859375 c 0,-0.011719 0.02344,-0.1054687 0.02344,-0.1171875 0,-0.035156 -0.02344,-0.09375 -0.105468,-0.09375 -0.140625,0 -0.726563,0.058594 -0.902344,0.070312 -0.04687,0.011719 -0.152344,0.011719 -0.152344,0.1640625 0,0.09375 0.105469,0.09375 0.1875,0.09375 0.328125,0 0.328125,0.046875 0.328125,0.1054688 0,0.046875 -0.01172,0.09375 -0.02344,0.1523437 L 41.003,-1.167438 c -0.140625,-0.234375 -0.386719,-0.4101562 -0.714844,-0.4101562 -0.890625,0 -1.804687,0.9726562 -1.804687,1.9804687 0,0.6796875 0.457031,1.1601563 1.054687,1.1601563 0.375,0 0.714844,-0.2109375 0.996094,-0.4921875 0.128906,0.421875 0.527344,0.4921875 0.714844,0.4921875 0.246094,0 0.421875,-0.1523438 0.550781,-0.375 0.152344,-0.2695313 0.246094,-0.6679688 0.246094,-0.6914063 0,-0.09375 -0.09375,-0.09375 -0.117188,-0.09375 -0.09375,0 -0.105468,0.0351563 -0.152343,0.22265625 -0.08203,0.328125 -0.210938,0.73828125 -0.503907,0.73828125 -0.1875,0 -0.234375,-0.1523437 -0.234375,-0.3398437 0,-0.1289063 0.01172,-0.1992188 0.03516,-0.28125005 z m -1.488281,3.76171875 c -0.04687,0.1875 -0.199219,0.328125 -0.351563,0.45703125 -0.07031,0.058594 -0.339844,0.28125 -0.644531,0.28125 -0.257813,0 -0.515625,-0.1757812 -0.515625,-0.66796875 0,-0.375 0.210937,-1.13671875 0.363281,-1.41796875 0.328125,-0.5625 0.679688,-0.6679687 0.878906,-0.6679687 0.480469,0 0.621094,0.5273437 0.621094,0.60937495 0,0.0234375 -0.01172,0.0820313 -0.02344,0.09375 z m 5.636718,-3.76171875 c 0,-0.011719 0.02344,-0.1054687 0.02344,-0.1171875 0,-0.035156 -0.02344,-0.09375 -0.105469,-0.09375 -0.140625,0 -0.726562,0.058594 -0.902344,0.070312 -0.04687,0.011719 -0.152343,0.011719 -0.152343,0.1640625 0,0.09375 0.105468,0.09375 0.1875,0.09375 0.328125,0 0.328125,0.046875 0.328125,0.1054688 0,0.046875 -0.01172,0.09375 -0.02344,0.1523437 l -0.398437,1.59375 c -0.140625,-0.234375 -0.386719,-0.4101562 -0.714844,-0.4101562 -0.890625,0 -1.804688,0.9726562 -1.804688,1.9804687 0,0.6796875 0.457032,1.1601563 1.054688,1.1601563 0.375,0 0.714844,-0.2109375 0.996094,-0.4921875 0.128906,0.421875 0.527343,0.4921875 0.714843,0.4921875 0.246094,0 0.421875,-0.1523438 0.550782,-0.375 0.152343,-0.2695313 0.246093,-0.6679688 0.246093,-0.6914063 0,-0.09375 -0.09375,-0.09375 -0.117187,-0.09375 -0.09375,0 -0.105469,0.0351563 -0.152344,0.22265625 -0.08203,0.328125 -0.210937,0.73828125 -0.503906,0.73828125 -0.1875,0 -0.234375,-0.1523437 -0.234375,-0.3398437 0,-0.1289063 0.01172,-0.1992188 0.03516,-0.28125005 z m -1.488281,3.76171875 c -0.04687,0.1875 -0.199219,0.328125 -0.351562,0.45703125 -0.07031,0.058594 -0.339844,0.28125 -0.644532,0.28125 -0.257812,0 -0.515625,-0.1757812 -0.515625,-0.66796875 0,-0.375 0.210938,-1.13671875 0.363282,-1.41796875 0.328125,-0.5625 0.679687,-0.6679687 0.878906,-0.6679687 0.480469,0 0.621094,0.5273437 0.621094,0.60937495 0,0.0234375 -0.01172,0.0820313 -0.02344,0.09375 z m 3.208008,-0.7265625 c 0.199219,0 0.75,-0.0117188 1.125,-0.140625 0.515625,-0.1875 0.609375,-0.515625 0.609375,-0.7265625 0,-0.38671875 -0.375,-0.60937495 -0.855469,-0.60937495 -0.84375,0 -1.96875,0.63281245 -1.96875,1.82812495 0,0.703125 0.433594,1.31250005 1.253906,1.31250005 1.183594,0 1.734375,-0.6914063 1.734375,-0.7851563 0,-0.046875 -0.07031,-0.1171875 -0.128906,-0.1171875 -0.03516,0 -0.04687,0.0117188 -0.105469,0.0703125 -0.550781,0.6328125 -1.359375,0.6328125 -1.488281,0.6328125 -0.421875,0 -0.691406,-0.28125 -0.691406,-0.84375 0,-0.09375 0,-0.234375 0.08203,-0.62109375 z m -0.375,-0.1875 c 0.28125,-1.01953125 1.054687,-1.10156245 1.253906,-1.10156245 0.304688,0 0.5625,0.1523437 0.5625,0.42187495 0,0.6796875 -1.183594,0.6796875 -1.476562,0.6796875 z M 50.993234,1.059125 c -0.03516,0.082031 -0.07031,0.2578125 -0.07031,0.28125 0,0.1523438 0.117187,0.2226563 0.234375,0.2226563 0.128906,0 0.234375,-0.09375 0.269531,-0.1523438 0.03516,-0.058594 0.09375,-0.2929687 0.128906,-0.43359375 0.03516,-0.12890625 0.105469,-0.45703125 0.152344,-0.6328125 0.03516,-0.15234375 0.08203,-0.3046875 0.117188,-0.45703125 0.08203,-0.29296875 0.09375,-0.3515625 0.292968,-0.6328125 0.199219,-0.28125 0.527344,-0.6445312 1.042969,-0.6445312 0.410156,0 0.410156,0.3632812 0.410156,0.49218745 0,0.421875 -0.292968,1.1953125 -0.410156,1.48828125 -0.07031,0.1875 -0.105469,0.2578125 -0.105469,0.375 0,0.3632813 0.304688,0.5976563 0.667969,0.5976563 0.691406,0 1.007813,-0.96093755 1.007813,-1.0664063 0,-0.09375 -0.09375,-0.09375 -0.117188,-0.09375 -0.09375,0 -0.105469,0.046875 -0.128906,0.1171875 -0.164063,0.5625 -0.46875,0.84375 -0.738281,0.84375 -0.152344,0 -0.175782,-0.09375 -0.175782,-0.2460937 0,-0.1523438 0.03516,-0.2460938 0.152344,-0.56250005 0.09375,-0.2109375 0.375,-0.94921875 0.375,-1.34765625 0,-0.6679687 -0.539062,-0.7851562 -0.902344,-0.7851562 -0.585937,0 -0.972656,0.3515625 -1.183593,0.63281245 -0.04687,-0.48046875 -0.457032,-0.63281245 -0.75,-0.63281245 -0.292969,0 -0.457032,0.2109375 -0.550782,0.375 -0.152343,0.25781245 -0.246093,0.65624995 -0.246093,0.6914062 0,0.0820313 0.09375,0.0820313 0.117187,0.0820313 0.09375,0 0.105469,-0.0117188 0.152344,-0.19921875 0.105469,-0.42187495 0.234375,-0.76171865 0.515625,-0.76171865 0.175781,0 0.222656,0.1523437 0.222656,0.3398437 0,0.14062495 -0.05859,0.39843745 -0.105469,0.58593745 -0.04687,0.1875 -0.117187,0.46875 -0.152343,0.62109375 z m 0,0"
         style="fill:#000000;fill-opacity:1;fill-rule:nonzero;stroke:none" />
    </g>
    <path
       id="path21"
       d="m 0,-173.31425 v -24.95957"
       style="fill:none;stroke:#b3b3b3;stroke-width:0.79701;stroke-linecap:butt;stroke-linejoin:miter;stroke-miterlimit:10;stroke-dasharray:none;stroke-opacity:1"
       transform="matrix(1.3333333,0,0,-1.3333333,198.368,19.428)" />
    <path
       id="path22"
       d="M 2.59026,0 -1.55415,2.0722 0,0 -1.55415,-2.0722"
       style="fill:#b3b3b3;fill-opacity:1;fill-rule:nonzero;stroke:none"
       transform="matrix(0,1.3333333,1.3333333,0,198.368,283.79309)" />
    <path
       id="path23"
       d="m 0,-230.00789 v -19.29028"
       style="fill:none;stroke:#b3b3b3;stroke-width:0.79701;stroke-linecap:butt;stroke-linejoin:miter;stroke-miterlimit:10;stroke-dasharray:none;stroke-opacity:1"
       transform="matrix(1.3333333,0,0,-1.3333333,198.368,19.428)" />
    <path
       id="path24"
       d="M 2.59026,0 -1.55415,2.0722 0,0 -1.55415,-2.0722"
       style="fill:#b3b3b3;fill-opacity:1;fill-rule:nonzero;stroke:none"
       transform="matrix(0,1.3333333,1.3333333,0,198.368,351.82556)" />
    <path
       id="path25"
       d="m 38.53511,-308.98058 h -77.07022 c -2.20094,0 -3.98511,-1.78418 -3.98511,-3.9851 v -20.37659 c 0,-2.20094 1.78417,-3.98511 3.98511,-3.98511 h 77.07022 c 2.20094,0 3.98511,1.78417 3.98511,3.98511 v 20.37659 c 0,2.20092 -1.78417,3.9851 -3.98511,3.9851 z"
       style="fill:#e6ffe6;fill-opacity:1;fill-rule:nonzero;stroke:#66ff66;stroke-width:0.79701;stroke-linecap:butt;stroke-linejoin:miter;stroke-miterlimit:10;stroke-dasharray:none;stroke-opacity:1"
       transform="matrix(1.3333333,0,0,-1.3333333,198.368,19.428)" />
    <path
       id="path26"
       d="m 5.8019688,-2.2959844 c 0,1.40625003 -0.9726563,2.20312503 -1.9101563,2.20312503 -0.46875,0 -1.6523437,-0.24609375 -1.6523437,-2.13281253 v -3.796875 c 0,-0.3632812 0.023437,-0.46875 0.7851562,-0.46875 h 0.2460938 v -0.3164062 c -0.3515625,0.035156 -1.0898438,0.035156 -1.4648438,0.035156 -0.375,0 -1.125,0 -1.4765625,-0.035156 v 0.3164062 h 0.234375 c 0.7734375,0 0.796875,0.1054688 0.796875,0.46875 v 3.75 c 0,1.40625003 1.1484375,2.49609378 2.5078125,2.49609378 1.1484375,0 2.0390625,-0.92578125 2.2148438,-2.06249998 0.023437,-0.1992188 0.023437,-0.2929688 0.023437,-0.6914063 v -3.1875 c 0,-0.328125 0,-0.7734375 1.03125,-0.7734375 v -0.3164062 c -0.3632813,0.011719 -0.84375,0.035156 -1.1835938,0.035156 -0.3398437,0 -0.8203125,-0.023437 -1.1835937,-0.035156 v 0.3164062 c 1.03125,0 1.03125,0.46875 1.03125,0.7382813 z m 3.3808593,-1.453125 v -0.65625 l -1.4296875,0.1171875 v 0.3046875 c 0.703125,0 0.7734375,0.058594 0.7734375,0.4921875 v 4.6640625 c 0,0.4570313 -0.1054687,0.4570313 -0.7734375,0.4570313 v 0.3046875 c 0.3398438,-0.011719 0.8554688,-0.035156 1.1132813,-0.035156 0.2695312,0 0.7734375,0.023437 1.125,0.035156 V 1.6297969 c -0.6679688,0 -0.7734375,0 -0.7734375,-0.4570313 v -1.75781247 c 0.046875,0.15234375 0.46875,0.69140625 1.2187496,0.69140625 1.183594,0 2.226563,-0.97265625 2.226563,-2.26171878 0,-1.265625 -0.972656,-2.25 -2.085938,-2.25 -0.7734371,0 -1.1953121,0.4453125 -1.3945309,0.65625 z m 0.035156,2.6132813 v -2.2148438 c 0.28125,-0.515625 0.7734375,-0.796875 1.2773439,-0.796875 0.726563,0 1.335938,0.8671875 1.335938,1.9921875 0,1.20703128 -0.691407,2.05078128 -1.429688,2.05078128 -0.398437,0 -0.7734377,-0.19921875 -1.0429689,-0.609375 -0.140625,-0.2109375 -0.140625,-0.22265625 -0.140625,-0.42187498 z m 7.8544929,0.58593748 v 0.65625 L 18.53732,8.90625e-4 V -0.30379687 c -0.703125,0 -0.773437,-0.0703125 -0.773437,-0.5625 V -6.9131719 l -1.441406,0.1054688 v 0.3164062 c 0.703125,0 0.785156,0.070312 0.785156,0.5507813 v 2.15625 c -0.292969,-0.3632813 -0.726563,-0.6210938 -1.265625,-0.6210938 -1.171875,0 -2.214844,0.984375 -2.214844,2.2617188 0,1.26562498 0.972656,2.24999998 2.109375,2.24999998 0.644531,0 1.089844,-0.33984375 1.335938,-0.65625 z m 0,-2.67187498 v 2.0507812 c 0,0.17578128 0,0.19921878 -0.105469,0.36328128 -0.304688,0.48046875 -0.75,0.703125 -1.183594,0.703125 -0.445312,0 -0.796875,-0.2578125 -1.042969,-0.64453125 -0.257812,-0.41015623 -0.292968,-0.97265623 -0.292968,-1.38281253 0,-0.3632812 0.02344,-0.9609375 0.316406,-1.4179687 0.210937,-0.3046875 0.585937,-0.6328125 1.125,-0.6328125 0.351562,0 0.761719,0.1523437 1.078125,0.5976562 0.105469,0.1640625 0.105469,0.1875 0.105469,0.3632813 z m 5.065429,2.46093748 c 0.03516,0.3984375 0.304688,0.8203125 0.773438,0.8203125 0.210937,0 0.820312,-0.140625 0.820312,-0.94921875 V -1.4405156 h -0.246093 v 0.55078123 c 0,0.5859375 -0.246094,0.64453125 -0.363282,0.64453125 -0.328125,0 -0.363281,-0.45703125 -0.363281,-0.50390625 V -2.7412969 c 0,-0.4101562 0,-0.8085937 -0.363281,-1.171875 -0.386719,-0.3867187 -0.878906,-0.5507812 -1.359375,-0.5507812 -0.820313,0 -1.511719,0.46875 -1.511719,1.125 0,0.3046875 0.199219,0.46875 0.457031,0.46875 0.28125,0 0.46875,-0.1992188 0.46875,-0.4570313 0,-0.1171875 -0.05859,-0.4453125 -0.515625,-0.4570312 0.269532,-0.3515625 0.761719,-0.4570313 1.078125,-0.4570313 0.492188,0 1.054688,0.3867188 1.054688,1.2773438 v 0.3632812 c -0.503906,0.035156 -1.207031,0.058594 -1.828125,0.3632813 -0.75,0.3398437 -0.996094,0.8554687 -0.996094,1.28906248 0,0.80859375 0.960938,1.0546875 1.59375,1.0546875 0.65625,0 1.113281,-0.3984375 1.300781,-0.8671875 z m -0.07031,-1.62890628 v 0.9960938 c 0,0.94921873 -0.714844,1.28906248 -1.160156,1.28906248 -0.492188,0 -0.902344,-0.3515625 -0.902344,-0.85546875 0,-0.53906253 0.421875,-1.37109373 2.0625,-1.42968753 z m 3.457031,-1.59375 h 1.429688 v -0.3046875 h -1.429688 v -1.8398437 h -0.246094 c -0.01172,0.8203125 -0.316406,1.8867187 -1.289062,1.921875 v 0.2226562 h 0.84375 v 2.7539063 c 0,1.21874998 0.925781,1.33593748 1.289062,1.33593748 0.703125,0 0.984375,-0.703125 0.984375,-1.33593748 v -0.5742188 h -0.246093 v 0.5507813 c 0,0.73828123 -0.304688,1.11328123 -0.667969,1.11328123 -0.667969,0 -0.667969,-0.90234373 -0.667969,-1.07812503 z m 3.266602,1.4765625 c 0.05859,-1.4882812 0.902343,-1.734375 1.242187,-1.734375 1.019531,0 1.125,1.3476563 1.125,1.734375 z m -0.01172,0.2109375 h 2.789062 c 0.210938,0 0.246094,0 0.246094,-0.2109375 0,-0.984375 -0.539062,-1.9570312 -1.78125,-1.9570312 -1.160156,0 -2.074219,1.03125 -2.074219,2.2734375 0,1.33593748 1.042969,2.29687498 2.191407,2.29687498 1.21875,0 1.664062,-1.1015625 1.664062,-1.28906248 0,-0.1054688 -0.08203,-0.1171875 -0.128906,-0.1171875 -0.09375,0 -0.117188,0.058594 -0.128906,0.140625 -0.351563,1.01953123 -1.253907,1.01953123 -1.347657,1.01953123 -0.503906,0 -0.902343,-0.29296875 -1.125,-0.66796875 C 28.779508,-1.2881719 28.779508,-1.9444219 28.779509,-2.2959844 Z m 15.700195,-3.5273437 c 0.175781,-0.5742188 0.609375,-0.6679688 0.996094,-0.6679688 v -0.3164062 c -0.304688,0.023437 -0.609375,0.035156 -0.914063,0.035156 -0.28125,0 -0.925781,-0.023437 -1.183593,-0.035156 v 0.3164062 c 0.667968,0.011719 0.867187,0.3398438 0.867187,0.5273438 0,0.058594 -0.02344,0.140625 -0.04687,0.1992187 l -1.5,4.6054688 -1.59375,-4.8867188 c 0,-0.035156 -0.02344,-0.09375 -0.02344,-0.1523437 0,-0.2929688 0.574218,-0.2929688 0.832031,-0.2929688 v -0.3164062 c -0.351563,0.035156 -1.03125,0.035156 -1.40625,0.035156 -0.386719,0 -0.808594,-0.023437 -1.21875,-0.035156 v 0.3164062 c 0.5625,0 0.773437,0 0.890625,0.3515625 l 0.222656,0.703125 -1.382812,4.2773438 -1.605469,-4.9101563 c -0.01172,-0.023437 -0.02344,-0.09375 -0.02344,-0.1289062 0,-0.2929688 0.585938,-0.2929688 0.84375,-0.2929688 v -0.3164062 c -0.363281,0.035156 -1.042968,0.035156 -1.417968,0.035156 -0.375,0 -0.808594,-0.023437 -1.21875,-0.035156 v 0.3164062 c 0.75,0 0.785156,0.046875 0.914062,0.4101563 l 1.992188,6.11718748 c 0.02344,0.08203125 0.05859,0.1875 0.1875,0.1875 0.140625,0 0.152343,-0.0703125 0.199218,-0.19921875 l 1.640625,-5.06250003 1.652344,5.07421878 c 0.03516,0.08203125 0.05859,0.1875 0.1875,0.1875 0.140625,0 0.164063,-0.0703125 0.199219,-0.19921875 z m 1.467774,3.3164062 c 0.05859,-1.4882812 0.902343,-1.734375 1.242187,-1.734375 1.019531,0 1.125,1.3476563 1.125,1.734375 z m -0.01172,0.2109375 h 2.789062 c 0.210938,0 0.246094,0 0.246094,-0.2109375 0,-0.984375 -0.539062,-1.9570312 -1.78125,-1.9570312 -1.160156,0 -2.074219,1.03125 -2.074219,2.2734375 0,1.33593748 1.042969,2.29687498 2.191407,2.29687498 1.21875,0 1.664062,-1.1015625 1.664062,-1.28906248 0,-0.1054688 -0.08203,-0.1171875 -0.128906,-0.1171875 -0.09375,0 -0.117188,0.058594 -0.128906,0.140625 -0.351563,1.01953123 -1.253907,1.01953123 -1.347657,1.01953123 -0.503906,0 -0.902343,-0.29296875 -1.125,-0.66796875 C 45.935758,-1.2881719 45.935758,-1.9444219 45.935758,-2.2959844 Z m 5.083008,-2.109375 -1.394532,0.1171875 v 0.3046875 c 0.65625,0 0.738282,0.058594 0.738282,0.5507813 v 2.67187498 c 0,0.45703125 -0.105469,0.45703125 -0.773438,0.45703125 V 8.90625e-4 c 0.316406,-0.011718745 0.855469,-0.035156245 1.101563,-0.035156245 0.339843,0 0.691406,0.0234375 1.03125,0.035156245 V -0.30379687 c -0.65625,0 -0.703125,-0.0585938 -0.703125,-0.4453125 z m 0.04687,-1.734375 c 0,-0.3164062 -0.246094,-0.5273437 -0.527344,-0.5273437 -0.316406,0 -0.527344,0.2695312 -0.527344,0.5273437 0,0.2695313 0.210938,0.5273438 0.527344,0.5273438 0.28125,0 0.527344,-0.1992188 0.527344,-0.5273438 z m 3.178711,4.4296875 c -0.867188,0 -0.867188,-0.9960937 -0.867188,-1.2304687 0,-0.2695313 0.01172,-0.5859375 0.152344,-0.8320313 0.08203,-0.1171875 0.316406,-0.3984375 0.714844,-0.3984375 0.867187,0 0.867187,0.9960938 0.867187,1.21875 0,0.2695313 -0.01172,0.5976563 -0.164062,0.84375 -0.08203,0.1171875 -0.304688,0.3984375 -0.703125,0.3984375 z m -1.160157,0.3867188 c 0,-0.035156 0,-0.2695313 0.175782,-0.46875 0.386718,0.28125 0.796875,0.3046875 0.984375,0.3046875 0.925781,0 1.605468,-0.6796875 1.605468,-1.453125 0,-0.3632813 -0.152343,-0.7382813 -0.398437,-0.9609375 0.351562,-0.3398438 0.714844,-0.3867188 0.890625,-0.3867188 0.02344,0 0.07031,0 0.105469,0 -0.117188,0.046875 -0.164063,0.1523438 -0.164063,0.2695313 0,0.1757812 0.128906,0.2929687 0.292969,0.2929687 0.09375,0 0.28125,-0.070312 0.28125,-0.2929687 0,-0.1757813 -0.117188,-0.4921875 -0.503906,-0.4921875 -0.199219,0 -0.632813,0.058594 -1.054688,0.46875 -0.421875,-0.328125 -0.84375,-0.3632813 -1.054687,-0.3632813 -0.925782,0 -1.617188,0.6914063 -1.617188,1.453125 0,0.4453125 0.222656,0.8203125 0.46875,1.03125 -0.128906,0.1523438 -0.304687,0.4804688 -0.304687,0.8203125 0,0.31640628 0.128906,0.69140628 0.433593,0.89062503 -0.597656,0.17578125 -0.914062,0.59765625 -0.914062,0.99609375 0,0.71484372 0.984375,1.26562502 2.203125,1.26562502 1.171875,0 2.203125,-0.5039063 2.203125,-1.28906252 0,-0.33984375 -0.140625,-0.85546875 -0.644531,-1.125 -0.527344,-0.28125 -1.101563,-0.28125 -1.710938,-0.28125 -0.246094,0 -0.679687,0 -0.75,-0.0117188 -0.316406,-0.046875 -0.527344,-0.35156248 -0.527344,-0.66796868 z m 1.441407,3.1523437 c -1.007813,0 -1.699219,-0.515625 -1.699219,-1.04296872 0,-0.45703125 0.375,-0.8203125 0.820312,-0.85546875 h 0.585938 c 0.855469,0 1.96875,0 1.96875,0.85546875 0,0.53906252 -0.703125,1.04296872 -1.675781,1.04296872 z m 3.585937,-2.58984372 c 0,0.45703125 -0.117187,0.45703125 -0.785156,0.45703125 V 8.90625e-4 c 0.351562,-0.011718745 0.855469,-0.035156245 1.125,-0.035156245 0.257812,0 0.785156,0.0234375 1.113281,0.035156245 V -0.30379687 c -0.65625,0 -0.773437,0 -0.773437,-0.45703125 V -2.5889531 c 0,-1.03125 0.714843,-1.59375 1.347656,-1.59375 0.621094,0 0.738281,0.5390625 0.738281,1.1015625 v 2.32031248 c 0,0.45703125 -0.117187,0.45703125 -0.773437,0.45703125 V 8.90625e-4 c 0.339843,-0.011718745 0.855468,-0.035156245 1.125,-0.035156245 0.257812,0 0.773437,0.0234375 1.113281,0.035156245 V -0.30379687 c -0.515625,0 -0.773438,0 -0.785156,-0.3046875 V -2.5069219 c 0,-0.8554687 0,-1.171875 -0.304688,-1.5234375 -0.140625,-0.1757812 -0.46875,-0.375 -1.042969,-0.375 -0.84375,0 -1.277343,0.5976563 -1.441406,0.984375 v -3.4921875 l -1.441406,0.1054688 v 0.3164062 c 0.703125,0 0.785156,0.070312 0.785156,0.5507813 z m 5.876953,-3.22265628 h 1.429688 v -0.3046875 h -1.429688 v -1.8398437 h -0.246094 c -0.01172,0.8203125 -0.316406,1.8867187 -1.289062,1.921875 v 0.2226562 h 0.84375 v 2.7539063 c 0,1.21874998 0.925781,1.33593748 1.289062,1.33593748 0.703125,0 0.984375,-0.703125 0.984375,-1.33593748 V -1.8037969 H 65.32443 v 0.5507813 c 0,0.73828123 -0.304688,1.11328123 -0.667969,1.11328123 -0.667969,0 -0.667969,-0.90234373 -0.667969,-1.07812503 z m 4.227539,2.0507813 c 0.222657,0.035156 1.03125,0.1992187 1.03125,0.9140625 0,0.51562498 -0.351562,0.91406248 -1.125,0.91406248 -0.832031,0 -1.195312,-0.57421875 -1.382812,-1.41796878 -0.03516,-0.1289062 -0.03516,-0.1757812 -0.140625,-0.1757812 -0.128906,0 -0.128906,0.070312 -0.128906,0.2578125 v 1.31249998 c 0,0.1640625 0,0.234375 0.105468,0.234375 0.05859,0 0.07031,0 0.257813,-0.19921875 0.01172,-0.01171875 0.01172,-0.03515625 0.199219,-0.22265625 0.433593,0.421875 0.878906,0.421875 1.089843,0.421875 1.148438,0 1.605469,-0.66796875 1.605469,-1.38281248 0,-0.5273438 -0.292969,-0.8203125 -0.421875,-0.9492188 -0.328125,-0.3164062 -0.714844,-0.3984375 -1.136719,-0.46875 -0.550781,-0.1171875 -1.21875,-0.2460937 -1.21875,-0.8203125 0,-0.3515625 0.257813,-0.7617187 1.113282,-0.7617187 1.101562,0 1.148437,0.9023437 1.171875,1.2070312 0,0.09375 0.09375,0.09375 0.117187,0.09375 0.128906,0 0.128906,-0.046875 0.128906,-0.2460937 v -0.9960938 c 0,-0.1757812 0,-0.2460937 -0.117187,-0.2460937 -0.04687,0 -0.07031,0 -0.199219,0.1171875 -0.02344,0.046875 -0.128906,0.1289062 -0.164062,0.1640625 -0.375,-0.28125 -0.785157,-0.28125 -0.9375,-0.28125 -1.21875,0 -1.59375,0.6679687 -1.59375,1.2304687 0,0.3398438 0.164062,0.6210938 0.433593,0.84375 0.316407,0.2578125 0.597657,0.3164063 1.3125,0.4570313 z m 0,0"
       style="fill:#000000;fill-opacity:1;fill-rule:nonzero;stroke:none"
       aria-label="UpdateWeights"
       transform="matrix(1.3333333,0,0,1.3333333,151.65467,453.616)" />
    <path
       id="path27"
       d="M 0,-281.03224 V -305.9918"
       style="fill:none;stroke:#b3b3b3;stroke-width:0.79701;stroke-linecap:butt;stroke-linejoin:miter;stroke-miterlimit:10;stroke-dasharray:none;stroke-opacity:1"
       transform="matrix(1.3333333,0,0,-1.3333333,198.368,19.428)" />
    <path
       id="path28"
       d="M 2.59026,0 -1.55415,2.0722 0,0 -1.55415,-2.0722"
       style="fill:#b3b3b3;fill-opacity:1;fill-rule:nonzero;stroke:none"
       transform="matrix(0,1.3333333,1.3333333,0,198.368,427.41707)" />
    <path
       id="path29"
       d="M 5.9421719,-6.0951562 H 0.37576563 v 0.4335937 H 1.3484219 V -0.435 H 0.37576563 v 0.43359375 c 0.31640625,-0.0234375 1.28906247,-0.0234375 1.66406247,-0.0234375 0.421875,0 1.453125,0 1.8164063,0.0234375 V -0.435 H 2.6492031 v -2.4023437 h 0.4804688 c 0.8671875,0 0.9492187,0.3867187 0.9492187,1.0546875 H 4.5359219 V -4.325625 H 4.0788906 c 0,0.6679688 -0.082031,1.0546875 -0.9492187,1.0546875 H 2.6492031 v -2.390625 h 1.3125 c 1.4414063,0 1.6640625,0.6796875 1.8046875,1.7460938 h 0.4570313 z m 4.8427731,4.1367187 c 0,-1.171875 -0.8320309,-2.109375 -2.3554684,-2.109375 -1.5703125,0 -2.3554688,0.984375 -2.3554688,2.109375 0,1.11328125 0.8085938,2.015625 2.3554688,2.015625 1.6054684,0 2.3554684,-0.94921875 2.3554684,-2.015625 z m -2.3554684,1.62890625 c -1.1601563,0 -1.1601563,-0.94921875 -1.1601563,-1.72265625 0,-0.75 0,-1.6523437 1.1601563,-1.6523437 1.1601562,0 1.1601562,0.9023437 1.1601562,1.6523437 0,0.7734375 0,1.72265625 -1.1601562,1.72265625 z M 13.055453,-1.9584375 c 0,-0.65625 0.246094,-1.6875 1.113281,-1.7226562 -0.09375,0.1054687 -0.140625,0.2578125 -0.140625,0.3984375 0,0.3984375 0.316407,0.5742187 0.5625,0.5742187 0.292969,0 0.574219,-0.1992187 0.574219,-0.5742187 0,-0.4570313 -0.46875,-0.75 -0.996094,-0.75 -0.621093,0 -1.007812,0.4570312 -1.207031,0.9726562 h -0.01172 v -0.9726562 l -1.5,0.070312 V -3.52875 c 0.539063,0 0.609375,0 0.609375,0.3515625 V -0.435 h -0.609375 v 0.43359375 c 0.667969,-0.0234375 0.726563,-0.0234375 1.148438,-0.0234375 0.222656,0 0.75,0 1.21875,0.0234375 V -0.435 H 13.055453 Z M 22.283969,-3.34125 c 0.07031,-0.1523437 0.08203,-0.1992187 0.597656,-0.1992187 v -0.4453125 c -0.246094,0.035156 -0.46875,0.035156 -0.714844,0.035156 -0.28125,0 -0.5625,-0.011719 -0.84375,-0.035156 v 0.4453125 c 0.105469,0 0.316407,0 0.492188,0.082031 -0.01172,0.070312 -0.01172,0.082031 -0.03516,0.140625 l -0.960938,2.2734375 -1.03125,-2.4960937 h 0.480469 v -0.4453125 c -0.433594,0.023437 -0.621094,0.035156 -1.007813,0.035156 -0.08203,0 -0.527343,0 -0.914062,-0.035156 v 0.4453125 h 0.527344 c 0.117187,0.2578125 0.117187,0.28125 0.164062,0.4101562 l -0.773437,1.8867188 -0.960938,-2.296875 h 0.480469 v -0.4453125 c -0.597656,0.023437 -0.773438,0.035156 -1.089844,0.035156 -0.210937,0 -0.539062,0 -0.996094,-0.035156 v 0.4453125 h 0.515625 l 1.40625,3.35156245 c 0.09375,0.234375 0.234375,0.234375 0.339844,0.234375 0.246094,0 0.292969,-0.10546875 0.351563,-0.2578125 l 0.984375,-2.32031245 0.972656,2.34374995 c 0.09375,0.234375 0.234375,0.234375 0.351562,0.234375 0.105469,0 0.246094,0 0.351563,-0.234375 z m 4.880859,0.6679688 c 0,-0.7851563 -0.644531,-1.3945313 -2.027344,-1.3945313 -0.503906,0 -1.652343,0.023437 -1.652343,0.84375 0,0.4101563 0.304687,0.5976563 0.585937,0.5976563 0.304688,0 0.574219,-0.2226563 0.574219,-0.5859375 0,-0.2578125 -0.152344,-0.4101563 -0.175781,-0.4335938 0.09375,-0.023437 0.304687,-0.058594 0.632812,-0.058594 0.644531,0 1.019531,0.328125 1.019531,1.03125 v 0.2929687 c -1.488281,0 -3,0.375 -3,1.3710938 0,0.89062495 1.125,1.0664062 1.769532,1.0664062 0.679687,0 1.148437,-0.3046875 1.394531,-0.7265625 0,0.234375 0,0.66796875 0.949219,0.66796875 h 0.445312 c 0.164063,0 0.292969,0 0.292969,-0.22265625 C 27.973422,-0.435 27.832797,-0.435 27.739047,-0.435 27.164828,-0.44671875 27.164828,-0.54046875 27.164828,-0.75140625 Z m -1.042969,1.4296875 c 0,0.93749995 -1.042968,0.93749995 -1.078125,0.93749995 -0.457031,0 -0.832031,-0.29296875 -0.832031,-0.70312495 0,-0.2929688 0.164063,-0.9960938 1.910156,-1.0664063 z m 3.84375,-0.7148438 c 0,-0.65625 0.246094,-1.6875 1.113282,-1.7226562 -0.09375,0.1054687 -0.140625,0.2578125 -0.140625,0.3984375 0,0.3984375 0.316406,0.5742187 0.5625,0.5742187 0.292968,0 0.574218,-0.1992187 0.574218,-0.5742187 0,-0.4570313 -0.46875,-0.75 -0.996093,-0.75 -0.621094,0 -1.007813,0.4570312 -1.207032,0.9726562 h -0.01172 v -0.9726562 l -1.5,0.070312 V -3.52875 c 0.539062,0 0.609375,0 0.609375,0.3515625 V -0.435 h -0.609375 v 0.43359375 c 0.667968,-0.0234375 0.726562,-0.0234375 1.148437,-0.0234375 0.222656,0 0.75,0 1.21875,0.0234375 V -0.435 H 29.965609 Z M 35.67557,-6.15375 v 0.4453125 c 0.527344,0 0.609375,0 0.609375,0.3515625 v 1.7226563 c -0.398437,-0.28125 -0.820312,-0.3984375 -1.253906,-0.3984375 -1.453125,0 -2.308594,0.8789062 -2.308594,2.0390625 0,1.19531245 0.84375,2.0507812 2.203125,2.0507812 0.5625,0 1.007813,-0.22265625 1.300782,-0.45703125 V 0.0571875 l 1.652343,-0.05859375 V -0.435 c -0.527343,0 -0.609375,0 -0.609375,-0.3515625 v -5.4375 z m 0.550782,5.1796875 c -0.199219,0.3046875 -0.632813,0.66796875 -1.207032,0.66796875 -1.101562,0 -1.101562,-1.07812495 -1.101562,-1.66406245 0,-0.5273438 0,-0.9140625 0.234375,-1.2421875 0.234375,-0.3515625 0.667969,-0.46875 0.984375,-0.46875 0.445312,0 0.808594,0.1992187 1.089844,0.5507812 z M 44.447055,-2.685 h 1.640625 c 1.289062,0 2.355468,-0.65625 2.355468,-1.7109375 0,-0.984375 -0.902343,-1.7578125 -2.4375,-1.7578125 h -3.832031 v 0.4453125 h 0.972656 V -0.435 h -0.972656 v 0.43359375 c 0.316406,-0.0234375 1.242188,-0.0234375 1.617188,-0.0234375 0.363281,0 1.3125,0 1.617187,0.0234375 V -0.435 h -0.960937 z m 1.21875,-3.0234375 c 1.371093,0 1.371093,0.6796875 1.371093,1.3125 0,0.6328125 0,1.3242188 -1.382812,1.3242188 h -1.265625 v -2.6367188 z m 7.417968,3.0351563 c 0,-0.7851563 -0.644531,-1.3945313 -2.027343,-1.3945313 -0.503907,0 -1.652344,0.023437 -1.652344,0.84375 0,0.4101563 0.304687,0.5976563 0.585937,0.5976563 0.304688,0 0.574219,-0.2226563 0.574219,-0.5859375 0,-0.2578125 -0.152344,-0.4101563 -0.175781,-0.4335938 0.09375,-0.023437 0.304687,-0.058594 0.632812,-0.058594 0.644532,0 1.019532,0.328125 1.019532,1.03125 v 0.2929687 c -1.488282,0 -3,0.375 -3,1.3710938 0,0.89062495 1.125,1.0664062 1.769531,1.0664062 0.679687,0 1.148437,-0.3046875 1.394531,-0.7265625 0,0.234375 0,0.66796875 0.949219,0.66796875 h 0.445312 c 0.164063,0 0.292969,0 0.292969,-0.22265625 C 53.892367,-0.435 53.751742,-0.435 53.657992,-0.435 53.083773,-0.44671875 53.083773,-0.54046875 53.083773,-0.75140625 Z m -1.042968,1.4296875 c 0,0.93749995 -1.042969,0.93749995 -1.078125,0.93749995 -0.457032,0 -0.832032,-0.29296875 -0.832032,-0.70312495 0,-0.2929688 0.164063,-0.9960938 1.910157,-1.0664063 z m 5.428711,-2.5546875 c 0,-0.1640625 0,-0.2695313 -0.1875,-0.2695313 -0.08203,0 -0.222657,0.082031 -0.386719,0.1640625 -0.292969,-0.1171875 -0.644531,-0.1640625 -0.9375,-0.1640625 -0.28125,0 -1.699219,0 -1.699219,1.1835938 0,0.9492187 1.171875,1.1484375 1.488281,1.1953125 0.738282,0.1289062 1.324219,0.2226562 1.324219,0.7382812 0,0.64453125 -0.84375,0.64453125 -1.042969,0.64453125 -0.457031,0 -1.03125,-0.1171875 -1.300781,-0.93749995 -0.03516,-0.1523438 -0.04687,-0.1875 -0.234375,-0.1875 -0.234375,0 -0.234375,0.058594 -0.234375,0.2695312 v 0.94921875 c 0,0.1640625 0,0.26953125 0.175781,0.26953125 0.05859,0 0.08203,0 0.28125,-0.12890625 l 0.246094,-0.15234375 c 0.410156,0.28125 0.890625,0.28125 1.066406,0.28125 0.269532,0 1.710938,0 1.710938,-1.3125 0,-0.4570312 -0.269531,-0.75 -0.421875,-0.8789062 -0.410156,-0.3398438 -0.691406,-0.3867188 -1.40625,-0.5039063 -0.421875,-0.070312 -0.996094,-0.1640625 -0.996094,-0.5625 0,-0.5390625 0.84375,-0.5390625 1.03125,-0.5390625 1.007813,0 1.042969,0.5273438 1.066406,0.7734375 0,0.1171875 0.128907,0.1171875 0.222657,0.1171875 0.222656,0 0.234375,-0.035156 0.234375,-0.2578125 z m 4.183593,0 c 0,-0.1640625 0,-0.2695313 -0.1875,-0.2695313 -0.08203,0 -0.222656,0.082031 -0.386718,0.1640625 -0.292969,-0.1171875 -0.644532,-0.1640625 -0.9375,-0.1640625 -0.28125,0 -1.699219,0 -1.699219,1.1835938 0,0.9492187 1.171875,1.1484375 1.488281,1.1953125 0.738281,0.1289062 1.324219,0.2226562 1.324219,0.7382812 0,0.64453125 -0.84375,0.64453125 -1.042969,0.64453125 -0.457031,0 -1.03125,-0.1171875 -1.300781,-0.93749995 -0.03516,-0.1523438 -0.04687,-0.1875 -0.234375,-0.1875 -0.234375,0 -0.234375,0.058594 -0.234375,0.2695312 v 0.94921875 c 0,0.1640625 0,0.26953125 0.175781,0.26953125 0.05859,0 0.08203,0 0.28125,-0.12890625 l 0.246094,-0.15234375 c 0.410156,0.28125 0.890625,0.28125 1.066406,0.28125 0.269531,0 1.710938,0 1.710938,-1.3125 0,-0.4570312 -0.269532,-0.75 -0.421875,-0.8789062 -0.410157,-0.3398438 -0.691407,-0.3867188 -1.40625,-0.5039063 -0.421875,-0.070312 -0.996094,-0.1640625 -0.996094,-0.5625 0,-0.5390625 0.84375,-0.5390625 1.03125,-0.5390625 1.007812,0 1.042969,0.5273438 1.066406,0.7734375 0,0.1171875 0.128906,0.1171875 0.222656,0.1171875 0.222657,0 0.234375,-0.035156 0.234375,-0.2578125 z m 0,0"
       style="fill:#3333ff;fill-opacity:1;fill-rule:nonzero;stroke:none"
       aria-label="ForwardPass"
       transform="matrix(1.3333333,0,0,1.3333333,23.178667,23.58)" />
    <path
       id="path30"
       d="M 5.9290234,-2.471875 H 5.4719922 c -0.070312,0.6210937 -0.2226563,2.0390625 -1.8632813,2.0390625 H 2.6477734 V -5.70625 h 1.2070313 v -0.4453125 c -0.3632813,0.035156 -1.3828125,0.035156 -1.8046875,0.035156 -0.375,0 -1.35937501,0 -1.67578126,-0.035156 V -5.70625 H 1.3469922 v 5.2734375 H 0.37433594 V 7.8125e-4 H 5.6477734 Z m 5.4492186,0.515625 c 0,-1.171875 -0.832031,-2.109375 -2.3554686,-2.109375 -1.5703125,0 -2.3554687,0.984375 -2.3554687,2.109375 0,1.11328125 0.8085937,2.015625 2.3554687,2.015625 1.6054686,0 2.3554686,-0.94921875 2.3554686,-2.015625 z m -2.3554686,1.62890625 c -1.1601562,0 -1.1601562,-0.94921875 -1.1601562,-1.72265625 0,-0.75 0,-1.6523438 1.1601562,-1.6523438 1.1601566,0 1.1601566,0.9023438 1.1601566,1.6523438 0,0.7734375 0,1.72265625 -1.1601566,1.72265625 z M 15.2425,-3.7960938 c 0,-0.1640625 0,-0.2695312 -0.1875,-0.2695312 -0.08203,0 -0.222656,0.082031 -0.386719,0.1640625 -0.292968,-0.1171875 -0.644531,-0.1640625 -0.9375,-0.1640625 -0.28125,0 -1.699218,0 -1.699218,1.1835937 0,0.9492188 1.171875,1.1484375 1.488281,1.1953125 0.738281,0.1289063 1.324219,0.2226563 1.324219,0.7382813 0,0.64453125 -0.84375,0.64453125 -1.042969,0.64453125 -0.457031,0 -1.03125,-0.1171875 -1.300781,-0.93750005 -0.03516,-0.1523437 -0.04687,-0.1875 -0.234375,-0.1875 -0.234375,0 -0.234375,0.058594 -0.234375,0.2695313 v 0.94921875 c 0,0.1640625 0,0.26953125 0.175781,0.26953125 0.05859,0 0.08203,0 0.28125,-0.12890625 L 12.734688,-0.221875 c 0.410156,0.28125 0.890625,0.28125 1.066406,0.28125 0.269531,0 1.710937,0 1.710937,-1.3125 0,-0.4570313 -0.269531,-0.75 -0.421875,-0.8789063 C 14.68,-2.471875 14.39875,-2.51875 13.683906,-2.6359375 13.262031,-2.70625 12.687813,-2.8 12.687813,-3.1984375 c 0,-0.5390625 0.84375,-0.5390625 1.03125,-0.5390625 1.007812,0 1.042968,0.5273437 1.066406,0.7734375 0,0.1171875 0.128906,0.1171875 0.222656,0.1171875 0.222656,0 0.234375,-0.035156 0.234375,-0.2578125 z m 4.183594,0 c 0,-0.1640625 0,-0.2695312 -0.1875,-0.2695312 -0.08203,0 -0.222656,0.082031 -0.386719,0.1640625 -0.292969,-0.1171875 -0.644531,-0.1640625 -0.9375,-0.1640625 -0.28125,0 -1.699219,0 -1.699219,1.1835937 0,0.9492188 1.171875,1.1484375 1.488282,1.1953125 0.738281,0.1289063 1.324218,0.2226563 1.324218,0.7382813 0,0.64453125 -0.84375,0.64453125 -1.042968,0.64453125 -0.457032,0 -1.03125,-0.1171875 -1.300782,-0.93750005 -0.03516,-0.1523437 -0.04687,-0.1875 -0.234375,-0.1875 -0.234375,0 -0.234375,0.058594 -0.234375,0.2695313 v 0.94921875 c 0,0.1640625 0,0.26953125 0.175782,0.26953125 0.05859,0 0.08203,0 0.28125,-0.12890625 L 16.918281,-0.221875 c 0.410157,0.28125 0.890625,0.28125 1.066407,0.28125 0.269531,0 1.710937,0 1.710937,-1.3125 0,-0.4570313 -0.269531,-0.75 -0.421875,-0.8789063 C 18.863594,-2.471875 18.582344,-2.51875 17.8675,-2.6359375 17.445625,-2.70625 16.871406,-2.8 16.871406,-3.1984375 c 0,-0.5390625 0.84375,-0.5390625 1.03125,-0.5390625 1.007813,0 1.042969,0.5273437 1.066407,0.7734375 0,0.1171875 0.128906,0.1171875 0.222656,0.1171875 0.222656,0 0.234375,-0.035156 0.234375,-0.2578125 z m 11.223633,-2.203125 c 0,-0.1640625 0,-0.2578125 -0.175782,-0.2578125 -0.09375,0 -0.117187,0.023437 -0.199218,0.09375 l -0.585938,0.515625 c -0.515625,-0.4101562 -1.160156,-0.609375 -1.816406,-0.609375 -2.320313,0 -3.703125,1.359375 -3.703125,3.1875 0,1.7695313 1.335937,3.1757813 3.703125,3.1757813 1.6875,0 2.777344,-1.078125 2.777344,-2.1445313 0,-0.1992187 -0.09375,-0.1992187 -0.234375,-0.1992187 -0.09375,0 -0.210938,0 -0.222657,0.140625 -0.07031,1.30078125 -1.265625,1.76953125 -2.121093,1.76953125 -0.480469,0 -1.347657,-0.10546875 -1.957032,-0.76171875 -0.46875,-0.5390625 -0.527343,-1.3710938 -0.527343,-1.9804688 0,-1.078125 0.210937,-1.6171875 0.574218,-2.0273437 0.421875,-0.4804688 1.148438,-0.7148438 1.898438,-0.7148438 0.785156,0 1.828125,0.46875 2.0625,1.8984375 0.01172,0.1171875 0.117187,0.1171875 0.257812,0.1171875 0.246094,0 0.269532,-0.023437 0.269532,-0.2695312 z m 4.930664,3.328125 c 0,-0.7851562 -0.644532,-1.3945312 -2.027344,-1.3945312 -0.503906,0 -1.652344,0.023437 -1.652344,0.84375 0,0.4101562 0.304688,0.5976562 0.585938,0.5976562 0.304687,0 0.574218,-0.2226562 0.574218,-0.5859375 0,-0.2578125 -0.152343,-0.4101562 -0.175781,-0.4335937 0.09375,-0.023437 0.304688,-0.058594 0.632813,-0.058594 0.644531,0 1.019531,0.328125 1.019531,1.03125 v 0.2929688 c -1.488281,0 -3,0.375 -3,1.3710937 0,0.89062505 1.125,1.0664063 1.769531,1.0664063 0.679688,0 1.148438,-0.3046875 1.394531,-0.7265625 0,0.234375 0,0.66796875 0.949219,0.66796875 h 0.445313 c 0.164062,0 0.292968,0 0.292968,-0.22265625 0,-0.2109375 -0.140625,-0.2109375 -0.234375,-0.2109375 -0.574218,-0.0117188 -0.574218,-0.10546875 -0.574218,-0.31640625 z m -1.042969,1.4296875 c 0,0.93750005 -1.042969,0.93750005 -1.078125,0.93750005 -0.457031,0 -0.832031,-0.29296875 -0.832031,-0.70312505 0,-0.2929687 0.164062,-0.9960937 1.910156,-1.0664062 z m 3.94043,-4.9804687 -1.605469,0.070312 v 0.445313 c 0.539062,0 0.609375,0 0.609375,0.3515625 v 4.921875 H 36.872383 V 7.8125e-4 c 0.609375,-0.0234375 0.714844,-0.0234375 1.101562,-0.0234375 0.398438,0 0.621094,0 1.113282,0.0234375 V -0.4328125 h -0.609375 z m 5.279296,5.1796875 c 0,-0.140625 -0.128906,-0.140625 -0.234375,-0.140625 -0.175781,0 -0.175781,0.011719 -0.246093,0.1757812 -0.175782,0.42187505 -0.585938,0.67968755 -1.113282,0.67968755 -1.265625,0 -1.265625,-1.28906255 -1.265625,-1.69921875 0,-0.5390625 0,-1.6523438 1.183594,-1.6523438 0.05859,0 0.539063,0.011719 0.539063,0.058594 0,0.011719 -0.01172,0.035156 -0.02344,0.046875 -0.08203,0.09375 -0.117187,0.234375 -0.117187,0.3632812 0,0.3632813 0.28125,0.5859375 0.585937,0.5859375 0.269531,0 0.574219,-0.1875 0.574219,-0.5976562 0,-0.84375 -1.253906,-0.84375 -1.605469,-0.84375 -1.710937,0 -2.332031,1.1015625 -2.332031,2.0742187 0,1.1367188 0.808594,2.0507813 2.296875,2.0507813 0.328125,0 0.761719,-0.05859375 1.148437,-0.29296875 C 43.65168,-0.55 43.757148,-1.0070313 43.757148,-1.0421875 Z m 3.682618,-2.9179688 v 0.4335938 c 0.539062,0 0.609375,0 0.609375,0.3515625 v 1.7109375 c 0,0.71484375 -0.457032,1.16015625 -1.148438,1.16015625 -0.691406,0 -0.726562,-0.19921875 -0.726562,-0.66796875 v -3.0585938 l -1.664063,0.070313 v 0.4335938 c 0.539063,0 0.609375,0 0.609375,0.3515625 v 2.0742187 c 0,0.9726563 0.773438,1.1601563 1.640625,1.1601563 0.28125,0 0.890625,0 1.347656,-0.6796875 V 0.059375 L 49.713203,7.8125e-4 V -0.4328125 c -0.539062,0 -0.609375,0 -0.609375,-0.3515625 v -3.2460938 z m 4.59375,-2.2617187 -1.605469,0.070312 v 0.445313 c 0.539062,0 0.609375,0 0.609375,0.3515625 v 4.921875 H 50.428047 V 7.8125e-4 c 0.609375,-0.0234375 0.714844,-0.0234375 1.101562,-0.0234375 0.398438,0 0.621094,0 1.113282,0.0234375 V -0.4328125 h -0.609375 z m 5.208984,3.5507812 c 0,-0.7851562 -0.644531,-1.3945312 -2.027344,-1.3945312 -0.503906,0 -1.652343,0.023437 -1.652343,0.84375 0,0.4101562 0.304687,0.5976562 0.585937,0.5976562 0.304688,0 0.574219,-0.2226562 0.574219,-0.5859375 0,-0.2578125 -0.152344,-0.4101562 -0.175781,-0.4335937 0.09375,-0.023437 0.304687,-0.058594 0.632812,-0.058594 0.644531,0 1.019531,0.328125 1.019531,1.03125 v 0.2929688 c -1.488281,0 -3,0.375 -3,1.3710937 0,0.89062505 1.125,1.0664063 1.769532,1.0664063 0.679687,0 1.148437,-0.3046875 1.394531,-0.7265625 0,0.234375 0,0.66796875 0.949219,0.66796875 h 0.445312 c 0.164063,0 0.292969,0 0.292969,-0.22265625 0,-0.2109375 -0.140625,-0.2109375 -0.234375,-0.2109375 C 57.2425,-0.44453125 57.2425,-0.53828125 57.2425,-0.74921875 Z m -1.042969,1.4296875 c 0,0.93750005 -1.042968,0.93750005 -1.078125,0.93750005 -0.457031,0 -0.832031,-0.29296875 -0.832031,-0.70312505 0,-0.2929687 0.164063,-0.9960937 1.910156,-1.0664062 z m 3.870117,-2.296875 h 1.347657 v -0.4453125 h -1.347657 v -1.7109375 h -0.457031 c -0.01172,0.84375 -0.433594,1.7695313 -1.347656,1.7929688 v 0.3632812 h 0.75 v 2.4375 c 0,1.0195313 0.890625,1.1601563 1.441406,1.1601563 0.703125,0 1.136719,-0.50390625 1.136719,-1.1601563 V -1.58125 h -0.457031 v 0.4570312 c 0,0.63281255 -0.328125,0.79687505 -0.550782,0.79687505 -0.515625,0 -0.515625,-0.5390625 -0.515625,-0.76171875 z M 64.346992,-5.51875 c 0,-0.46875 -0.386719,-0.7148438 -0.703125,-0.7148438 -0.410156,0 -0.714844,0.3515625 -0.714844,0.703125 0,0.375 0.316407,0.703125 0.714844,0.703125 0.339844,0 0.703125,-0.2695312 0.703125,-0.6914062 z m -1.664062,1.5585937 v 0.4335938 c 0.515625,0 0.585937,0 0.585937,0.3515625 v 2.7421875 H 62.659492 V 7.8125e-4 c 0.597656,-0.0234375 0.714844,-0.0234375 1.089844,-0.0234375 0.445312,0 0.5625,0 1.054687,0.0234375 V -0.4328125 h -0.539062 v -3.5976563 z m 7.458984,2.0039063 c 0,-1.171875 -0.832031,-2.109375 -2.355469,-2.109375 -1.570312,0 -2.355468,0.984375 -2.355468,2.109375 0,1.11328125 0.808593,2.015625 2.355468,2.015625 1.605469,0 2.355469,-0.94921875 2.355469,-2.015625 z m -2.355469,1.62890625 c -1.160156,0 -1.160156,-0.94921875 -1.160156,-1.72265625 0,-0.75 0,-1.6523438 1.160156,-1.6523438 1.160157,0 1.160157,0.9023438 1.160157,1.6523438 0,0.7734375 0,1.72265625 -1.160157,1.72265625 z m 7.696289,-2.40234375 c 0,-1.0664063 -0.644531,-1.3007813 -1.429687,-1.3007813 -1.101563,0 -1.535156,0.8085938 -1.605469,0.9375 v -0.9375 l -1.558594,0.070313 v 0.4335938 c 0.539063,0 0.609375,0 0.609375,0.3515625 V -0.432812 H 70.888984 V 7.8125e-4 c 0.667969,-0.0234375 0.773438,-0.0234375 1.136719,-0.0234375 0.363281,0 0.457031,0 1.136719,0.0234375 V -0.4328125 h -0.609375 v -1.8398438 c 0,-1.0078125 0.820312,-1.40625 1.359375,-1.40625 0.339844,0 0.515625,0.1875 0.515625,0.8671875 v 2.3789063 H 73.818672 V 7.8125e-4 c 0.667969,-0.0234375 0.773437,-0.0234375 1.136719,-0.0234375 0.363281,0 0.457031,0 1.136718,0.0234375 V -0.4328125 h -0.609375 z m 0,0"
       style="fill:#ff3333;fill-opacity:1;fill-rule:nonzero;stroke:none"
       aria-label="LossCalculation"
       transform="matrix(1.3333333,0,0,1.3333333,4.4266667,235.23333)" />
    <path
       id="path31"
       d="m 1.3465156,-5.7068672 v 5.27343751 H 0.37385938 V 1.640625e-4 H 4.6394844 c 1.5234375,0 2.296875,-0.7968750025 2.296875,-1.6640624625 0,-0.7851563 -0.6679688,-1.4179688 -1.8515625,-1.5585938 0.984375,-0.1640625 1.5585937,-0.7265625 1.5585937,-1.3828125 0,-0.8320312 -0.8085937,-1.546875 -2.2851562,-1.546875 H 0.37385938 v 0.4453125 z m 1.1835938,2.3320313 v -2.3320313 h 1.7109375 c 1.0664062,0 1.1015625,0.9140625 1.1015625,1.1015625 0,0.65625 -0.4453125,1.2304688 -1.3359375,1.2304688 z m 0,2.94140621 V -3.0232734 h 1.8164062 c 0.140625,0 0.6210938,0 0.9257813,0.3632812 0.2578125,0.3164063 0.3164062,0.6914063 0.3164062,0.9726563 0,0.6210937 -0.3632812,1.25390621 -1.3359375,1.25390621 z M 11.875813,-2.6717109 c 0,-0.7851563 -0.644532,-1.3945313 -2.0273442,-1.3945313 -0.5039063,0 -1.6523438,0.023437 -1.6523438,0.84375 0,0.4101563 0.3046875,0.5976563 0.5859375,0.5976563 0.3046875,0 0.5742188,-0.2226563 0.5742188,-0.5859375 0,-0.2578125 -0.1523438,-0.4101563 -0.1757813,-0.4335938 0.09375,-0.023437 0.3046875,-0.058594 0.6328125,-0.058594 0.6445315,0 1.0195315,0.328125 1.0195315,1.03125 v 0.2929687 c -1.4882815,0 -3.0000002,0.375 -3.0000002,1.3710938 0,0.89062496 1.125,1.06640621 1.7695312,1.06640621 0.679688,0 1.148438,-0.3046875 1.394531,-0.7265625 0,0.234375 0,0.6679687525 0.949219,0.6679687525 h 0.445313 c 0.164062,0 0.292968,0 0.292968,-0.2226562525 0,-0.2109375 -0.140625,-0.2109375 -0.234375,-0.2109375 -0.574218,-0.0117188 -0.574218,-0.10546875 -0.574218,-0.31640625 z m -1.042969,1.4296875 c 0,0.93749996 -1.042969,0.93749996 -1.0781252,0.93749996 -0.4570313,0 -0.8320313,-0.29296875 -0.8320313,-0.70312496 0,-0.2929688 0.1640625,-0.9960938 1.9101565,-1.0664063 z m 6.269531,0.1992187 c 0,-0.140625 -0.128906,-0.140625 -0.234375,-0.140625 -0.175781,0 -0.175781,0.011719 -0.246094,0.1757813 -0.175781,0.42187496 -0.585937,0.67968746 -1.113281,0.67968746 -1.265625,0 -1.265625,-1.28906246 -1.265625,-1.69921876 0,-0.5390625 0,-1.6523437 1.183594,-1.6523437 0.05859,0 0.539062,0.011719 0.539062,0.058594 0,0.011719 -0.01172,0.035156 -0.02344,0.046875 -0.08203,0.09375 -0.117188,0.234375 -0.117188,0.3632813 0,0.3632812 0.28125,0.5859375 0.585938,0.5859375 0.269531,0 0.574219,-0.1875 0.574219,-0.5976563 0,-0.84375 -1.253907,-0.84375 -1.605469,-0.84375 -1.710938,0 -2.332031,1.1015625 -2.332031,2.0742188 0,1.13671871 0.808593,2.05078121 2.296875,2.05078121 0.328125,0 0.761718,-0.0585937475 1.148437,-0.29296875 0.503906,-0.31640625 0.609375,-0.77343746 0.609375,-0.80859376 z m 3.19043,-1.4296875 1.21875,-0.9140625 c 0.117187,-0.082031 0.199218,-0.1523437 0.785156,-0.1523437 v -0.4453125 c -0.28125,0.035156 -0.539063,0.035156 -0.738281,0.035156 -0.222657,0 -0.574219,-0.011719 -0.996094,-0.035156 v 0.4453125 c 0.164062,0 0.199219,0.023437 0.246094,0.09375 l -1.722657,1.3125 v -4.0898438 l -1.605468,0.070312 v 0.4453125 c 0.539062,0 0.609375,0 0.609375,0.3515625 v 4.92187501 H 17.480305 V 1.640625e-4 C 18.054523,-0.02327344 18.18343,-0.02327344 18.55843,-0.02327344 c 0.386718,0 0.480468,0 1.089843,0.0234375025 V -0.43342969 H 19.038898 V -1.5232734 l 0.539063,-0.3984375 c 0.03516,0.035156 1.183594,1.35937496 1.183594,1.40624996 0,0.0820313 -0.152344,0.0820313 -0.246094,0.0820313 V 1.640625e-4 C 21.042805,-0.02327344 21.288898,-0.02327344 21.593586,-0.02327344 c 0.351562,0 0.585937,0 0.949219,0.0234375025 V -0.43342969 c -0.140625,0 -0.328125,0 -0.421875,-0.0117188 -0.140625,-0.0351563 -0.175782,-0.0703125 -0.257813,-0.1640625 z m 9.243164,-0.8671875 c 0.07031,-0.1523437 0.08203,-0.1992187 0.597656,-0.1992187 v -0.4453125 c -0.246094,0.035156 -0.46875,0.035156 -0.714844,0.035156 -0.28125,0 -0.5625,-0.011719 -0.84375,-0.035156 v 0.4453125 c 0.105469,0 0.316407,0 0.492188,0.082031 -0.01172,0.070312 -0.01172,0.082031 -0.03516,0.140625 l -0.960938,2.2734375 -1.03125,-2.4960937 h 0.480469 v -0.4453125 c -0.433594,0.023437 -0.621094,0.035156 -1.007813,0.035156 -0.08203,0 -0.527343,0 -0.914062,-0.035156 v 0.4453125 h 0.527344 c 0.117187,0.2578125 0.117187,0.28125 0.164062,0.4101562 l -0.773437,1.8867188 -0.960938,-2.296875 h 0.480469 v -0.4453125 c -0.597656,0.023437 -0.773438,0.035156 -1.089844,0.035156 -0.210937,0 -0.539062,0 -0.996094,-0.035156 v 0.4453125 h 0.515625 l 1.40625,3.35156246 c 0.09375,0.234375 0.234375,0.234375 0.339844,0.234375 0.246094,0 0.292969,-0.10546875 0.351563,-0.2578125 l 0.984375,-2.32031246 0.972656,2.34374996 c 0.09375,0.234375 0.234375,0.234375 0.351562,0.234375 0.105469,0 0.246094,0 0.351563,-0.234375 z m 4.883789,0.6679688 c 0,-0.7851563 -0.644531,-1.3945313 -2.027344,-1.3945313 -0.503906,0 -1.652344,0.023437 -1.652344,0.84375 0,0.4101563 0.304688,0.5976563 0.585938,0.5976563 0.304687,0 0.574219,-0.2226563 0.574219,-0.5859375 0,-0.2578125 -0.152344,-0.4101563 -0.175782,-0.4335938 0.09375,-0.023437 0.304688,-0.058594 0.632813,-0.058594 0.644531,0 1.019531,0.328125 1.019531,1.03125 v 0.2929687 c -1.488281,0 -3,0.375 -3,1.3710938 0,0.89062496 1.125,1.06640621 1.769531,1.06640621 0.679688,0 1.148438,-0.3046875 1.394532,-0.7265625 0,0.234375 0,0.6679687525 0.949218,0.6679687525 h 0.445313 c 0.164062,0 0.292969,0 0.292969,-0.2226562525 0,-0.2109375 -0.140625,-0.2109375 -0.234375,-0.2109375 -0.574219,-0.0117188 -0.574219,-0.10546875 -0.574219,-0.31640625 z m -1.042969,1.4296875 c 0,0.93749996 -1.042969,0.93749996 -1.078125,0.93749996 -0.457031,0 -0.832031,-0.29296875 -0.832031,-0.70312496 0,-0.2929688 0.164062,-0.9960938 1.910156,-1.0664063 z m 3.832031,-0.7148438 c 0,-0.65625 0.246094,-1.6875 1.113282,-1.7226562 -0.09375,0.1054687 -0.140625,0.2578125 -0.140625,0.3984375 0,0.3984375 0.316406,0.5742187 0.5625,0.5742187 0.292968,0 0.574218,-0.1992187 0.574218,-0.5742187 0,-0.4570313 -0.46875,-0.75 -0.996093,-0.75 -0.621094,0 -1.007813,0.4570312 -1.207032,0.9726562 h -0.01172 v -0.9726562 l -1.5,0.070312 v 0.4335937 c 0.539062,0 0.609375,0 0.609375,0.3515625 v 2.74218751 H 35.603352 V 1.640625e-4 C 36.27132,-0.02327344 36.329914,-0.02327344 36.751789,-0.02327344 c 0.222656,0 0.75,0 1.21875,0.0234375025 V -0.43342969 H 37.20882 Z m 5.712891,-4.1953125 v 0.4453125 c 0.527344,0 0.609375,0 0.609375,0.3515625 v 1.7226563 c -0.398438,-0.28125 -0.820313,-0.3984375 -1.253906,-0.3984375 -1.453125,0 -2.308594,0.8789062 -2.308594,2.0390625 0,1.19531246 0.84375,2.05078121 2.203125,2.05078121 0.5625,0 1.007812,-0.22265625 1.300781,-0.45703125 V 0.05875781 L 45.124836,1.640625e-4 V -0.43342969 c -0.527344,0 -0.609375,0 -0.609375,-0.3515625 V -6.2224922 Z m 0.550781,5.17968751 c -0.199219,0.3046875 -0.632812,0.66796875 -1.207031,0.66796875 -1.101563,0 -1.101563,-1.07812496 -1.101563,-1.66406246 0,-0.5273438 0,-0.9140625 0.234375,-1.2421875 0.234375,-0.3515625 0.667969,-0.46875 0.984375,-0.46875 0.445313,0 0.808594,0.1992187 1.089844,0.5507812 z m 8.229492,-1.71093751 h 1.640625 c 1.289063,0 2.355469,-0.65625 2.355469,-1.7109375 0,-0.984375 -0.902344,-1.7578125 -2.4375,-1.7578125 h -3.832031 v 0.4453125 h 0.972656 v 5.27343751 H 49.428547 V 1.640625e-4 C 49.744953,-0.02327344 50.670734,-0.02327344 51.045734,-0.02327344 c 0.363282,0 1.3125,0 1.617188,0.0234375025 V -0.43342969 h -0.960938 z m 1.21875,-3.0234375 c 1.371094,0 1.371094,0.6796875 1.371094,1.3125 0,0.6328125 0,1.3242188 -1.382812,1.3242188 h -1.265625 v -2.6367188 z m 7.417969,3.0351563 c 0,-0.7851563 -0.644531,-1.3945313 -2.027344,-1.3945313 -0.503906,0 -1.652343,0.023437 -1.652343,0.84375 0,0.4101563 0.304687,0.5976563 0.585937,0.5976563 0.304688,0 0.574219,-0.2226563 0.574219,-0.5859375 0,-0.2578125 -0.152344,-0.4101563 -0.175781,-0.4335938 0.09375,-0.023437 0.304687,-0.058594 0.632812,-0.058594 0.644531,0 1.019531,0.328125 1.019531,1.03125 v 0.2929687 c -1.488281,0 -3,0.375 -3,1.3710938 0,0.89062496 1.125,1.06640621 1.769532,1.06640621 0.679687,0 1.148437,-0.3046875 1.394531,-0.7265625 0,0.234375 0,0.6679687525 0.949219,0.6679687525 h 0.445312 c 0.164063,0 0.292969,0 0.292969,-0.2226562525 0,-0.2109375 -0.140625,-0.2109375 -0.234375,-0.2109375 -0.574219,-0.0117188 -0.574219,-0.10546875 -0.574219,-0.31640625 z m -1.042969,1.4296875 c 0,0.93749996 -1.042968,0.93749996 -1.078125,0.93749996 -0.457031,0 -0.832031,-0.29296875 -0.832031,-0.70312496 0,-0.2929688 0.164063,-0.9960938 1.910156,-1.0664063 z m 5.425782,-2.5546875 c 0,-0.1640625 0,-0.2695313 -0.1875,-0.2695313 -0.08203,0 -0.222657,0.082031 -0.386719,0.1640625 -0.292969,-0.1171875 -0.644531,-0.1640625 -0.9375,-0.1640625 -0.28125,0 -1.699219,0 -1.699219,1.1835938 0,0.9492187 1.171875,1.1484375 1.488281,1.1953125 0.738282,0.1289062 1.324219,0.2226562 1.324219,0.73828121 0,0.64453125 -0.84375,0.64453125 -1.042969,0.64453125 -0.457031,0 -1.03125,-0.1171875 -1.300781,-0.93749996 -0.03516,-0.1523438 -0.04687,-0.1875 -0.234375,-0.1875 -0.234375,0 -0.234375,0.058594 -0.234375,0.2695312 v 0.94921876 c 0,0.1640625 0,0.26953125 0.175781,0.26953125 0.05859,0 0.08203,0 0.28125,-0.12890625 l 0.246094,-0.15234375 c 0.410156,0.28125 0.890625,0.28125 1.066406,0.28125 0.269532,0 1.710938,0 1.710938,-1.31250001 0,-0.4570312 -0.269531,-0.75 -0.421875,-0.8789062 -0.410156,-0.3398438 -0.691406,-0.3867188 -1.40625,-0.5039063 -0.421875,-0.070312 -0.996094,-0.1640625 -0.996094,-0.5625 0,-0.5390625 0.84375,-0.5390625 1.03125,-0.5390625 1.007813,0 1.042969,0.5273438 1.066406,0.7734375 0,0.1171875 0.128907,0.1171875 0.222657,0.1171875 0.222656,0 0.234375,-0.035156 0.234375,-0.2578125 z m 4.186523,0 c 0,-0.1640625 0,-0.2695313 -0.1875,-0.2695313 -0.08203,0 -0.222656,0.082031 -0.386719,0.1640625 -0.292968,-0.1171875 -0.644531,-0.1640625 -0.9375,-0.1640625 -0.28125,0 -1.699218,0 -1.699218,1.1835938 0,0.9492187 1.171875,1.1484375 1.488281,1.1953125 0.738281,0.1289062 1.324219,0.2226562 1.324219,0.73828121 0,0.64453125 -0.84375,0.64453125 -1.042969,0.64453125 -0.457031,0 -1.03125,-0.1171875 -1.300781,-0.93749996 -0.03516,-0.1523438 -0.04687,-0.1875 -0.234375,-0.1875 -0.234375,0 -0.234375,0.058594 -0.234375,0.2695312 v 0.94921876 c 0,0.1640625 0,0.26953125 0.175781,0.26953125 0.05859,0 0.08203,0 0.28125,-0.12890625 l 0.246094,-0.15234375 c 0.410156,0.28125 0.890625,0.28125 1.066406,0.28125 0.269531,0 1.710937,0 1.710937,-1.31250001 0,-0.4570312 -0.269531,-0.75 -0.421875,-0.8789062 -0.410156,-0.3398438 -0.691406,-0.3867188 -1.40625,-0.5039063 -0.421875,-0.070312 -0.996093,-0.1640625 -0.996093,-0.5625 0,-0.5390625 0.84375,-0.5390625 1.03125,-0.5390625 1.007812,0 1.042968,0.5273438 1.066406,0.7734375 0,0.1171875 0.128906,0.1171875 0.222656,0.1171875 0.222656,0 0.234375,-0.035156 0.234375,-0.2578125 z m 0,0"
       style="fill:#ff9933;fill-opacity:1;fill-rule:nonzero;stroke:none"
       aria-label="BackwardPass"
       transform="matrix(1.3333333,0,0,1.3333333,13.509333,310.824)" />
    <path
       id="path32"
       d="m 9.8683359,-5.5069453 c 0.070312,-0.1523438 0.070312,-0.1523438 0.3515621,-0.1875 0.175782,-0.011719 0.316407,-0.011719 0.492188,-0.011719 v -0.4453125 c -0.433594,0.035156 -0.7617188,0.035156 -0.9960938,0.035156 -0.3867188,0 -0.8085938,0 -1.2070313,-0.035156 v 0.4453125 c 0.234375,0 0.6445313,0 0.9023438,0.09375 l -1.5703125,3.996094 -1.6171875,-4.0898438 h 0.8554687 v -0.4453125 c -0.3164062,0.035156 -1.1953125,0.035156 -1.5703125,0.035156 -0.4101562,0 -0.984375,0 -1.3945312,-0.035156 v 0.4453125 h 0.7617187 l 0.3515625,0.8789063 -1.2773437,3.2109375 -1.6054688,-4.0898438 h 0.84375 v -0.4453125 c -0.3046875,0.035156 -1.1835937,0.035156 -1.5585937,0.035156 -0.421875,0 -0.99609376,0 -1.39453126,-0.035156 v 0.4453125 h 0.76171875 l 2.19140621,5.53125004 c 0.070312,0.15234375 0.1054688,0.2578125 0.3398438,0.2578125 0.2460937,0 0.2929687,-0.10546875 0.3398437,-0.2578125 l 1.6054688,-4.04296874 1.6054687,4.04296874 c 0.046875,0.15234375 0.09375,0.2578125 0.3398438,0.2578125 0.1171875,0 0.234375,-0.0234375 0.2929687,-0.12890625 z m 4.4619141,3.5859375 c 0.1875,0 0.292969,0 0.292969,-0.2578125 0,-0.1992188 -0.01172,-0.984375 -0.597656,-1.4648438 -0.398438,-0.3398437 -0.9375,-0.421875 -1.382813,-0.421875 -1.523437,0 -2.285156,0.9726563 -2.285156,2.0507813 0,1.17187499 0.890625,2.07421874 2.414062,2.07421874 1.476563,0 1.851563,-0.94921875 1.851563,-1.10156254 0,-0.1757812 -0.175781,-0.1757812 -0.234375,-0.1757812 -0.152344,0 -0.175781,0.058594 -0.222656,0.1757812 -0.210938,0.46875004 -0.761719,0.71484379 -1.324219,0.71484379 -1.265625,0 -1.289063,-1.16015629 -1.289063,-1.59374999 z m -2.777344,-0.328125 c 0.02344,-0.4101563 0.05859,-1.453125 1.089844,-1.453125 1.054688,0 1.089844,1.0898437 1.101563,1.453125 z m 5.53711,-3.2695313 c 0,-0.46875 -0.386719,-0.7148437 -0.703125,-0.7148437 -0.410157,0 -0.714844,0.3515625 -0.714844,0.703125 0,0.375 0.316406,0.703125 0.714844,0.703125 0.339843,0 0.703125,-0.2695313 0.703125,-0.6914063 z m -1.664063,1.5585938 v 0.4335937 c 0.515625,0 0.585938,0 0.585938,0.3515625 v 2.74218754 H 15.402516 V 8.671875e-4 C 16.000172,-0.02257031 16.117359,-0.02257031 16.492359,-0.02257031 c 0.445313,0 0.5625,0 1.054688,0.0234374975 V -0.43272656 H 17.007984 V -4.0303828 Z m 4.388672,3.19921874 c -0.28125,0 -0.410156,0 -0.5625,-0.1171875 -0.128906,-0.1171875 -0.210937,-0.26953124 -0.210937,-0.44531254 0,-0.1875 0.07031,-0.2695312 0.08203,-0.28125 0.328125,0.1757813 0.726562,0.234375 1.113281,0.234375 1.371094,0 1.839844,-0.75 1.839844,-1.3242187 0,-0.375 -0.175781,-0.6679688 -0.363281,-0.8554688 0.246093,-0.1289062 0.421875,-0.140625 0.539062,-0.1640625 0,0.035156 -0.02344,0.09375 -0.02344,0.1875 0,0.234375 0.1875,0.3984375 0.398437,0.3984375 0.199219,0 0.410156,-0.140625 0.410156,-0.4101562 0,-0.234375 -0.175781,-0.5507813 -0.597656,-0.5507813 -0.433594,0 -0.808594,0.2226563 -0.984375,0.3398438 -0.375,-0.2226563 -0.785156,-0.28125 -1.21875,-0.28125 -1.371094,0 -1.839844,0.7382812 -1.839844,1.3242187 0,0.4921875 0.304688,0.8203125 0.46875,0.9492188 -0.1875,0.2109375 -0.292968,0.515625 -0.292968,0.78515624 0,0.38671875 0.1875,0.69140625 0.375,0.85546875 -0.679688,0.1875 -0.773438,0.57421875 -0.773438,0.7734375 0,0.53906251 0.621094,1.14843751 2.355469,1.14843751 1.570312,0 2.355469,-0.4921875 2.355469,-1.17187501 0,-0.31640625 -0.117188,-0.87890625 -0.738282,-1.16015625 -0.515625,-0.234375 -0.996093,-0.234375 -1.886718,-0.234375 z M 20.2365,-1.7335078 c -0.808594,0 -0.808594,-0.5742188 -0.808594,-0.9609375 0,-0.4101563 0,-0.984375 0.808594,-0.984375 0.808594,0 0.808594,0.5742187 0.808594,0.9726562 0,0.3984375 0,0.9726563 -0.808594,0.9726563 z m 0.527344,1.86328124 c 0.28125,0 1.324219,0 1.324219,0.5390625 0,0.28125 -0.339844,0.77343746 -1.558594,0.77343746 -1.183594,0 -1.558594,-0.44531246 -1.558594,-0.79687496 0,-0.515625 0.574219,-0.515625 0.714844,-0.515625 z m 7.461914,-2.85937504 c 0,-1.0664062 -0.644531,-1.3007812 -1.429688,-1.3007812 -0.84375,0 -1.324218,0.4804687 -1.558593,0.84375 v -3.0351563 l -1.605469,0.070312 v 0.4453125 c 0.539062,0 0.609375,0 0.609375,0.3515625 v 4.92187504 H 23.632008 V 8.671875e-4 C 24.299977,-0.02257031 24.405445,-0.02257031 24.768727,-0.02257031 c 0.363281,0 0.457031,0 1.136718,0.0234374975 V -0.43272656 H 25.29607 V -2.2725703 c 0,-1.0078125 0.820313,-1.40625 1.359375,-1.40625 0.339844,0 0.515625,0.1875 0.515625,0.8671875 v 2.37890624 H 26.561695 V 8.671875e-4 C 27.229664,-0.02257031 27.335133,-0.02257031 27.698414,-0.02257031 c 0.363281,0 0.457031,0 1.136719,0.0234374975 V -0.43272656 h -0.609375 z m 2.563476,-0.8085937 h 1.347657 v -0.4453125 h -1.347657 v -1.7109375 h -0.457031 c -0.01172,0.84375 -0.433594,1.7695312 -1.347656,1.7929687 v 0.3632813 h 0.75 v 2.4375 c 0,1.01953124 0.890625,1.16015624 1.441406,1.16015624 0.703125,0 1.136719,-0.50390625 1.136719,-1.16015624 v -0.4804688 h -0.457031 v 0.4570313 c 0,0.63281249 -0.328125,0.79687499 -0.550782,0.79687499 -0.515625,0 -0.515625,-0.5390625 -0.515625,-0.76171879 z m 12.462891,-1.9101563 c 0,-0.1992187 0.01172,-0.2109375 0.257813,-0.234375 0.210937,-0.023437 0.234375,-0.023437 0.480468,-0.023437 h 0.222657 v -0.4453125 c -0.550782,0.035156 -0.808594,0.035156 -1.21875,0.035156 -0.363282,0 -0.644532,0 -1.242188,-0.035156 v 0.4453125 H 41.9865 c 0.246094,0 0.257813,0 0.480469,0.023437 0.246094,0.023437 0.257812,0.035156 0.257812,0.234375 v 3.375 c 0,1.21875004 -0.902343,1.74609379 -1.992187,1.74609379 -1.617188,0 -1.628906,-1.19531249 -1.628906,-1.67578129 v -3.703125 h 0.960937 v -0.4453125 c -0.304687,0.035156 -1.242187,0.035156 -1.605469,0.035156 -0.375,0 -1.3125,0 -1.628906,-0.035156 v 0.4453125 h 0.972656 v 3.6328125 c 0,1.18359379 0.984375,2.17968754 2.894532,2.17968754 1.757812,0 2.554687,-1.04296875 2.554687,-2.16796874 z m 3.984375,6.75 h -0.609375 v -1.65234371 c 0.527344,0.41015625 1.019531,0.41015625 1.195313,0.41015625 1.40625,0 2.308593,-0.85546875 2.308593,-2.05078124 0,-1.1835938 -0.820312,-2.0390625 -2.167968,-2.0390625 -0.726563,0 -1.21875,0.3046875 -1.394532,0.421875 v -0.421875 l -1.605468,0.070312 v 0.4335937 c 0.1875,0 0.328125,0 0.445312,0.035156 0.164063,0.023437 0.164063,0.1171875 0.164063,0.3046875 v 4.4882812 h -0.609375 v 0.4335938 c 0.667968,-0.023437 0.773437,-0.023437 1.136718,-0.023437 0.363282,0 0.457032,0 1.136719,0.023437 z m -0.609375,-4.3945312 c 0.164063,-0.1992188 0.585938,-0.5507813 1.195313,-0.5507813 0.621093,0 1.113281,0.5507813 1.113281,1.640625 0,1.25390629 -0.632813,1.69921879 -1.230469,1.69921879 -0.457031,0 -0.832031,-0.2578125 -1.078125,-0.6328125 z m 7.467773,-3.0585938 v 0.4453125 c 0.527344,0 0.609375,0 0.609375,0.3515625 v 1.7226563 c -0.398437,-0.28125 -0.820312,-0.3984375 -1.253906,-0.3984375 -1.453125,0 -2.308594,0.8789062 -2.308594,2.0390625 0,1.19531249 0.84375,2.05078124 2.203125,2.05078124 0.5625,0 1.007813,-0.22265625 1.300782,-0.45703125 V 0.05946094 L 56.298023,8.671875e-4 V -0.43272656 c -0.527343,0 -0.609375,0 -0.609375,-0.3515625 V -6.2217891 Z m 0.550782,5.17968754 c -0.199219,0.3046875 -0.632813,0.66796875 -1.207032,0.66796875 -1.101562,0 -1.101562,-1.07812499 -1.101562,-1.66406249 0,-0.5273438 0,-0.9140625 0.234375,-1.2421875 0.234375,-0.3515625 0.667969,-0.46875 0.984375,-0.46875 0.445312,0 0.808594,0.1992187 1.089844,0.5507812 z m 6.375,-1.69921874 c 0,-0.7851563 -0.644532,-1.3945313 -2.027344,-1.3945313 -0.503906,0 -1.652344,0.023437 -1.652344,0.84375 0,0.4101563 0.304688,0.5976563 0.585938,0.5976563 0.304687,0 0.574218,-0.2226563 0.574218,-0.5859375 0,-0.2578125 -0.152343,-0.4101563 -0.175781,-0.4335938 0.09375,-0.023437 0.304688,-0.058594 0.632813,-0.058594 0.644531,0 1.019531,0.328125 1.019531,1.03125 v 0.2929687 c -1.488281,0 -3,0.375 -3,1.3710938 0,0.89062499 1.125,1.06640624 1.769531,1.06640624 0.679688,0 1.148438,-0.3046875 1.394531,-0.7265625 0,0.234375 0,0.6679687475 0.949219,0.6679687475 h 0.445313 c 0.164062,0 0.292968,0 0.292968,-0.2226562475 0,-0.2109375 -0.140625,-0.2109375 -0.234375,-0.2109375 -0.574218,-0.0117188 -0.574218,-0.10546875 -0.574218,-0.31640625 z m -1.042969,1.4296875 c 0,0.93749999 -1.042969,0.93749999 -1.078125,0.93749999 -0.457031,0 -0.832031,-0.29296875 -0.832031,-0.70312499 0,-0.2929688 0.164062,-0.9960938 1.910156,-1.0664063 z m 3.870117,-2.296875 h 1.347656 v -0.4453125 h -1.347656 v -1.7109375 h -0.457031 c -0.01172,0.84375 -0.433594,1.7695312 -1.347656,1.7929687 v 0.3632813 h 0.75 v 2.4375 c 0,1.01953124 0.890625,1.16015624 1.441406,1.16015624 0.703125,0 1.136719,-0.50390625 1.136719,-1.16015624 v -0.4804688 h -0.457032 v 0.4570313 c 0,0.63281249 -0.328125,0.79687499 -0.550781,0.79687499 -0.515625,0 -0.515625,-0.5390625 -0.515625,-0.76171879 z m 6.386719,1.6171875 c 0.1875,0 0.292969,0 0.292969,-0.2578125 0,-0.1992188 -0.01172,-0.984375 -0.597657,-1.4648438 -0.398437,-0.3398437 -0.9375,-0.421875 -1.382812,-0.421875 -1.523438,0 -2.285156,0.9726563 -2.285156,2.0507813 0,1.17187499 0.890625,2.07421874 2.414062,2.07421874 1.476563,0 1.851563,-0.94921875 1.851563,-1.10156254 0,-0.1757812 -0.175782,-0.1757812 -0.234375,-0.1757812 -0.152344,0 -0.175782,0.058594 -0.222657,0.1757812 -0.210937,0.46875004 -0.761718,0.71484379 -1.324218,0.71484379 -1.265625,0 -1.289063,-1.16015629 -1.289063,-1.59374999 z m -2.777344,-0.328125 c 0.02344,-0.4101563 0.05859,-1.453125 1.089844,-1.453125 1.054687,0 1.089844,1.0898437 1.101562,1.453125 z m 0,0"
       style="fill:#33ff33;fill-opacity:1;fill-rule:nonzero;stroke:none"
       aria-label="WeightUpdate"
       transform="matrix(1.3333333,0,0,1.3333333,11.768,453.284)" />
  </g>
</svg>
